G75*
%MOIN*%
%OFA0B0*%
%FSLAX25Y25*%
%IPPOS*%
%LPD*%
%AMOC8*
5,1,8,0,0,1.08239X$1,22.5*
%
%ADD10C,0.00800*%
D10*
X0008926Y0016800D02*
X0008928Y0016993D01*
X0008935Y0017186D01*
X0008947Y0017379D01*
X0008964Y0017572D01*
X0008985Y0017764D01*
X0009011Y0017955D01*
X0009042Y0018146D01*
X0009077Y0018336D01*
X0009117Y0018525D01*
X0009162Y0018713D01*
X0009211Y0018900D01*
X0009265Y0019086D01*
X0009323Y0019270D01*
X0009386Y0019453D01*
X0009454Y0019634D01*
X0009525Y0019813D01*
X0009602Y0019991D01*
X0009682Y0020167D01*
X0009767Y0020340D01*
X0009856Y0020512D01*
X0009949Y0020681D01*
X0010046Y0020848D01*
X0010148Y0021013D01*
X0010253Y0021175D01*
X0010362Y0021334D01*
X0010476Y0021491D01*
X0010593Y0021644D01*
X0010713Y0021795D01*
X0010838Y0021943D01*
X0010966Y0022088D01*
X0011097Y0022229D01*
X0011232Y0022368D01*
X0011371Y0022503D01*
X0011512Y0022634D01*
X0011657Y0022762D01*
X0011805Y0022887D01*
X0011956Y0023007D01*
X0012109Y0023124D01*
X0012266Y0023238D01*
X0012425Y0023347D01*
X0012587Y0023452D01*
X0012752Y0023554D01*
X0012919Y0023651D01*
X0013088Y0023744D01*
X0013260Y0023833D01*
X0013433Y0023918D01*
X0013609Y0023998D01*
X0013787Y0024075D01*
X0013966Y0024146D01*
X0014147Y0024214D01*
X0014330Y0024277D01*
X0014514Y0024335D01*
X0014700Y0024389D01*
X0014887Y0024438D01*
X0015075Y0024483D01*
X0015264Y0024523D01*
X0015454Y0024558D01*
X0015645Y0024589D01*
X0015836Y0024615D01*
X0016028Y0024636D01*
X0016221Y0024653D01*
X0016414Y0024665D01*
X0016607Y0024672D01*
X0016800Y0024674D01*
X0016993Y0024672D01*
X0017186Y0024665D01*
X0017379Y0024653D01*
X0017572Y0024636D01*
X0017764Y0024615D01*
X0017955Y0024589D01*
X0018146Y0024558D01*
X0018336Y0024523D01*
X0018525Y0024483D01*
X0018713Y0024438D01*
X0018900Y0024389D01*
X0019086Y0024335D01*
X0019270Y0024277D01*
X0019453Y0024214D01*
X0019634Y0024146D01*
X0019813Y0024075D01*
X0019991Y0023998D01*
X0020167Y0023918D01*
X0020340Y0023833D01*
X0020512Y0023744D01*
X0020681Y0023651D01*
X0020848Y0023554D01*
X0021013Y0023452D01*
X0021175Y0023347D01*
X0021334Y0023238D01*
X0021491Y0023124D01*
X0021644Y0023007D01*
X0021795Y0022887D01*
X0021943Y0022762D01*
X0022088Y0022634D01*
X0022229Y0022503D01*
X0022368Y0022368D01*
X0022503Y0022229D01*
X0022634Y0022088D01*
X0022762Y0021943D01*
X0022887Y0021795D01*
X0023007Y0021644D01*
X0023124Y0021491D01*
X0023238Y0021334D01*
X0023347Y0021175D01*
X0023452Y0021013D01*
X0023554Y0020848D01*
X0023651Y0020681D01*
X0023744Y0020512D01*
X0023833Y0020340D01*
X0023918Y0020167D01*
X0023998Y0019991D01*
X0024075Y0019813D01*
X0024146Y0019634D01*
X0024214Y0019453D01*
X0024277Y0019270D01*
X0024335Y0019086D01*
X0024389Y0018900D01*
X0024438Y0018713D01*
X0024483Y0018525D01*
X0024523Y0018336D01*
X0024558Y0018146D01*
X0024589Y0017955D01*
X0024615Y0017764D01*
X0024636Y0017572D01*
X0024653Y0017379D01*
X0024665Y0017186D01*
X0024672Y0016993D01*
X0024674Y0016800D01*
X0024672Y0016607D01*
X0024665Y0016414D01*
X0024653Y0016221D01*
X0024636Y0016028D01*
X0024615Y0015836D01*
X0024589Y0015645D01*
X0024558Y0015454D01*
X0024523Y0015264D01*
X0024483Y0015075D01*
X0024438Y0014887D01*
X0024389Y0014700D01*
X0024335Y0014514D01*
X0024277Y0014330D01*
X0024214Y0014147D01*
X0024146Y0013966D01*
X0024075Y0013787D01*
X0023998Y0013609D01*
X0023918Y0013433D01*
X0023833Y0013260D01*
X0023744Y0013088D01*
X0023651Y0012919D01*
X0023554Y0012752D01*
X0023452Y0012587D01*
X0023347Y0012425D01*
X0023238Y0012266D01*
X0023124Y0012109D01*
X0023007Y0011956D01*
X0022887Y0011805D01*
X0022762Y0011657D01*
X0022634Y0011512D01*
X0022503Y0011371D01*
X0022368Y0011232D01*
X0022229Y0011097D01*
X0022088Y0010966D01*
X0021943Y0010838D01*
X0021795Y0010713D01*
X0021644Y0010593D01*
X0021491Y0010476D01*
X0021334Y0010362D01*
X0021175Y0010253D01*
X0021013Y0010148D01*
X0020848Y0010046D01*
X0020681Y0009949D01*
X0020512Y0009856D01*
X0020340Y0009767D01*
X0020167Y0009682D01*
X0019991Y0009602D01*
X0019813Y0009525D01*
X0019634Y0009454D01*
X0019453Y0009386D01*
X0019270Y0009323D01*
X0019086Y0009265D01*
X0018900Y0009211D01*
X0018713Y0009162D01*
X0018525Y0009117D01*
X0018336Y0009077D01*
X0018146Y0009042D01*
X0017955Y0009011D01*
X0017764Y0008985D01*
X0017572Y0008964D01*
X0017379Y0008947D01*
X0017186Y0008935D01*
X0016993Y0008928D01*
X0016800Y0008926D01*
X0016607Y0008928D01*
X0016414Y0008935D01*
X0016221Y0008947D01*
X0016028Y0008964D01*
X0015836Y0008985D01*
X0015645Y0009011D01*
X0015454Y0009042D01*
X0015264Y0009077D01*
X0015075Y0009117D01*
X0014887Y0009162D01*
X0014700Y0009211D01*
X0014514Y0009265D01*
X0014330Y0009323D01*
X0014147Y0009386D01*
X0013966Y0009454D01*
X0013787Y0009525D01*
X0013609Y0009602D01*
X0013433Y0009682D01*
X0013260Y0009767D01*
X0013088Y0009856D01*
X0012919Y0009949D01*
X0012752Y0010046D01*
X0012587Y0010148D01*
X0012425Y0010253D01*
X0012266Y0010362D01*
X0012109Y0010476D01*
X0011956Y0010593D01*
X0011805Y0010713D01*
X0011657Y0010838D01*
X0011512Y0010966D01*
X0011371Y0011097D01*
X0011232Y0011232D01*
X0011097Y0011371D01*
X0010966Y0011512D01*
X0010838Y0011657D01*
X0010713Y0011805D01*
X0010593Y0011956D01*
X0010476Y0012109D01*
X0010362Y0012266D01*
X0010253Y0012425D01*
X0010148Y0012587D01*
X0010046Y0012752D01*
X0009949Y0012919D01*
X0009856Y0013088D01*
X0009767Y0013260D01*
X0009682Y0013433D01*
X0009602Y0013609D01*
X0009525Y0013787D01*
X0009454Y0013966D01*
X0009386Y0014147D01*
X0009323Y0014330D01*
X0009265Y0014514D01*
X0009211Y0014700D01*
X0009162Y0014887D01*
X0009117Y0015075D01*
X0009077Y0015264D01*
X0009042Y0015454D01*
X0009011Y0015645D01*
X0008985Y0015836D01*
X0008964Y0016028D01*
X0008947Y0016221D01*
X0008935Y0016414D01*
X0008928Y0016607D01*
X0008926Y0016800D01*
X0008926Y0146800D02*
X0008928Y0146993D01*
X0008935Y0147186D01*
X0008947Y0147379D01*
X0008964Y0147572D01*
X0008985Y0147764D01*
X0009011Y0147955D01*
X0009042Y0148146D01*
X0009077Y0148336D01*
X0009117Y0148525D01*
X0009162Y0148713D01*
X0009211Y0148900D01*
X0009265Y0149086D01*
X0009323Y0149270D01*
X0009386Y0149453D01*
X0009454Y0149634D01*
X0009525Y0149813D01*
X0009602Y0149991D01*
X0009682Y0150167D01*
X0009767Y0150340D01*
X0009856Y0150512D01*
X0009949Y0150681D01*
X0010046Y0150848D01*
X0010148Y0151013D01*
X0010253Y0151175D01*
X0010362Y0151334D01*
X0010476Y0151491D01*
X0010593Y0151644D01*
X0010713Y0151795D01*
X0010838Y0151943D01*
X0010966Y0152088D01*
X0011097Y0152229D01*
X0011232Y0152368D01*
X0011371Y0152503D01*
X0011512Y0152634D01*
X0011657Y0152762D01*
X0011805Y0152887D01*
X0011956Y0153007D01*
X0012109Y0153124D01*
X0012266Y0153238D01*
X0012425Y0153347D01*
X0012587Y0153452D01*
X0012752Y0153554D01*
X0012919Y0153651D01*
X0013088Y0153744D01*
X0013260Y0153833D01*
X0013433Y0153918D01*
X0013609Y0153998D01*
X0013787Y0154075D01*
X0013966Y0154146D01*
X0014147Y0154214D01*
X0014330Y0154277D01*
X0014514Y0154335D01*
X0014700Y0154389D01*
X0014887Y0154438D01*
X0015075Y0154483D01*
X0015264Y0154523D01*
X0015454Y0154558D01*
X0015645Y0154589D01*
X0015836Y0154615D01*
X0016028Y0154636D01*
X0016221Y0154653D01*
X0016414Y0154665D01*
X0016607Y0154672D01*
X0016800Y0154674D01*
X0016993Y0154672D01*
X0017186Y0154665D01*
X0017379Y0154653D01*
X0017572Y0154636D01*
X0017764Y0154615D01*
X0017955Y0154589D01*
X0018146Y0154558D01*
X0018336Y0154523D01*
X0018525Y0154483D01*
X0018713Y0154438D01*
X0018900Y0154389D01*
X0019086Y0154335D01*
X0019270Y0154277D01*
X0019453Y0154214D01*
X0019634Y0154146D01*
X0019813Y0154075D01*
X0019991Y0153998D01*
X0020167Y0153918D01*
X0020340Y0153833D01*
X0020512Y0153744D01*
X0020681Y0153651D01*
X0020848Y0153554D01*
X0021013Y0153452D01*
X0021175Y0153347D01*
X0021334Y0153238D01*
X0021491Y0153124D01*
X0021644Y0153007D01*
X0021795Y0152887D01*
X0021943Y0152762D01*
X0022088Y0152634D01*
X0022229Y0152503D01*
X0022368Y0152368D01*
X0022503Y0152229D01*
X0022634Y0152088D01*
X0022762Y0151943D01*
X0022887Y0151795D01*
X0023007Y0151644D01*
X0023124Y0151491D01*
X0023238Y0151334D01*
X0023347Y0151175D01*
X0023452Y0151013D01*
X0023554Y0150848D01*
X0023651Y0150681D01*
X0023744Y0150512D01*
X0023833Y0150340D01*
X0023918Y0150167D01*
X0023998Y0149991D01*
X0024075Y0149813D01*
X0024146Y0149634D01*
X0024214Y0149453D01*
X0024277Y0149270D01*
X0024335Y0149086D01*
X0024389Y0148900D01*
X0024438Y0148713D01*
X0024483Y0148525D01*
X0024523Y0148336D01*
X0024558Y0148146D01*
X0024589Y0147955D01*
X0024615Y0147764D01*
X0024636Y0147572D01*
X0024653Y0147379D01*
X0024665Y0147186D01*
X0024672Y0146993D01*
X0024674Y0146800D01*
X0024672Y0146607D01*
X0024665Y0146414D01*
X0024653Y0146221D01*
X0024636Y0146028D01*
X0024615Y0145836D01*
X0024589Y0145645D01*
X0024558Y0145454D01*
X0024523Y0145264D01*
X0024483Y0145075D01*
X0024438Y0144887D01*
X0024389Y0144700D01*
X0024335Y0144514D01*
X0024277Y0144330D01*
X0024214Y0144147D01*
X0024146Y0143966D01*
X0024075Y0143787D01*
X0023998Y0143609D01*
X0023918Y0143433D01*
X0023833Y0143260D01*
X0023744Y0143088D01*
X0023651Y0142919D01*
X0023554Y0142752D01*
X0023452Y0142587D01*
X0023347Y0142425D01*
X0023238Y0142266D01*
X0023124Y0142109D01*
X0023007Y0141956D01*
X0022887Y0141805D01*
X0022762Y0141657D01*
X0022634Y0141512D01*
X0022503Y0141371D01*
X0022368Y0141232D01*
X0022229Y0141097D01*
X0022088Y0140966D01*
X0021943Y0140838D01*
X0021795Y0140713D01*
X0021644Y0140593D01*
X0021491Y0140476D01*
X0021334Y0140362D01*
X0021175Y0140253D01*
X0021013Y0140148D01*
X0020848Y0140046D01*
X0020681Y0139949D01*
X0020512Y0139856D01*
X0020340Y0139767D01*
X0020167Y0139682D01*
X0019991Y0139602D01*
X0019813Y0139525D01*
X0019634Y0139454D01*
X0019453Y0139386D01*
X0019270Y0139323D01*
X0019086Y0139265D01*
X0018900Y0139211D01*
X0018713Y0139162D01*
X0018525Y0139117D01*
X0018336Y0139077D01*
X0018146Y0139042D01*
X0017955Y0139011D01*
X0017764Y0138985D01*
X0017572Y0138964D01*
X0017379Y0138947D01*
X0017186Y0138935D01*
X0016993Y0138928D01*
X0016800Y0138926D01*
X0016607Y0138928D01*
X0016414Y0138935D01*
X0016221Y0138947D01*
X0016028Y0138964D01*
X0015836Y0138985D01*
X0015645Y0139011D01*
X0015454Y0139042D01*
X0015264Y0139077D01*
X0015075Y0139117D01*
X0014887Y0139162D01*
X0014700Y0139211D01*
X0014514Y0139265D01*
X0014330Y0139323D01*
X0014147Y0139386D01*
X0013966Y0139454D01*
X0013787Y0139525D01*
X0013609Y0139602D01*
X0013433Y0139682D01*
X0013260Y0139767D01*
X0013088Y0139856D01*
X0012919Y0139949D01*
X0012752Y0140046D01*
X0012587Y0140148D01*
X0012425Y0140253D01*
X0012266Y0140362D01*
X0012109Y0140476D01*
X0011956Y0140593D01*
X0011805Y0140713D01*
X0011657Y0140838D01*
X0011512Y0140966D01*
X0011371Y0141097D01*
X0011232Y0141232D01*
X0011097Y0141371D01*
X0010966Y0141512D01*
X0010838Y0141657D01*
X0010713Y0141805D01*
X0010593Y0141956D01*
X0010476Y0142109D01*
X0010362Y0142266D01*
X0010253Y0142425D01*
X0010148Y0142587D01*
X0010046Y0142752D01*
X0009949Y0142919D01*
X0009856Y0143088D01*
X0009767Y0143260D01*
X0009682Y0143433D01*
X0009602Y0143609D01*
X0009525Y0143787D01*
X0009454Y0143966D01*
X0009386Y0144147D01*
X0009323Y0144330D01*
X0009265Y0144514D01*
X0009211Y0144700D01*
X0009162Y0144887D01*
X0009117Y0145075D01*
X0009077Y0145264D01*
X0009042Y0145454D01*
X0009011Y0145645D01*
X0008985Y0145836D01*
X0008964Y0146028D01*
X0008947Y0146221D01*
X0008935Y0146414D01*
X0008928Y0146607D01*
X0008926Y0146800D01*
X0298926Y0146800D02*
X0298928Y0146993D01*
X0298935Y0147186D01*
X0298947Y0147379D01*
X0298964Y0147572D01*
X0298985Y0147764D01*
X0299011Y0147955D01*
X0299042Y0148146D01*
X0299077Y0148336D01*
X0299117Y0148525D01*
X0299162Y0148713D01*
X0299211Y0148900D01*
X0299265Y0149086D01*
X0299323Y0149270D01*
X0299386Y0149453D01*
X0299454Y0149634D01*
X0299525Y0149813D01*
X0299602Y0149991D01*
X0299682Y0150167D01*
X0299767Y0150340D01*
X0299856Y0150512D01*
X0299949Y0150681D01*
X0300046Y0150848D01*
X0300148Y0151013D01*
X0300253Y0151175D01*
X0300362Y0151334D01*
X0300476Y0151491D01*
X0300593Y0151644D01*
X0300713Y0151795D01*
X0300838Y0151943D01*
X0300966Y0152088D01*
X0301097Y0152229D01*
X0301232Y0152368D01*
X0301371Y0152503D01*
X0301512Y0152634D01*
X0301657Y0152762D01*
X0301805Y0152887D01*
X0301956Y0153007D01*
X0302109Y0153124D01*
X0302266Y0153238D01*
X0302425Y0153347D01*
X0302587Y0153452D01*
X0302752Y0153554D01*
X0302919Y0153651D01*
X0303088Y0153744D01*
X0303260Y0153833D01*
X0303433Y0153918D01*
X0303609Y0153998D01*
X0303787Y0154075D01*
X0303966Y0154146D01*
X0304147Y0154214D01*
X0304330Y0154277D01*
X0304514Y0154335D01*
X0304700Y0154389D01*
X0304887Y0154438D01*
X0305075Y0154483D01*
X0305264Y0154523D01*
X0305454Y0154558D01*
X0305645Y0154589D01*
X0305836Y0154615D01*
X0306028Y0154636D01*
X0306221Y0154653D01*
X0306414Y0154665D01*
X0306607Y0154672D01*
X0306800Y0154674D01*
X0306993Y0154672D01*
X0307186Y0154665D01*
X0307379Y0154653D01*
X0307572Y0154636D01*
X0307764Y0154615D01*
X0307955Y0154589D01*
X0308146Y0154558D01*
X0308336Y0154523D01*
X0308525Y0154483D01*
X0308713Y0154438D01*
X0308900Y0154389D01*
X0309086Y0154335D01*
X0309270Y0154277D01*
X0309453Y0154214D01*
X0309634Y0154146D01*
X0309813Y0154075D01*
X0309991Y0153998D01*
X0310167Y0153918D01*
X0310340Y0153833D01*
X0310512Y0153744D01*
X0310681Y0153651D01*
X0310848Y0153554D01*
X0311013Y0153452D01*
X0311175Y0153347D01*
X0311334Y0153238D01*
X0311491Y0153124D01*
X0311644Y0153007D01*
X0311795Y0152887D01*
X0311943Y0152762D01*
X0312088Y0152634D01*
X0312229Y0152503D01*
X0312368Y0152368D01*
X0312503Y0152229D01*
X0312634Y0152088D01*
X0312762Y0151943D01*
X0312887Y0151795D01*
X0313007Y0151644D01*
X0313124Y0151491D01*
X0313238Y0151334D01*
X0313347Y0151175D01*
X0313452Y0151013D01*
X0313554Y0150848D01*
X0313651Y0150681D01*
X0313744Y0150512D01*
X0313833Y0150340D01*
X0313918Y0150167D01*
X0313998Y0149991D01*
X0314075Y0149813D01*
X0314146Y0149634D01*
X0314214Y0149453D01*
X0314277Y0149270D01*
X0314335Y0149086D01*
X0314389Y0148900D01*
X0314438Y0148713D01*
X0314483Y0148525D01*
X0314523Y0148336D01*
X0314558Y0148146D01*
X0314589Y0147955D01*
X0314615Y0147764D01*
X0314636Y0147572D01*
X0314653Y0147379D01*
X0314665Y0147186D01*
X0314672Y0146993D01*
X0314674Y0146800D01*
X0314672Y0146607D01*
X0314665Y0146414D01*
X0314653Y0146221D01*
X0314636Y0146028D01*
X0314615Y0145836D01*
X0314589Y0145645D01*
X0314558Y0145454D01*
X0314523Y0145264D01*
X0314483Y0145075D01*
X0314438Y0144887D01*
X0314389Y0144700D01*
X0314335Y0144514D01*
X0314277Y0144330D01*
X0314214Y0144147D01*
X0314146Y0143966D01*
X0314075Y0143787D01*
X0313998Y0143609D01*
X0313918Y0143433D01*
X0313833Y0143260D01*
X0313744Y0143088D01*
X0313651Y0142919D01*
X0313554Y0142752D01*
X0313452Y0142587D01*
X0313347Y0142425D01*
X0313238Y0142266D01*
X0313124Y0142109D01*
X0313007Y0141956D01*
X0312887Y0141805D01*
X0312762Y0141657D01*
X0312634Y0141512D01*
X0312503Y0141371D01*
X0312368Y0141232D01*
X0312229Y0141097D01*
X0312088Y0140966D01*
X0311943Y0140838D01*
X0311795Y0140713D01*
X0311644Y0140593D01*
X0311491Y0140476D01*
X0311334Y0140362D01*
X0311175Y0140253D01*
X0311013Y0140148D01*
X0310848Y0140046D01*
X0310681Y0139949D01*
X0310512Y0139856D01*
X0310340Y0139767D01*
X0310167Y0139682D01*
X0309991Y0139602D01*
X0309813Y0139525D01*
X0309634Y0139454D01*
X0309453Y0139386D01*
X0309270Y0139323D01*
X0309086Y0139265D01*
X0308900Y0139211D01*
X0308713Y0139162D01*
X0308525Y0139117D01*
X0308336Y0139077D01*
X0308146Y0139042D01*
X0307955Y0139011D01*
X0307764Y0138985D01*
X0307572Y0138964D01*
X0307379Y0138947D01*
X0307186Y0138935D01*
X0306993Y0138928D01*
X0306800Y0138926D01*
X0306607Y0138928D01*
X0306414Y0138935D01*
X0306221Y0138947D01*
X0306028Y0138964D01*
X0305836Y0138985D01*
X0305645Y0139011D01*
X0305454Y0139042D01*
X0305264Y0139077D01*
X0305075Y0139117D01*
X0304887Y0139162D01*
X0304700Y0139211D01*
X0304514Y0139265D01*
X0304330Y0139323D01*
X0304147Y0139386D01*
X0303966Y0139454D01*
X0303787Y0139525D01*
X0303609Y0139602D01*
X0303433Y0139682D01*
X0303260Y0139767D01*
X0303088Y0139856D01*
X0302919Y0139949D01*
X0302752Y0140046D01*
X0302587Y0140148D01*
X0302425Y0140253D01*
X0302266Y0140362D01*
X0302109Y0140476D01*
X0301956Y0140593D01*
X0301805Y0140713D01*
X0301657Y0140838D01*
X0301512Y0140966D01*
X0301371Y0141097D01*
X0301232Y0141232D01*
X0301097Y0141371D01*
X0300966Y0141512D01*
X0300838Y0141657D01*
X0300713Y0141805D01*
X0300593Y0141956D01*
X0300476Y0142109D01*
X0300362Y0142266D01*
X0300253Y0142425D01*
X0300148Y0142587D01*
X0300046Y0142752D01*
X0299949Y0142919D01*
X0299856Y0143088D01*
X0299767Y0143260D01*
X0299682Y0143433D01*
X0299602Y0143609D01*
X0299525Y0143787D01*
X0299454Y0143966D01*
X0299386Y0144147D01*
X0299323Y0144330D01*
X0299265Y0144514D01*
X0299211Y0144700D01*
X0299162Y0144887D01*
X0299117Y0145075D01*
X0299077Y0145264D01*
X0299042Y0145454D01*
X0299011Y0145645D01*
X0298985Y0145836D01*
X0298964Y0146028D01*
X0298947Y0146221D01*
X0298935Y0146414D01*
X0298928Y0146607D01*
X0298926Y0146800D01*
X0298926Y0016800D02*
X0298928Y0016993D01*
X0298935Y0017186D01*
X0298947Y0017379D01*
X0298964Y0017572D01*
X0298985Y0017764D01*
X0299011Y0017955D01*
X0299042Y0018146D01*
X0299077Y0018336D01*
X0299117Y0018525D01*
X0299162Y0018713D01*
X0299211Y0018900D01*
X0299265Y0019086D01*
X0299323Y0019270D01*
X0299386Y0019453D01*
X0299454Y0019634D01*
X0299525Y0019813D01*
X0299602Y0019991D01*
X0299682Y0020167D01*
X0299767Y0020340D01*
X0299856Y0020512D01*
X0299949Y0020681D01*
X0300046Y0020848D01*
X0300148Y0021013D01*
X0300253Y0021175D01*
X0300362Y0021334D01*
X0300476Y0021491D01*
X0300593Y0021644D01*
X0300713Y0021795D01*
X0300838Y0021943D01*
X0300966Y0022088D01*
X0301097Y0022229D01*
X0301232Y0022368D01*
X0301371Y0022503D01*
X0301512Y0022634D01*
X0301657Y0022762D01*
X0301805Y0022887D01*
X0301956Y0023007D01*
X0302109Y0023124D01*
X0302266Y0023238D01*
X0302425Y0023347D01*
X0302587Y0023452D01*
X0302752Y0023554D01*
X0302919Y0023651D01*
X0303088Y0023744D01*
X0303260Y0023833D01*
X0303433Y0023918D01*
X0303609Y0023998D01*
X0303787Y0024075D01*
X0303966Y0024146D01*
X0304147Y0024214D01*
X0304330Y0024277D01*
X0304514Y0024335D01*
X0304700Y0024389D01*
X0304887Y0024438D01*
X0305075Y0024483D01*
X0305264Y0024523D01*
X0305454Y0024558D01*
X0305645Y0024589D01*
X0305836Y0024615D01*
X0306028Y0024636D01*
X0306221Y0024653D01*
X0306414Y0024665D01*
X0306607Y0024672D01*
X0306800Y0024674D01*
X0306993Y0024672D01*
X0307186Y0024665D01*
X0307379Y0024653D01*
X0307572Y0024636D01*
X0307764Y0024615D01*
X0307955Y0024589D01*
X0308146Y0024558D01*
X0308336Y0024523D01*
X0308525Y0024483D01*
X0308713Y0024438D01*
X0308900Y0024389D01*
X0309086Y0024335D01*
X0309270Y0024277D01*
X0309453Y0024214D01*
X0309634Y0024146D01*
X0309813Y0024075D01*
X0309991Y0023998D01*
X0310167Y0023918D01*
X0310340Y0023833D01*
X0310512Y0023744D01*
X0310681Y0023651D01*
X0310848Y0023554D01*
X0311013Y0023452D01*
X0311175Y0023347D01*
X0311334Y0023238D01*
X0311491Y0023124D01*
X0311644Y0023007D01*
X0311795Y0022887D01*
X0311943Y0022762D01*
X0312088Y0022634D01*
X0312229Y0022503D01*
X0312368Y0022368D01*
X0312503Y0022229D01*
X0312634Y0022088D01*
X0312762Y0021943D01*
X0312887Y0021795D01*
X0313007Y0021644D01*
X0313124Y0021491D01*
X0313238Y0021334D01*
X0313347Y0021175D01*
X0313452Y0021013D01*
X0313554Y0020848D01*
X0313651Y0020681D01*
X0313744Y0020512D01*
X0313833Y0020340D01*
X0313918Y0020167D01*
X0313998Y0019991D01*
X0314075Y0019813D01*
X0314146Y0019634D01*
X0314214Y0019453D01*
X0314277Y0019270D01*
X0314335Y0019086D01*
X0314389Y0018900D01*
X0314438Y0018713D01*
X0314483Y0018525D01*
X0314523Y0018336D01*
X0314558Y0018146D01*
X0314589Y0017955D01*
X0314615Y0017764D01*
X0314636Y0017572D01*
X0314653Y0017379D01*
X0314665Y0017186D01*
X0314672Y0016993D01*
X0314674Y0016800D01*
X0314672Y0016607D01*
X0314665Y0016414D01*
X0314653Y0016221D01*
X0314636Y0016028D01*
X0314615Y0015836D01*
X0314589Y0015645D01*
X0314558Y0015454D01*
X0314523Y0015264D01*
X0314483Y0015075D01*
X0314438Y0014887D01*
X0314389Y0014700D01*
X0314335Y0014514D01*
X0314277Y0014330D01*
X0314214Y0014147D01*
X0314146Y0013966D01*
X0314075Y0013787D01*
X0313998Y0013609D01*
X0313918Y0013433D01*
X0313833Y0013260D01*
X0313744Y0013088D01*
X0313651Y0012919D01*
X0313554Y0012752D01*
X0313452Y0012587D01*
X0313347Y0012425D01*
X0313238Y0012266D01*
X0313124Y0012109D01*
X0313007Y0011956D01*
X0312887Y0011805D01*
X0312762Y0011657D01*
X0312634Y0011512D01*
X0312503Y0011371D01*
X0312368Y0011232D01*
X0312229Y0011097D01*
X0312088Y0010966D01*
X0311943Y0010838D01*
X0311795Y0010713D01*
X0311644Y0010593D01*
X0311491Y0010476D01*
X0311334Y0010362D01*
X0311175Y0010253D01*
X0311013Y0010148D01*
X0310848Y0010046D01*
X0310681Y0009949D01*
X0310512Y0009856D01*
X0310340Y0009767D01*
X0310167Y0009682D01*
X0309991Y0009602D01*
X0309813Y0009525D01*
X0309634Y0009454D01*
X0309453Y0009386D01*
X0309270Y0009323D01*
X0309086Y0009265D01*
X0308900Y0009211D01*
X0308713Y0009162D01*
X0308525Y0009117D01*
X0308336Y0009077D01*
X0308146Y0009042D01*
X0307955Y0009011D01*
X0307764Y0008985D01*
X0307572Y0008964D01*
X0307379Y0008947D01*
X0307186Y0008935D01*
X0306993Y0008928D01*
X0306800Y0008926D01*
X0306607Y0008928D01*
X0306414Y0008935D01*
X0306221Y0008947D01*
X0306028Y0008964D01*
X0305836Y0008985D01*
X0305645Y0009011D01*
X0305454Y0009042D01*
X0305264Y0009077D01*
X0305075Y0009117D01*
X0304887Y0009162D01*
X0304700Y0009211D01*
X0304514Y0009265D01*
X0304330Y0009323D01*
X0304147Y0009386D01*
X0303966Y0009454D01*
X0303787Y0009525D01*
X0303609Y0009602D01*
X0303433Y0009682D01*
X0303260Y0009767D01*
X0303088Y0009856D01*
X0302919Y0009949D01*
X0302752Y0010046D01*
X0302587Y0010148D01*
X0302425Y0010253D01*
X0302266Y0010362D01*
X0302109Y0010476D01*
X0301956Y0010593D01*
X0301805Y0010713D01*
X0301657Y0010838D01*
X0301512Y0010966D01*
X0301371Y0011097D01*
X0301232Y0011232D01*
X0301097Y0011371D01*
X0300966Y0011512D01*
X0300838Y0011657D01*
X0300713Y0011805D01*
X0300593Y0011956D01*
X0300476Y0012109D01*
X0300362Y0012266D01*
X0300253Y0012425D01*
X0300148Y0012587D01*
X0300046Y0012752D01*
X0299949Y0012919D01*
X0299856Y0013088D01*
X0299767Y0013260D01*
X0299682Y0013433D01*
X0299602Y0013609D01*
X0299525Y0013787D01*
X0299454Y0013966D01*
X0299386Y0014147D01*
X0299323Y0014330D01*
X0299265Y0014514D01*
X0299211Y0014700D01*
X0299162Y0014887D01*
X0299117Y0015075D01*
X0299077Y0015264D01*
X0299042Y0015454D01*
X0299011Y0015645D01*
X0298985Y0015836D01*
X0298964Y0016028D01*
X0298947Y0016221D01*
X0298935Y0016414D01*
X0298928Y0016607D01*
X0298926Y0016800D01*
M02*
