G75*
%MOIN*%
%OFA0B0*%
%FSLAX25Y25*%
%IPPOS*%
%LPD*%
%AMOC8*
5,1,8,0,0,1.08239X$1,22.5*
%
%ADD10C,0.07800*%
%ADD11C,0.07000*%
%ADD12C,0.06400*%
%ADD13C,0.13400*%
%ADD14C,0.07400*%
%ADD15C,0.14243*%
%ADD16C,0.00500*%
%ADD17C,0.06699*%
D10*
X0184000Y0016650D03*
X0209600Y0016650D03*
X0224000Y0016650D03*
X0249600Y0016650D03*
X0264000Y0016650D03*
X0289600Y0016650D03*
X0289600Y0034450D03*
X0264000Y0034450D03*
X0249600Y0034450D03*
X0224000Y0034450D03*
X0209600Y0034450D03*
X0184000Y0034450D03*
X0184000Y0051650D03*
X0209600Y0051650D03*
X0224000Y0051650D03*
X0249600Y0051650D03*
X0264000Y0051650D03*
X0289600Y0051650D03*
X0289600Y0069450D03*
X0264000Y0069450D03*
X0249600Y0069450D03*
X0224000Y0069450D03*
X0209600Y0069450D03*
X0184000Y0069450D03*
X0184000Y0086650D03*
X0209600Y0086650D03*
X0224000Y0086650D03*
X0249600Y0086650D03*
X0264000Y0086650D03*
X0289600Y0086650D03*
X0289600Y0104450D03*
X0264000Y0104450D03*
X0249600Y0104450D03*
X0224000Y0104450D03*
X0209600Y0104450D03*
X0184000Y0104450D03*
X0184000Y0121650D03*
X0209600Y0121650D03*
X0224000Y0121650D03*
X0249600Y0121650D03*
X0264000Y0121650D03*
X0289600Y0121650D03*
X0289600Y0139450D03*
X0264000Y0139450D03*
X0249600Y0139450D03*
X0224000Y0139450D03*
X0209600Y0139450D03*
X0184000Y0139450D03*
D11*
X0031800Y0141800D03*
X0031800Y0131800D03*
X0031800Y0121800D03*
X0031800Y0151800D03*
X0019300Y0061800D03*
X0019300Y0051800D03*
X0019300Y0041800D03*
D12*
X0126800Y0014300D03*
X0146800Y0014300D03*
X0146800Y0071300D03*
X0136800Y0071300D03*
X0126800Y0071300D03*
D13*
X0110800Y0041800D03*
X0162800Y0041800D03*
D14*
X0136800Y0084300D03*
D15*
X0016800Y0016800D03*
X0016800Y0146800D03*
X0306800Y0146800D03*
X0306800Y0016800D03*
D16*
X0018504Y0105667D02*
X0018373Y0105303D01*
X0018165Y0104978D01*
X0017889Y0104707D01*
X0017560Y0104505D01*
X0017194Y0104380D01*
X0016810Y0104340D01*
X0016429Y0104374D01*
X0016064Y0104492D01*
X0015735Y0104688D01*
X0015458Y0104953D01*
X0015247Y0105272D01*
X0015112Y0105631D01*
X0015060Y0106010D01*
X0015095Y0106411D01*
X0015219Y0106793D01*
X0015424Y0107139D01*
X0015701Y0107430D01*
X0016036Y0107653D01*
X0016412Y0107795D01*
X0016810Y0107850D01*
X0017203Y0107799D01*
X0017575Y0107662D01*
X0017907Y0107445D01*
X0018183Y0107160D01*
X0018388Y0106821D01*
X0018512Y0106445D01*
X0018550Y0106050D01*
X0018504Y0105667D01*
X0018440Y0105490D02*
X0015165Y0105490D01*
X0015063Y0105989D02*
X0018543Y0105989D01*
X0018498Y0106487D02*
X0015120Y0106487D01*
X0015333Y0106986D02*
X0018288Y0106986D01*
X0017847Y0107484D02*
X0015782Y0107484D01*
X0015432Y0104992D02*
X0018173Y0104992D01*
X0017527Y0104493D02*
X0016062Y0104493D01*
X0016840Y0115040D02*
X0017224Y0115080D01*
X0017590Y0115204D01*
X0017919Y0115407D01*
X0018194Y0115678D01*
X0018403Y0116003D01*
X0018533Y0116367D01*
X0018580Y0116750D01*
X0018542Y0117145D01*
X0018418Y0117521D01*
X0018212Y0117860D01*
X0017937Y0118145D01*
X0017605Y0118361D01*
X0017233Y0118499D01*
X0016840Y0118550D01*
X0016442Y0118495D01*
X0016066Y0118352D01*
X0015731Y0118130D01*
X0015454Y0117839D01*
X0015248Y0117493D01*
X0015125Y0117110D01*
X0015090Y0116710D01*
X0015142Y0116330D01*
X0015277Y0115972D01*
X0015488Y0115652D01*
X0015765Y0115388D01*
X0016094Y0115192D01*
X0016459Y0115074D01*
X0016840Y0115040D01*
X0017974Y0115461D02*
X0015689Y0115461D01*
X0015285Y0115959D02*
X0018375Y0115959D01*
X0018544Y0116458D02*
X0015125Y0116458D01*
X0015112Y0116956D02*
X0018560Y0116956D01*
X0018440Y0117455D02*
X0015236Y0117455D01*
X0015563Y0117953D02*
X0018122Y0117953D01*
X0017360Y0118452D02*
X0016328Y0118452D01*
X0016800Y0125760D02*
X0017184Y0125800D01*
X0017550Y0125924D01*
X0017879Y0126127D01*
X0018154Y0126398D01*
X0018363Y0126723D01*
X0018493Y0127087D01*
X0018540Y0127470D01*
X0018502Y0127865D01*
X0018377Y0128241D01*
X0018172Y0128580D01*
X0017897Y0128865D01*
X0017565Y0129081D01*
X0017193Y0129219D01*
X0016800Y0129270D01*
X0016402Y0129215D01*
X0016026Y0129072D01*
X0015691Y0128850D01*
X0015414Y0128559D01*
X0015208Y0128213D01*
X0015085Y0127830D01*
X0015050Y0127430D01*
X0015102Y0127050D01*
X0015237Y0126692D01*
X0015448Y0126372D01*
X0015725Y0126108D01*
X0016054Y0125912D01*
X0016418Y0125794D01*
X0016800Y0125760D01*
X0017558Y0125929D02*
X0016025Y0125929D01*
X0015411Y0126428D02*
X0018174Y0126428D01*
X0018436Y0126926D02*
X0015148Y0126926D01*
X0015051Y0127425D02*
X0018534Y0127425D01*
X0018483Y0127923D02*
X0015115Y0127923D01*
X0015332Y0128422D02*
X0018268Y0128422D01*
X0017812Y0128920D02*
X0015797Y0128920D01*
D17*
X0014635Y0085737D03*
X0014635Y0077863D03*
M02*
