G75*
%MOIN*%
%OFA0B0*%
%FSLAX25Y25*%
%IPPOS*%
%LPD*%
%AMOC8*
5,1,8,0,0,1.08239X$1,22.5*
%
%ADD10C,0.00400*%
%ADD11C,0.01000*%
%ADD12C,0.00500*%
%ADD13C,0.00800*%
%ADD14C,0.00700*%
D10*
X0193122Y0147799D02*
X0193973Y0147799D01*
X0194824Y0148649D01*
X0194824Y0152903D01*
X0192272Y0152903D01*
X0191421Y0152052D01*
X0191421Y0150351D01*
X0192272Y0149500D01*
X0194824Y0149500D01*
X0196485Y0149500D02*
X0198187Y0149500D01*
X0197336Y0149500D02*
X0197336Y0152903D01*
X0196485Y0152903D01*
X0197336Y0154604D02*
X0197336Y0155455D01*
X0199862Y0152903D02*
X0201563Y0152903D01*
X0200712Y0153754D02*
X0200712Y0150351D01*
X0201563Y0149500D01*
X0203238Y0150351D02*
X0204089Y0151201D01*
X0206641Y0151201D01*
X0206641Y0152052D02*
X0206641Y0149500D01*
X0204089Y0149500D01*
X0203238Y0150351D01*
X0205790Y0152903D02*
X0206641Y0152052D01*
X0205790Y0152903D02*
X0204089Y0152903D01*
X0208302Y0154604D02*
X0209153Y0154604D01*
X0209153Y0149500D01*
X0208302Y0149500D02*
X0210004Y0149500D01*
X0216743Y0150351D02*
X0217593Y0149500D01*
X0219295Y0149500D01*
X0220146Y0150351D01*
X0220146Y0151201D01*
X0219295Y0152052D01*
X0217593Y0152052D01*
X0216743Y0152903D01*
X0216743Y0153754D01*
X0217593Y0154604D01*
X0219295Y0154604D01*
X0220146Y0153754D01*
X0221807Y0152903D02*
X0222658Y0152903D01*
X0222658Y0149500D01*
X0223508Y0149500D02*
X0221807Y0149500D01*
X0225183Y0150351D02*
X0225183Y0152052D01*
X0226034Y0152903D01*
X0228586Y0152903D01*
X0228586Y0148649D01*
X0227735Y0147799D01*
X0226885Y0147799D01*
X0226034Y0149500D02*
X0228586Y0149500D01*
X0230248Y0149500D02*
X0230248Y0152903D01*
X0232800Y0152903D01*
X0233650Y0152052D01*
X0233650Y0149500D01*
X0235312Y0150351D02*
X0236163Y0151201D01*
X0238715Y0151201D01*
X0238715Y0152052D02*
X0238715Y0149500D01*
X0236163Y0149500D01*
X0235312Y0150351D01*
X0237864Y0152903D02*
X0238715Y0152052D01*
X0237864Y0152903D02*
X0236163Y0152903D01*
X0240376Y0154604D02*
X0241227Y0154604D01*
X0241227Y0149500D01*
X0240376Y0149500D02*
X0242078Y0149500D01*
X0248817Y0150351D02*
X0248817Y0153754D01*
X0249667Y0154604D01*
X0251369Y0154604D01*
X0252220Y0153754D01*
X0252220Y0152052D02*
X0250518Y0152052D01*
X0252220Y0152052D02*
X0252220Y0150351D01*
X0251369Y0149500D01*
X0249667Y0149500D01*
X0248817Y0150351D01*
X0253881Y0150351D02*
X0253881Y0152052D01*
X0254732Y0152903D01*
X0256433Y0152903D01*
X0257284Y0152052D01*
X0257284Y0151201D01*
X0253881Y0151201D01*
X0253881Y0150351D02*
X0254732Y0149500D01*
X0256433Y0149500D01*
X0258945Y0149500D02*
X0258945Y0152903D01*
X0261498Y0152903D01*
X0262348Y0152052D01*
X0262348Y0149500D01*
X0264010Y0150351D02*
X0264010Y0152052D01*
X0264860Y0152903D01*
X0266562Y0152903D01*
X0267413Y0152052D01*
X0267413Y0151201D01*
X0264010Y0151201D01*
X0264010Y0150351D02*
X0264860Y0149500D01*
X0266562Y0149500D01*
X0269074Y0149500D02*
X0269074Y0152903D01*
X0270775Y0152903D02*
X0271626Y0152903D01*
X0270775Y0152903D02*
X0269074Y0151201D01*
X0273294Y0150351D02*
X0274145Y0151201D01*
X0276697Y0151201D01*
X0276697Y0152052D02*
X0276697Y0149500D01*
X0274145Y0149500D01*
X0273294Y0150351D01*
X0275846Y0152903D02*
X0276697Y0152052D01*
X0275846Y0152903D02*
X0274145Y0152903D01*
X0278359Y0152903D02*
X0280060Y0152903D01*
X0279209Y0153754D02*
X0279209Y0150351D01*
X0280060Y0149500D01*
X0281735Y0150351D02*
X0281735Y0152052D01*
X0282586Y0152903D01*
X0284287Y0152903D01*
X0285138Y0152052D01*
X0285138Y0150351D01*
X0284287Y0149500D01*
X0282586Y0149500D01*
X0281735Y0150351D01*
X0286799Y0151201D02*
X0288501Y0152903D01*
X0289351Y0152903D01*
X0286799Y0152903D02*
X0286799Y0149500D01*
X0226034Y0149500D02*
X0225183Y0150351D01*
X0222658Y0154604D02*
X0222658Y0155455D01*
X0189746Y0149500D02*
X0188045Y0149500D01*
X0188896Y0149500D02*
X0188896Y0152903D01*
X0188045Y0152903D01*
X0186383Y0153754D02*
X0185533Y0154604D01*
X0182980Y0154604D01*
X0182980Y0149500D01*
X0185533Y0149500D01*
X0186383Y0150351D01*
X0186383Y0153754D01*
X0188896Y0154604D02*
X0188896Y0155455D01*
D11*
X0176800Y0161800D02*
X0176800Y0111800D01*
X0026800Y0111800D01*
X0026800Y0161800D01*
X0176800Y0161800D01*
D12*
X0161800Y0066800D02*
X0111800Y0066800D01*
X0111800Y0051800D01*
X0111800Y0031800D02*
X0111800Y0016800D01*
X0121800Y0016800D01*
X0131800Y0016800D02*
X0141800Y0016800D01*
X0151800Y0016800D02*
X0161800Y0016800D01*
X0161800Y0031800D01*
X0161800Y0051800D02*
X0161800Y0066800D01*
X0013727Y0062969D02*
X0013727Y0060634D01*
X0013143Y0060050D01*
X0011975Y0060050D01*
X0011392Y0060634D01*
X0013727Y0062969D01*
X0013143Y0063553D01*
X0011975Y0063553D01*
X0011392Y0062969D01*
X0011392Y0060634D01*
X0010044Y0060634D02*
X0010044Y0062969D01*
X0009460Y0063553D01*
X0008292Y0063553D01*
X0007708Y0062969D01*
X0007708Y0060634D01*
X0008292Y0060050D01*
X0009460Y0060050D01*
X0010044Y0060634D01*
X0006361Y0060050D02*
X0006361Y0063553D01*
X0004025Y0063553D02*
X0004025Y0060050D01*
X0005193Y0061218D01*
X0006361Y0060050D01*
X0005777Y0053553D02*
X0004609Y0053553D01*
X0004025Y0052969D01*
X0004025Y0050634D01*
X0004609Y0050050D01*
X0005777Y0050050D01*
X0006361Y0050634D01*
X0006361Y0051801D01*
X0005193Y0051801D01*
X0006361Y0052969D02*
X0005777Y0053553D01*
X0007708Y0053553D02*
X0010044Y0050050D01*
X0010044Y0053553D01*
X0011392Y0053553D02*
X0013143Y0053553D01*
X0013727Y0052969D01*
X0013727Y0050634D01*
X0013143Y0050050D01*
X0011392Y0050050D01*
X0011392Y0053553D01*
X0007708Y0053553D02*
X0007708Y0050050D01*
X0008292Y0043553D02*
X0007708Y0042969D01*
X0007708Y0040634D01*
X0008292Y0040050D01*
X0009460Y0040050D01*
X0010044Y0040634D01*
X0010044Y0042969D01*
X0009460Y0043553D01*
X0008292Y0043553D01*
X0006361Y0043553D02*
X0006361Y0040050D01*
X0005193Y0041218D01*
X0004025Y0040050D01*
X0004025Y0043553D01*
X0011392Y0042385D02*
X0012559Y0043553D01*
X0012559Y0040050D01*
X0011392Y0040050D02*
X0013727Y0040050D01*
D13*
X0008926Y0016800D02*
X0008928Y0016993D01*
X0008935Y0017186D01*
X0008947Y0017379D01*
X0008964Y0017572D01*
X0008985Y0017764D01*
X0009011Y0017955D01*
X0009042Y0018146D01*
X0009077Y0018336D01*
X0009117Y0018525D01*
X0009162Y0018713D01*
X0009211Y0018900D01*
X0009265Y0019086D01*
X0009323Y0019270D01*
X0009386Y0019453D01*
X0009454Y0019634D01*
X0009525Y0019813D01*
X0009602Y0019991D01*
X0009682Y0020167D01*
X0009767Y0020340D01*
X0009856Y0020512D01*
X0009949Y0020681D01*
X0010046Y0020848D01*
X0010148Y0021013D01*
X0010253Y0021175D01*
X0010362Y0021334D01*
X0010476Y0021491D01*
X0010593Y0021644D01*
X0010713Y0021795D01*
X0010838Y0021943D01*
X0010966Y0022088D01*
X0011097Y0022229D01*
X0011232Y0022368D01*
X0011371Y0022503D01*
X0011512Y0022634D01*
X0011657Y0022762D01*
X0011805Y0022887D01*
X0011956Y0023007D01*
X0012109Y0023124D01*
X0012266Y0023238D01*
X0012425Y0023347D01*
X0012587Y0023452D01*
X0012752Y0023554D01*
X0012919Y0023651D01*
X0013088Y0023744D01*
X0013260Y0023833D01*
X0013433Y0023918D01*
X0013609Y0023998D01*
X0013787Y0024075D01*
X0013966Y0024146D01*
X0014147Y0024214D01*
X0014330Y0024277D01*
X0014514Y0024335D01*
X0014700Y0024389D01*
X0014887Y0024438D01*
X0015075Y0024483D01*
X0015264Y0024523D01*
X0015454Y0024558D01*
X0015645Y0024589D01*
X0015836Y0024615D01*
X0016028Y0024636D01*
X0016221Y0024653D01*
X0016414Y0024665D01*
X0016607Y0024672D01*
X0016800Y0024674D01*
X0016993Y0024672D01*
X0017186Y0024665D01*
X0017379Y0024653D01*
X0017572Y0024636D01*
X0017764Y0024615D01*
X0017955Y0024589D01*
X0018146Y0024558D01*
X0018336Y0024523D01*
X0018525Y0024483D01*
X0018713Y0024438D01*
X0018900Y0024389D01*
X0019086Y0024335D01*
X0019270Y0024277D01*
X0019453Y0024214D01*
X0019634Y0024146D01*
X0019813Y0024075D01*
X0019991Y0023998D01*
X0020167Y0023918D01*
X0020340Y0023833D01*
X0020512Y0023744D01*
X0020681Y0023651D01*
X0020848Y0023554D01*
X0021013Y0023452D01*
X0021175Y0023347D01*
X0021334Y0023238D01*
X0021491Y0023124D01*
X0021644Y0023007D01*
X0021795Y0022887D01*
X0021943Y0022762D01*
X0022088Y0022634D01*
X0022229Y0022503D01*
X0022368Y0022368D01*
X0022503Y0022229D01*
X0022634Y0022088D01*
X0022762Y0021943D01*
X0022887Y0021795D01*
X0023007Y0021644D01*
X0023124Y0021491D01*
X0023238Y0021334D01*
X0023347Y0021175D01*
X0023452Y0021013D01*
X0023554Y0020848D01*
X0023651Y0020681D01*
X0023744Y0020512D01*
X0023833Y0020340D01*
X0023918Y0020167D01*
X0023998Y0019991D01*
X0024075Y0019813D01*
X0024146Y0019634D01*
X0024214Y0019453D01*
X0024277Y0019270D01*
X0024335Y0019086D01*
X0024389Y0018900D01*
X0024438Y0018713D01*
X0024483Y0018525D01*
X0024523Y0018336D01*
X0024558Y0018146D01*
X0024589Y0017955D01*
X0024615Y0017764D01*
X0024636Y0017572D01*
X0024653Y0017379D01*
X0024665Y0017186D01*
X0024672Y0016993D01*
X0024674Y0016800D01*
X0024672Y0016607D01*
X0024665Y0016414D01*
X0024653Y0016221D01*
X0024636Y0016028D01*
X0024615Y0015836D01*
X0024589Y0015645D01*
X0024558Y0015454D01*
X0024523Y0015264D01*
X0024483Y0015075D01*
X0024438Y0014887D01*
X0024389Y0014700D01*
X0024335Y0014514D01*
X0024277Y0014330D01*
X0024214Y0014147D01*
X0024146Y0013966D01*
X0024075Y0013787D01*
X0023998Y0013609D01*
X0023918Y0013433D01*
X0023833Y0013260D01*
X0023744Y0013088D01*
X0023651Y0012919D01*
X0023554Y0012752D01*
X0023452Y0012587D01*
X0023347Y0012425D01*
X0023238Y0012266D01*
X0023124Y0012109D01*
X0023007Y0011956D01*
X0022887Y0011805D01*
X0022762Y0011657D01*
X0022634Y0011512D01*
X0022503Y0011371D01*
X0022368Y0011232D01*
X0022229Y0011097D01*
X0022088Y0010966D01*
X0021943Y0010838D01*
X0021795Y0010713D01*
X0021644Y0010593D01*
X0021491Y0010476D01*
X0021334Y0010362D01*
X0021175Y0010253D01*
X0021013Y0010148D01*
X0020848Y0010046D01*
X0020681Y0009949D01*
X0020512Y0009856D01*
X0020340Y0009767D01*
X0020167Y0009682D01*
X0019991Y0009602D01*
X0019813Y0009525D01*
X0019634Y0009454D01*
X0019453Y0009386D01*
X0019270Y0009323D01*
X0019086Y0009265D01*
X0018900Y0009211D01*
X0018713Y0009162D01*
X0018525Y0009117D01*
X0018336Y0009077D01*
X0018146Y0009042D01*
X0017955Y0009011D01*
X0017764Y0008985D01*
X0017572Y0008964D01*
X0017379Y0008947D01*
X0017186Y0008935D01*
X0016993Y0008928D01*
X0016800Y0008926D01*
X0016607Y0008928D01*
X0016414Y0008935D01*
X0016221Y0008947D01*
X0016028Y0008964D01*
X0015836Y0008985D01*
X0015645Y0009011D01*
X0015454Y0009042D01*
X0015264Y0009077D01*
X0015075Y0009117D01*
X0014887Y0009162D01*
X0014700Y0009211D01*
X0014514Y0009265D01*
X0014330Y0009323D01*
X0014147Y0009386D01*
X0013966Y0009454D01*
X0013787Y0009525D01*
X0013609Y0009602D01*
X0013433Y0009682D01*
X0013260Y0009767D01*
X0013088Y0009856D01*
X0012919Y0009949D01*
X0012752Y0010046D01*
X0012587Y0010148D01*
X0012425Y0010253D01*
X0012266Y0010362D01*
X0012109Y0010476D01*
X0011956Y0010593D01*
X0011805Y0010713D01*
X0011657Y0010838D01*
X0011512Y0010966D01*
X0011371Y0011097D01*
X0011232Y0011232D01*
X0011097Y0011371D01*
X0010966Y0011512D01*
X0010838Y0011657D01*
X0010713Y0011805D01*
X0010593Y0011956D01*
X0010476Y0012109D01*
X0010362Y0012266D01*
X0010253Y0012425D01*
X0010148Y0012587D01*
X0010046Y0012752D01*
X0009949Y0012919D01*
X0009856Y0013088D01*
X0009767Y0013260D01*
X0009682Y0013433D01*
X0009602Y0013609D01*
X0009525Y0013787D01*
X0009454Y0013966D01*
X0009386Y0014147D01*
X0009323Y0014330D01*
X0009265Y0014514D01*
X0009211Y0014700D01*
X0009162Y0014887D01*
X0009117Y0015075D01*
X0009077Y0015264D01*
X0009042Y0015454D01*
X0009011Y0015645D01*
X0008985Y0015836D01*
X0008964Y0016028D01*
X0008947Y0016221D01*
X0008935Y0016414D01*
X0008928Y0016607D01*
X0008926Y0016800D01*
X0008237Y0098906D02*
X0025363Y0098906D01*
X0025363Y0134694D01*
X0008237Y0134694D01*
X0008237Y0098906D01*
X0008926Y0146800D02*
X0008928Y0146993D01*
X0008935Y0147186D01*
X0008947Y0147379D01*
X0008964Y0147572D01*
X0008985Y0147764D01*
X0009011Y0147955D01*
X0009042Y0148146D01*
X0009077Y0148336D01*
X0009117Y0148525D01*
X0009162Y0148713D01*
X0009211Y0148900D01*
X0009265Y0149086D01*
X0009323Y0149270D01*
X0009386Y0149453D01*
X0009454Y0149634D01*
X0009525Y0149813D01*
X0009602Y0149991D01*
X0009682Y0150167D01*
X0009767Y0150340D01*
X0009856Y0150512D01*
X0009949Y0150681D01*
X0010046Y0150848D01*
X0010148Y0151013D01*
X0010253Y0151175D01*
X0010362Y0151334D01*
X0010476Y0151491D01*
X0010593Y0151644D01*
X0010713Y0151795D01*
X0010838Y0151943D01*
X0010966Y0152088D01*
X0011097Y0152229D01*
X0011232Y0152368D01*
X0011371Y0152503D01*
X0011512Y0152634D01*
X0011657Y0152762D01*
X0011805Y0152887D01*
X0011956Y0153007D01*
X0012109Y0153124D01*
X0012266Y0153238D01*
X0012425Y0153347D01*
X0012587Y0153452D01*
X0012752Y0153554D01*
X0012919Y0153651D01*
X0013088Y0153744D01*
X0013260Y0153833D01*
X0013433Y0153918D01*
X0013609Y0153998D01*
X0013787Y0154075D01*
X0013966Y0154146D01*
X0014147Y0154214D01*
X0014330Y0154277D01*
X0014514Y0154335D01*
X0014700Y0154389D01*
X0014887Y0154438D01*
X0015075Y0154483D01*
X0015264Y0154523D01*
X0015454Y0154558D01*
X0015645Y0154589D01*
X0015836Y0154615D01*
X0016028Y0154636D01*
X0016221Y0154653D01*
X0016414Y0154665D01*
X0016607Y0154672D01*
X0016800Y0154674D01*
X0016993Y0154672D01*
X0017186Y0154665D01*
X0017379Y0154653D01*
X0017572Y0154636D01*
X0017764Y0154615D01*
X0017955Y0154589D01*
X0018146Y0154558D01*
X0018336Y0154523D01*
X0018525Y0154483D01*
X0018713Y0154438D01*
X0018900Y0154389D01*
X0019086Y0154335D01*
X0019270Y0154277D01*
X0019453Y0154214D01*
X0019634Y0154146D01*
X0019813Y0154075D01*
X0019991Y0153998D01*
X0020167Y0153918D01*
X0020340Y0153833D01*
X0020512Y0153744D01*
X0020681Y0153651D01*
X0020848Y0153554D01*
X0021013Y0153452D01*
X0021175Y0153347D01*
X0021334Y0153238D01*
X0021491Y0153124D01*
X0021644Y0153007D01*
X0021795Y0152887D01*
X0021943Y0152762D01*
X0022088Y0152634D01*
X0022229Y0152503D01*
X0022368Y0152368D01*
X0022503Y0152229D01*
X0022634Y0152088D01*
X0022762Y0151943D01*
X0022887Y0151795D01*
X0023007Y0151644D01*
X0023124Y0151491D01*
X0023238Y0151334D01*
X0023347Y0151175D01*
X0023452Y0151013D01*
X0023554Y0150848D01*
X0023651Y0150681D01*
X0023744Y0150512D01*
X0023833Y0150340D01*
X0023918Y0150167D01*
X0023998Y0149991D01*
X0024075Y0149813D01*
X0024146Y0149634D01*
X0024214Y0149453D01*
X0024277Y0149270D01*
X0024335Y0149086D01*
X0024389Y0148900D01*
X0024438Y0148713D01*
X0024483Y0148525D01*
X0024523Y0148336D01*
X0024558Y0148146D01*
X0024589Y0147955D01*
X0024615Y0147764D01*
X0024636Y0147572D01*
X0024653Y0147379D01*
X0024665Y0147186D01*
X0024672Y0146993D01*
X0024674Y0146800D01*
X0024672Y0146607D01*
X0024665Y0146414D01*
X0024653Y0146221D01*
X0024636Y0146028D01*
X0024615Y0145836D01*
X0024589Y0145645D01*
X0024558Y0145454D01*
X0024523Y0145264D01*
X0024483Y0145075D01*
X0024438Y0144887D01*
X0024389Y0144700D01*
X0024335Y0144514D01*
X0024277Y0144330D01*
X0024214Y0144147D01*
X0024146Y0143966D01*
X0024075Y0143787D01*
X0023998Y0143609D01*
X0023918Y0143433D01*
X0023833Y0143260D01*
X0023744Y0143088D01*
X0023651Y0142919D01*
X0023554Y0142752D01*
X0023452Y0142587D01*
X0023347Y0142425D01*
X0023238Y0142266D01*
X0023124Y0142109D01*
X0023007Y0141956D01*
X0022887Y0141805D01*
X0022762Y0141657D01*
X0022634Y0141512D01*
X0022503Y0141371D01*
X0022368Y0141232D01*
X0022229Y0141097D01*
X0022088Y0140966D01*
X0021943Y0140838D01*
X0021795Y0140713D01*
X0021644Y0140593D01*
X0021491Y0140476D01*
X0021334Y0140362D01*
X0021175Y0140253D01*
X0021013Y0140148D01*
X0020848Y0140046D01*
X0020681Y0139949D01*
X0020512Y0139856D01*
X0020340Y0139767D01*
X0020167Y0139682D01*
X0019991Y0139602D01*
X0019813Y0139525D01*
X0019634Y0139454D01*
X0019453Y0139386D01*
X0019270Y0139323D01*
X0019086Y0139265D01*
X0018900Y0139211D01*
X0018713Y0139162D01*
X0018525Y0139117D01*
X0018336Y0139077D01*
X0018146Y0139042D01*
X0017955Y0139011D01*
X0017764Y0138985D01*
X0017572Y0138964D01*
X0017379Y0138947D01*
X0017186Y0138935D01*
X0016993Y0138928D01*
X0016800Y0138926D01*
X0016607Y0138928D01*
X0016414Y0138935D01*
X0016221Y0138947D01*
X0016028Y0138964D01*
X0015836Y0138985D01*
X0015645Y0139011D01*
X0015454Y0139042D01*
X0015264Y0139077D01*
X0015075Y0139117D01*
X0014887Y0139162D01*
X0014700Y0139211D01*
X0014514Y0139265D01*
X0014330Y0139323D01*
X0014147Y0139386D01*
X0013966Y0139454D01*
X0013787Y0139525D01*
X0013609Y0139602D01*
X0013433Y0139682D01*
X0013260Y0139767D01*
X0013088Y0139856D01*
X0012919Y0139949D01*
X0012752Y0140046D01*
X0012587Y0140148D01*
X0012425Y0140253D01*
X0012266Y0140362D01*
X0012109Y0140476D01*
X0011956Y0140593D01*
X0011805Y0140713D01*
X0011657Y0140838D01*
X0011512Y0140966D01*
X0011371Y0141097D01*
X0011232Y0141232D01*
X0011097Y0141371D01*
X0010966Y0141512D01*
X0010838Y0141657D01*
X0010713Y0141805D01*
X0010593Y0141956D01*
X0010476Y0142109D01*
X0010362Y0142266D01*
X0010253Y0142425D01*
X0010148Y0142587D01*
X0010046Y0142752D01*
X0009949Y0142919D01*
X0009856Y0143088D01*
X0009767Y0143260D01*
X0009682Y0143433D01*
X0009602Y0143609D01*
X0009525Y0143787D01*
X0009454Y0143966D01*
X0009386Y0144147D01*
X0009323Y0144330D01*
X0009265Y0144514D01*
X0009211Y0144700D01*
X0009162Y0144887D01*
X0009117Y0145075D01*
X0009077Y0145264D01*
X0009042Y0145454D01*
X0009011Y0145645D01*
X0008985Y0145836D01*
X0008964Y0146028D01*
X0008947Y0146221D01*
X0008935Y0146414D01*
X0008928Y0146607D01*
X0008926Y0146800D01*
X0184800Y0134550D02*
X0184800Y0126621D01*
X0189800Y0130550D02*
X0189802Y0130722D01*
X0189808Y0130893D01*
X0189819Y0131065D01*
X0189834Y0131236D01*
X0189853Y0131407D01*
X0189876Y0131577D01*
X0189903Y0131747D01*
X0189935Y0131916D01*
X0189970Y0132084D01*
X0190010Y0132251D01*
X0190054Y0132417D01*
X0190101Y0132582D01*
X0190153Y0132746D01*
X0190209Y0132908D01*
X0190269Y0133069D01*
X0190333Y0133229D01*
X0190401Y0133387D01*
X0190472Y0133543D01*
X0190547Y0133697D01*
X0190627Y0133850D01*
X0190709Y0134000D01*
X0190796Y0134149D01*
X0190886Y0134295D01*
X0190980Y0134439D01*
X0191077Y0134581D01*
X0191178Y0134720D01*
X0191282Y0134857D01*
X0191389Y0134991D01*
X0191500Y0135122D01*
X0191613Y0135251D01*
X0191730Y0135377D01*
X0191850Y0135500D01*
X0191973Y0135620D01*
X0192099Y0135737D01*
X0192228Y0135850D01*
X0192359Y0135961D01*
X0192493Y0136068D01*
X0192630Y0136172D01*
X0192769Y0136273D01*
X0192911Y0136370D01*
X0193055Y0136464D01*
X0193201Y0136554D01*
X0193350Y0136641D01*
X0193500Y0136723D01*
X0193653Y0136803D01*
X0193807Y0136878D01*
X0193963Y0136949D01*
X0194121Y0137017D01*
X0194281Y0137081D01*
X0194442Y0137141D01*
X0194604Y0137197D01*
X0194768Y0137249D01*
X0194933Y0137296D01*
X0195099Y0137340D01*
X0195266Y0137380D01*
X0195434Y0137415D01*
X0195603Y0137447D01*
X0195773Y0137474D01*
X0195943Y0137497D01*
X0196114Y0137516D01*
X0196285Y0137531D01*
X0196457Y0137542D01*
X0196628Y0137548D01*
X0196800Y0137550D01*
X0196972Y0137548D01*
X0197143Y0137542D01*
X0197315Y0137531D01*
X0197486Y0137516D01*
X0197657Y0137497D01*
X0197827Y0137474D01*
X0197997Y0137447D01*
X0198166Y0137415D01*
X0198334Y0137380D01*
X0198501Y0137340D01*
X0198667Y0137296D01*
X0198832Y0137249D01*
X0198996Y0137197D01*
X0199158Y0137141D01*
X0199319Y0137081D01*
X0199479Y0137017D01*
X0199637Y0136949D01*
X0199793Y0136878D01*
X0199947Y0136803D01*
X0200100Y0136723D01*
X0200250Y0136641D01*
X0200399Y0136554D01*
X0200545Y0136464D01*
X0200689Y0136370D01*
X0200831Y0136273D01*
X0200970Y0136172D01*
X0201107Y0136068D01*
X0201241Y0135961D01*
X0201372Y0135850D01*
X0201501Y0135737D01*
X0201627Y0135620D01*
X0201750Y0135500D01*
X0201870Y0135377D01*
X0201987Y0135251D01*
X0202100Y0135122D01*
X0202211Y0134991D01*
X0202318Y0134857D01*
X0202422Y0134720D01*
X0202523Y0134581D01*
X0202620Y0134439D01*
X0202714Y0134295D01*
X0202804Y0134149D01*
X0202891Y0134000D01*
X0202973Y0133850D01*
X0203053Y0133697D01*
X0203128Y0133543D01*
X0203199Y0133387D01*
X0203267Y0133229D01*
X0203331Y0133069D01*
X0203391Y0132908D01*
X0203447Y0132746D01*
X0203499Y0132582D01*
X0203546Y0132417D01*
X0203590Y0132251D01*
X0203630Y0132084D01*
X0203665Y0131916D01*
X0203697Y0131747D01*
X0203724Y0131577D01*
X0203747Y0131407D01*
X0203766Y0131236D01*
X0203781Y0131065D01*
X0203792Y0130893D01*
X0203798Y0130722D01*
X0203800Y0130550D01*
X0203798Y0130378D01*
X0203792Y0130207D01*
X0203781Y0130035D01*
X0203766Y0129864D01*
X0203747Y0129693D01*
X0203724Y0129523D01*
X0203697Y0129353D01*
X0203665Y0129184D01*
X0203630Y0129016D01*
X0203590Y0128849D01*
X0203546Y0128683D01*
X0203499Y0128518D01*
X0203447Y0128354D01*
X0203391Y0128192D01*
X0203331Y0128031D01*
X0203267Y0127871D01*
X0203199Y0127713D01*
X0203128Y0127557D01*
X0203053Y0127403D01*
X0202973Y0127250D01*
X0202891Y0127100D01*
X0202804Y0126951D01*
X0202714Y0126805D01*
X0202620Y0126661D01*
X0202523Y0126519D01*
X0202422Y0126380D01*
X0202318Y0126243D01*
X0202211Y0126109D01*
X0202100Y0125978D01*
X0201987Y0125849D01*
X0201870Y0125723D01*
X0201750Y0125600D01*
X0201627Y0125480D01*
X0201501Y0125363D01*
X0201372Y0125250D01*
X0201241Y0125139D01*
X0201107Y0125032D01*
X0200970Y0124928D01*
X0200831Y0124827D01*
X0200689Y0124730D01*
X0200545Y0124636D01*
X0200399Y0124546D01*
X0200250Y0124459D01*
X0200100Y0124377D01*
X0199947Y0124297D01*
X0199793Y0124222D01*
X0199637Y0124151D01*
X0199479Y0124083D01*
X0199319Y0124019D01*
X0199158Y0123959D01*
X0198996Y0123903D01*
X0198832Y0123851D01*
X0198667Y0123804D01*
X0198501Y0123760D01*
X0198334Y0123720D01*
X0198166Y0123685D01*
X0197997Y0123653D01*
X0197827Y0123626D01*
X0197657Y0123603D01*
X0197486Y0123584D01*
X0197315Y0123569D01*
X0197143Y0123558D01*
X0196972Y0123552D01*
X0196800Y0123550D01*
X0196628Y0123552D01*
X0196457Y0123558D01*
X0196285Y0123569D01*
X0196114Y0123584D01*
X0195943Y0123603D01*
X0195773Y0123626D01*
X0195603Y0123653D01*
X0195434Y0123685D01*
X0195266Y0123720D01*
X0195099Y0123760D01*
X0194933Y0123804D01*
X0194768Y0123851D01*
X0194604Y0123903D01*
X0194442Y0123959D01*
X0194281Y0124019D01*
X0194121Y0124083D01*
X0193963Y0124151D01*
X0193807Y0124222D01*
X0193653Y0124297D01*
X0193500Y0124377D01*
X0193350Y0124459D01*
X0193201Y0124546D01*
X0193055Y0124636D01*
X0192911Y0124730D01*
X0192769Y0124827D01*
X0192630Y0124928D01*
X0192493Y0125032D01*
X0192359Y0125139D01*
X0192228Y0125250D01*
X0192099Y0125363D01*
X0191973Y0125480D01*
X0191850Y0125600D01*
X0191730Y0125723D01*
X0191613Y0125849D01*
X0191500Y0125978D01*
X0191389Y0126109D01*
X0191282Y0126243D01*
X0191178Y0126380D01*
X0191077Y0126519D01*
X0190980Y0126661D01*
X0190886Y0126805D01*
X0190796Y0126951D01*
X0190709Y0127100D01*
X0190627Y0127250D01*
X0190547Y0127403D01*
X0190472Y0127557D01*
X0190401Y0127713D01*
X0190333Y0127871D01*
X0190269Y0128031D01*
X0190209Y0128192D01*
X0190153Y0128354D01*
X0190101Y0128518D01*
X0190054Y0128683D01*
X0190010Y0128849D01*
X0189970Y0129016D01*
X0189935Y0129184D01*
X0189903Y0129353D01*
X0189876Y0129523D01*
X0189853Y0129693D01*
X0189834Y0129864D01*
X0189819Y0130035D01*
X0189808Y0130207D01*
X0189802Y0130378D01*
X0189800Y0130550D01*
X0208800Y0134550D02*
X0208800Y0126503D01*
X0205300Y0118550D02*
X0188300Y0118550D01*
X0193977Y0114337D02*
X0196046Y0116405D01*
X0196046Y0110200D01*
X0198114Y0110200D02*
X0193977Y0110200D01*
X0188300Y0107550D02*
X0205300Y0107550D01*
X0208800Y0099550D02*
X0208800Y0091503D01*
X0205300Y0083550D02*
X0188300Y0083550D01*
X0193977Y0078303D02*
X0197080Y0081405D01*
X0197080Y0075200D01*
X0198114Y0078303D02*
X0193977Y0078303D01*
X0188300Y0072550D02*
X0205300Y0072550D01*
X0208800Y0064550D02*
X0208800Y0056503D01*
X0189800Y0060550D02*
X0189802Y0060722D01*
X0189808Y0060893D01*
X0189819Y0061065D01*
X0189834Y0061236D01*
X0189853Y0061407D01*
X0189876Y0061577D01*
X0189903Y0061747D01*
X0189935Y0061916D01*
X0189970Y0062084D01*
X0190010Y0062251D01*
X0190054Y0062417D01*
X0190101Y0062582D01*
X0190153Y0062746D01*
X0190209Y0062908D01*
X0190269Y0063069D01*
X0190333Y0063229D01*
X0190401Y0063387D01*
X0190472Y0063543D01*
X0190547Y0063697D01*
X0190627Y0063850D01*
X0190709Y0064000D01*
X0190796Y0064149D01*
X0190886Y0064295D01*
X0190980Y0064439D01*
X0191077Y0064581D01*
X0191178Y0064720D01*
X0191282Y0064857D01*
X0191389Y0064991D01*
X0191500Y0065122D01*
X0191613Y0065251D01*
X0191730Y0065377D01*
X0191850Y0065500D01*
X0191973Y0065620D01*
X0192099Y0065737D01*
X0192228Y0065850D01*
X0192359Y0065961D01*
X0192493Y0066068D01*
X0192630Y0066172D01*
X0192769Y0066273D01*
X0192911Y0066370D01*
X0193055Y0066464D01*
X0193201Y0066554D01*
X0193350Y0066641D01*
X0193500Y0066723D01*
X0193653Y0066803D01*
X0193807Y0066878D01*
X0193963Y0066949D01*
X0194121Y0067017D01*
X0194281Y0067081D01*
X0194442Y0067141D01*
X0194604Y0067197D01*
X0194768Y0067249D01*
X0194933Y0067296D01*
X0195099Y0067340D01*
X0195266Y0067380D01*
X0195434Y0067415D01*
X0195603Y0067447D01*
X0195773Y0067474D01*
X0195943Y0067497D01*
X0196114Y0067516D01*
X0196285Y0067531D01*
X0196457Y0067542D01*
X0196628Y0067548D01*
X0196800Y0067550D01*
X0196972Y0067548D01*
X0197143Y0067542D01*
X0197315Y0067531D01*
X0197486Y0067516D01*
X0197657Y0067497D01*
X0197827Y0067474D01*
X0197997Y0067447D01*
X0198166Y0067415D01*
X0198334Y0067380D01*
X0198501Y0067340D01*
X0198667Y0067296D01*
X0198832Y0067249D01*
X0198996Y0067197D01*
X0199158Y0067141D01*
X0199319Y0067081D01*
X0199479Y0067017D01*
X0199637Y0066949D01*
X0199793Y0066878D01*
X0199947Y0066803D01*
X0200100Y0066723D01*
X0200250Y0066641D01*
X0200399Y0066554D01*
X0200545Y0066464D01*
X0200689Y0066370D01*
X0200831Y0066273D01*
X0200970Y0066172D01*
X0201107Y0066068D01*
X0201241Y0065961D01*
X0201372Y0065850D01*
X0201501Y0065737D01*
X0201627Y0065620D01*
X0201750Y0065500D01*
X0201870Y0065377D01*
X0201987Y0065251D01*
X0202100Y0065122D01*
X0202211Y0064991D01*
X0202318Y0064857D01*
X0202422Y0064720D01*
X0202523Y0064581D01*
X0202620Y0064439D01*
X0202714Y0064295D01*
X0202804Y0064149D01*
X0202891Y0064000D01*
X0202973Y0063850D01*
X0203053Y0063697D01*
X0203128Y0063543D01*
X0203199Y0063387D01*
X0203267Y0063229D01*
X0203331Y0063069D01*
X0203391Y0062908D01*
X0203447Y0062746D01*
X0203499Y0062582D01*
X0203546Y0062417D01*
X0203590Y0062251D01*
X0203630Y0062084D01*
X0203665Y0061916D01*
X0203697Y0061747D01*
X0203724Y0061577D01*
X0203747Y0061407D01*
X0203766Y0061236D01*
X0203781Y0061065D01*
X0203792Y0060893D01*
X0203798Y0060722D01*
X0203800Y0060550D01*
X0203798Y0060378D01*
X0203792Y0060207D01*
X0203781Y0060035D01*
X0203766Y0059864D01*
X0203747Y0059693D01*
X0203724Y0059523D01*
X0203697Y0059353D01*
X0203665Y0059184D01*
X0203630Y0059016D01*
X0203590Y0058849D01*
X0203546Y0058683D01*
X0203499Y0058518D01*
X0203447Y0058354D01*
X0203391Y0058192D01*
X0203331Y0058031D01*
X0203267Y0057871D01*
X0203199Y0057713D01*
X0203128Y0057557D01*
X0203053Y0057403D01*
X0202973Y0057250D01*
X0202891Y0057100D01*
X0202804Y0056951D01*
X0202714Y0056805D01*
X0202620Y0056661D01*
X0202523Y0056519D01*
X0202422Y0056380D01*
X0202318Y0056243D01*
X0202211Y0056109D01*
X0202100Y0055978D01*
X0201987Y0055849D01*
X0201870Y0055723D01*
X0201750Y0055600D01*
X0201627Y0055480D01*
X0201501Y0055363D01*
X0201372Y0055250D01*
X0201241Y0055139D01*
X0201107Y0055032D01*
X0200970Y0054928D01*
X0200831Y0054827D01*
X0200689Y0054730D01*
X0200545Y0054636D01*
X0200399Y0054546D01*
X0200250Y0054459D01*
X0200100Y0054377D01*
X0199947Y0054297D01*
X0199793Y0054222D01*
X0199637Y0054151D01*
X0199479Y0054083D01*
X0199319Y0054019D01*
X0199158Y0053959D01*
X0198996Y0053903D01*
X0198832Y0053851D01*
X0198667Y0053804D01*
X0198501Y0053760D01*
X0198334Y0053720D01*
X0198166Y0053685D01*
X0197997Y0053653D01*
X0197827Y0053626D01*
X0197657Y0053603D01*
X0197486Y0053584D01*
X0197315Y0053569D01*
X0197143Y0053558D01*
X0196972Y0053552D01*
X0196800Y0053550D01*
X0196628Y0053552D01*
X0196457Y0053558D01*
X0196285Y0053569D01*
X0196114Y0053584D01*
X0195943Y0053603D01*
X0195773Y0053626D01*
X0195603Y0053653D01*
X0195434Y0053685D01*
X0195266Y0053720D01*
X0195099Y0053760D01*
X0194933Y0053804D01*
X0194768Y0053851D01*
X0194604Y0053903D01*
X0194442Y0053959D01*
X0194281Y0054019D01*
X0194121Y0054083D01*
X0193963Y0054151D01*
X0193807Y0054222D01*
X0193653Y0054297D01*
X0193500Y0054377D01*
X0193350Y0054459D01*
X0193201Y0054546D01*
X0193055Y0054636D01*
X0192911Y0054730D01*
X0192769Y0054827D01*
X0192630Y0054928D01*
X0192493Y0055032D01*
X0192359Y0055139D01*
X0192228Y0055250D01*
X0192099Y0055363D01*
X0191973Y0055480D01*
X0191850Y0055600D01*
X0191730Y0055723D01*
X0191613Y0055849D01*
X0191500Y0055978D01*
X0191389Y0056109D01*
X0191282Y0056243D01*
X0191178Y0056380D01*
X0191077Y0056519D01*
X0190980Y0056661D01*
X0190886Y0056805D01*
X0190796Y0056951D01*
X0190709Y0057100D01*
X0190627Y0057250D01*
X0190547Y0057403D01*
X0190472Y0057557D01*
X0190401Y0057713D01*
X0190333Y0057871D01*
X0190269Y0058031D01*
X0190209Y0058192D01*
X0190153Y0058354D01*
X0190101Y0058518D01*
X0190054Y0058683D01*
X0190010Y0058849D01*
X0189970Y0059016D01*
X0189935Y0059184D01*
X0189903Y0059353D01*
X0189876Y0059523D01*
X0189853Y0059693D01*
X0189834Y0059864D01*
X0189819Y0060035D01*
X0189808Y0060207D01*
X0189802Y0060378D01*
X0189800Y0060550D01*
X0184800Y0056621D02*
X0184800Y0064550D01*
X0188300Y0048550D02*
X0205300Y0048550D01*
X0198114Y0046405D02*
X0198114Y0045371D01*
X0193977Y0041234D01*
X0193977Y0040200D01*
X0188300Y0037550D02*
X0205300Y0037550D01*
X0208800Y0029550D02*
X0208800Y0021503D01*
X0189800Y0025550D02*
X0189802Y0025722D01*
X0189808Y0025893D01*
X0189819Y0026065D01*
X0189834Y0026236D01*
X0189853Y0026407D01*
X0189876Y0026577D01*
X0189903Y0026747D01*
X0189935Y0026916D01*
X0189970Y0027084D01*
X0190010Y0027251D01*
X0190054Y0027417D01*
X0190101Y0027582D01*
X0190153Y0027746D01*
X0190209Y0027908D01*
X0190269Y0028069D01*
X0190333Y0028229D01*
X0190401Y0028387D01*
X0190472Y0028543D01*
X0190547Y0028697D01*
X0190627Y0028850D01*
X0190709Y0029000D01*
X0190796Y0029149D01*
X0190886Y0029295D01*
X0190980Y0029439D01*
X0191077Y0029581D01*
X0191178Y0029720D01*
X0191282Y0029857D01*
X0191389Y0029991D01*
X0191500Y0030122D01*
X0191613Y0030251D01*
X0191730Y0030377D01*
X0191850Y0030500D01*
X0191973Y0030620D01*
X0192099Y0030737D01*
X0192228Y0030850D01*
X0192359Y0030961D01*
X0192493Y0031068D01*
X0192630Y0031172D01*
X0192769Y0031273D01*
X0192911Y0031370D01*
X0193055Y0031464D01*
X0193201Y0031554D01*
X0193350Y0031641D01*
X0193500Y0031723D01*
X0193653Y0031803D01*
X0193807Y0031878D01*
X0193963Y0031949D01*
X0194121Y0032017D01*
X0194281Y0032081D01*
X0194442Y0032141D01*
X0194604Y0032197D01*
X0194768Y0032249D01*
X0194933Y0032296D01*
X0195099Y0032340D01*
X0195266Y0032380D01*
X0195434Y0032415D01*
X0195603Y0032447D01*
X0195773Y0032474D01*
X0195943Y0032497D01*
X0196114Y0032516D01*
X0196285Y0032531D01*
X0196457Y0032542D01*
X0196628Y0032548D01*
X0196800Y0032550D01*
X0196972Y0032548D01*
X0197143Y0032542D01*
X0197315Y0032531D01*
X0197486Y0032516D01*
X0197657Y0032497D01*
X0197827Y0032474D01*
X0197997Y0032447D01*
X0198166Y0032415D01*
X0198334Y0032380D01*
X0198501Y0032340D01*
X0198667Y0032296D01*
X0198832Y0032249D01*
X0198996Y0032197D01*
X0199158Y0032141D01*
X0199319Y0032081D01*
X0199479Y0032017D01*
X0199637Y0031949D01*
X0199793Y0031878D01*
X0199947Y0031803D01*
X0200100Y0031723D01*
X0200250Y0031641D01*
X0200399Y0031554D01*
X0200545Y0031464D01*
X0200689Y0031370D01*
X0200831Y0031273D01*
X0200970Y0031172D01*
X0201107Y0031068D01*
X0201241Y0030961D01*
X0201372Y0030850D01*
X0201501Y0030737D01*
X0201627Y0030620D01*
X0201750Y0030500D01*
X0201870Y0030377D01*
X0201987Y0030251D01*
X0202100Y0030122D01*
X0202211Y0029991D01*
X0202318Y0029857D01*
X0202422Y0029720D01*
X0202523Y0029581D01*
X0202620Y0029439D01*
X0202714Y0029295D01*
X0202804Y0029149D01*
X0202891Y0029000D01*
X0202973Y0028850D01*
X0203053Y0028697D01*
X0203128Y0028543D01*
X0203199Y0028387D01*
X0203267Y0028229D01*
X0203331Y0028069D01*
X0203391Y0027908D01*
X0203447Y0027746D01*
X0203499Y0027582D01*
X0203546Y0027417D01*
X0203590Y0027251D01*
X0203630Y0027084D01*
X0203665Y0026916D01*
X0203697Y0026747D01*
X0203724Y0026577D01*
X0203747Y0026407D01*
X0203766Y0026236D01*
X0203781Y0026065D01*
X0203792Y0025893D01*
X0203798Y0025722D01*
X0203800Y0025550D01*
X0203798Y0025378D01*
X0203792Y0025207D01*
X0203781Y0025035D01*
X0203766Y0024864D01*
X0203747Y0024693D01*
X0203724Y0024523D01*
X0203697Y0024353D01*
X0203665Y0024184D01*
X0203630Y0024016D01*
X0203590Y0023849D01*
X0203546Y0023683D01*
X0203499Y0023518D01*
X0203447Y0023354D01*
X0203391Y0023192D01*
X0203331Y0023031D01*
X0203267Y0022871D01*
X0203199Y0022713D01*
X0203128Y0022557D01*
X0203053Y0022403D01*
X0202973Y0022250D01*
X0202891Y0022100D01*
X0202804Y0021951D01*
X0202714Y0021805D01*
X0202620Y0021661D01*
X0202523Y0021519D01*
X0202422Y0021380D01*
X0202318Y0021243D01*
X0202211Y0021109D01*
X0202100Y0020978D01*
X0201987Y0020849D01*
X0201870Y0020723D01*
X0201750Y0020600D01*
X0201627Y0020480D01*
X0201501Y0020363D01*
X0201372Y0020250D01*
X0201241Y0020139D01*
X0201107Y0020032D01*
X0200970Y0019928D01*
X0200831Y0019827D01*
X0200689Y0019730D01*
X0200545Y0019636D01*
X0200399Y0019546D01*
X0200250Y0019459D01*
X0200100Y0019377D01*
X0199947Y0019297D01*
X0199793Y0019222D01*
X0199637Y0019151D01*
X0199479Y0019083D01*
X0199319Y0019019D01*
X0199158Y0018959D01*
X0198996Y0018903D01*
X0198832Y0018851D01*
X0198667Y0018804D01*
X0198501Y0018760D01*
X0198334Y0018720D01*
X0198166Y0018685D01*
X0197997Y0018653D01*
X0197827Y0018626D01*
X0197657Y0018603D01*
X0197486Y0018584D01*
X0197315Y0018569D01*
X0197143Y0018558D01*
X0196972Y0018552D01*
X0196800Y0018550D01*
X0196628Y0018552D01*
X0196457Y0018558D01*
X0196285Y0018569D01*
X0196114Y0018584D01*
X0195943Y0018603D01*
X0195773Y0018626D01*
X0195603Y0018653D01*
X0195434Y0018685D01*
X0195266Y0018720D01*
X0195099Y0018760D01*
X0194933Y0018804D01*
X0194768Y0018851D01*
X0194604Y0018903D01*
X0194442Y0018959D01*
X0194281Y0019019D01*
X0194121Y0019083D01*
X0193963Y0019151D01*
X0193807Y0019222D01*
X0193653Y0019297D01*
X0193500Y0019377D01*
X0193350Y0019459D01*
X0193201Y0019546D01*
X0193055Y0019636D01*
X0192911Y0019730D01*
X0192769Y0019827D01*
X0192630Y0019928D01*
X0192493Y0020032D01*
X0192359Y0020139D01*
X0192228Y0020250D01*
X0192099Y0020363D01*
X0191973Y0020480D01*
X0191850Y0020600D01*
X0191730Y0020723D01*
X0191613Y0020849D01*
X0191500Y0020978D01*
X0191389Y0021109D01*
X0191282Y0021243D01*
X0191178Y0021380D01*
X0191077Y0021519D01*
X0190980Y0021661D01*
X0190886Y0021805D01*
X0190796Y0021951D01*
X0190709Y0022100D01*
X0190627Y0022250D01*
X0190547Y0022403D01*
X0190472Y0022557D01*
X0190401Y0022713D01*
X0190333Y0022871D01*
X0190269Y0023031D01*
X0190209Y0023192D01*
X0190153Y0023354D01*
X0190101Y0023518D01*
X0190054Y0023683D01*
X0190010Y0023849D01*
X0189970Y0024016D01*
X0189935Y0024184D01*
X0189903Y0024353D01*
X0189876Y0024523D01*
X0189853Y0024693D01*
X0189834Y0024864D01*
X0189819Y0025035D01*
X0189808Y0025207D01*
X0189802Y0025378D01*
X0189800Y0025550D01*
X0184800Y0021621D02*
X0184800Y0029550D01*
X0188300Y0013550D02*
X0205300Y0013550D01*
X0198114Y0010371D02*
X0193977Y0006234D01*
X0196046Y0006234D02*
X0196046Y0010371D01*
X0193977Y0010371D02*
X0198114Y0006234D01*
X0198114Y0008303D02*
X0193977Y0008303D01*
X0224800Y0021621D02*
X0224800Y0029550D01*
X0228300Y0037550D02*
X0245300Y0037550D01*
X0238114Y0041234D02*
X0237080Y0040200D01*
X0235011Y0040200D01*
X0233977Y0041234D01*
X0233977Y0042268D01*
X0235011Y0043303D01*
X0237080Y0043303D01*
X0238114Y0042268D01*
X0238114Y0041234D01*
X0237080Y0043303D02*
X0238114Y0044337D01*
X0238114Y0045371D01*
X0237080Y0046405D01*
X0235011Y0046405D01*
X0233977Y0045371D01*
X0233977Y0044337D01*
X0235011Y0043303D01*
X0228300Y0048550D02*
X0245300Y0048550D01*
X0248800Y0056503D02*
X0248800Y0064550D01*
X0229800Y0060550D02*
X0229802Y0060722D01*
X0229808Y0060893D01*
X0229819Y0061065D01*
X0229834Y0061236D01*
X0229853Y0061407D01*
X0229876Y0061577D01*
X0229903Y0061747D01*
X0229935Y0061916D01*
X0229970Y0062084D01*
X0230010Y0062251D01*
X0230054Y0062417D01*
X0230101Y0062582D01*
X0230153Y0062746D01*
X0230209Y0062908D01*
X0230269Y0063069D01*
X0230333Y0063229D01*
X0230401Y0063387D01*
X0230472Y0063543D01*
X0230547Y0063697D01*
X0230627Y0063850D01*
X0230709Y0064000D01*
X0230796Y0064149D01*
X0230886Y0064295D01*
X0230980Y0064439D01*
X0231077Y0064581D01*
X0231178Y0064720D01*
X0231282Y0064857D01*
X0231389Y0064991D01*
X0231500Y0065122D01*
X0231613Y0065251D01*
X0231730Y0065377D01*
X0231850Y0065500D01*
X0231973Y0065620D01*
X0232099Y0065737D01*
X0232228Y0065850D01*
X0232359Y0065961D01*
X0232493Y0066068D01*
X0232630Y0066172D01*
X0232769Y0066273D01*
X0232911Y0066370D01*
X0233055Y0066464D01*
X0233201Y0066554D01*
X0233350Y0066641D01*
X0233500Y0066723D01*
X0233653Y0066803D01*
X0233807Y0066878D01*
X0233963Y0066949D01*
X0234121Y0067017D01*
X0234281Y0067081D01*
X0234442Y0067141D01*
X0234604Y0067197D01*
X0234768Y0067249D01*
X0234933Y0067296D01*
X0235099Y0067340D01*
X0235266Y0067380D01*
X0235434Y0067415D01*
X0235603Y0067447D01*
X0235773Y0067474D01*
X0235943Y0067497D01*
X0236114Y0067516D01*
X0236285Y0067531D01*
X0236457Y0067542D01*
X0236628Y0067548D01*
X0236800Y0067550D01*
X0236972Y0067548D01*
X0237143Y0067542D01*
X0237315Y0067531D01*
X0237486Y0067516D01*
X0237657Y0067497D01*
X0237827Y0067474D01*
X0237997Y0067447D01*
X0238166Y0067415D01*
X0238334Y0067380D01*
X0238501Y0067340D01*
X0238667Y0067296D01*
X0238832Y0067249D01*
X0238996Y0067197D01*
X0239158Y0067141D01*
X0239319Y0067081D01*
X0239479Y0067017D01*
X0239637Y0066949D01*
X0239793Y0066878D01*
X0239947Y0066803D01*
X0240100Y0066723D01*
X0240250Y0066641D01*
X0240399Y0066554D01*
X0240545Y0066464D01*
X0240689Y0066370D01*
X0240831Y0066273D01*
X0240970Y0066172D01*
X0241107Y0066068D01*
X0241241Y0065961D01*
X0241372Y0065850D01*
X0241501Y0065737D01*
X0241627Y0065620D01*
X0241750Y0065500D01*
X0241870Y0065377D01*
X0241987Y0065251D01*
X0242100Y0065122D01*
X0242211Y0064991D01*
X0242318Y0064857D01*
X0242422Y0064720D01*
X0242523Y0064581D01*
X0242620Y0064439D01*
X0242714Y0064295D01*
X0242804Y0064149D01*
X0242891Y0064000D01*
X0242973Y0063850D01*
X0243053Y0063697D01*
X0243128Y0063543D01*
X0243199Y0063387D01*
X0243267Y0063229D01*
X0243331Y0063069D01*
X0243391Y0062908D01*
X0243447Y0062746D01*
X0243499Y0062582D01*
X0243546Y0062417D01*
X0243590Y0062251D01*
X0243630Y0062084D01*
X0243665Y0061916D01*
X0243697Y0061747D01*
X0243724Y0061577D01*
X0243747Y0061407D01*
X0243766Y0061236D01*
X0243781Y0061065D01*
X0243792Y0060893D01*
X0243798Y0060722D01*
X0243800Y0060550D01*
X0243798Y0060378D01*
X0243792Y0060207D01*
X0243781Y0060035D01*
X0243766Y0059864D01*
X0243747Y0059693D01*
X0243724Y0059523D01*
X0243697Y0059353D01*
X0243665Y0059184D01*
X0243630Y0059016D01*
X0243590Y0058849D01*
X0243546Y0058683D01*
X0243499Y0058518D01*
X0243447Y0058354D01*
X0243391Y0058192D01*
X0243331Y0058031D01*
X0243267Y0057871D01*
X0243199Y0057713D01*
X0243128Y0057557D01*
X0243053Y0057403D01*
X0242973Y0057250D01*
X0242891Y0057100D01*
X0242804Y0056951D01*
X0242714Y0056805D01*
X0242620Y0056661D01*
X0242523Y0056519D01*
X0242422Y0056380D01*
X0242318Y0056243D01*
X0242211Y0056109D01*
X0242100Y0055978D01*
X0241987Y0055849D01*
X0241870Y0055723D01*
X0241750Y0055600D01*
X0241627Y0055480D01*
X0241501Y0055363D01*
X0241372Y0055250D01*
X0241241Y0055139D01*
X0241107Y0055032D01*
X0240970Y0054928D01*
X0240831Y0054827D01*
X0240689Y0054730D01*
X0240545Y0054636D01*
X0240399Y0054546D01*
X0240250Y0054459D01*
X0240100Y0054377D01*
X0239947Y0054297D01*
X0239793Y0054222D01*
X0239637Y0054151D01*
X0239479Y0054083D01*
X0239319Y0054019D01*
X0239158Y0053959D01*
X0238996Y0053903D01*
X0238832Y0053851D01*
X0238667Y0053804D01*
X0238501Y0053760D01*
X0238334Y0053720D01*
X0238166Y0053685D01*
X0237997Y0053653D01*
X0237827Y0053626D01*
X0237657Y0053603D01*
X0237486Y0053584D01*
X0237315Y0053569D01*
X0237143Y0053558D01*
X0236972Y0053552D01*
X0236800Y0053550D01*
X0236628Y0053552D01*
X0236457Y0053558D01*
X0236285Y0053569D01*
X0236114Y0053584D01*
X0235943Y0053603D01*
X0235773Y0053626D01*
X0235603Y0053653D01*
X0235434Y0053685D01*
X0235266Y0053720D01*
X0235099Y0053760D01*
X0234933Y0053804D01*
X0234768Y0053851D01*
X0234604Y0053903D01*
X0234442Y0053959D01*
X0234281Y0054019D01*
X0234121Y0054083D01*
X0233963Y0054151D01*
X0233807Y0054222D01*
X0233653Y0054297D01*
X0233500Y0054377D01*
X0233350Y0054459D01*
X0233201Y0054546D01*
X0233055Y0054636D01*
X0232911Y0054730D01*
X0232769Y0054827D01*
X0232630Y0054928D01*
X0232493Y0055032D01*
X0232359Y0055139D01*
X0232228Y0055250D01*
X0232099Y0055363D01*
X0231973Y0055480D01*
X0231850Y0055600D01*
X0231730Y0055723D01*
X0231613Y0055849D01*
X0231500Y0055978D01*
X0231389Y0056109D01*
X0231282Y0056243D01*
X0231178Y0056380D01*
X0231077Y0056519D01*
X0230980Y0056661D01*
X0230886Y0056805D01*
X0230796Y0056951D01*
X0230709Y0057100D01*
X0230627Y0057250D01*
X0230547Y0057403D01*
X0230472Y0057557D01*
X0230401Y0057713D01*
X0230333Y0057871D01*
X0230269Y0058031D01*
X0230209Y0058192D01*
X0230153Y0058354D01*
X0230101Y0058518D01*
X0230054Y0058683D01*
X0230010Y0058849D01*
X0229970Y0059016D01*
X0229935Y0059184D01*
X0229903Y0059353D01*
X0229876Y0059523D01*
X0229853Y0059693D01*
X0229834Y0059864D01*
X0229819Y0060035D01*
X0229808Y0060207D01*
X0229802Y0060378D01*
X0229800Y0060550D01*
X0224800Y0056621D02*
X0224800Y0064550D01*
X0228300Y0072550D02*
X0245300Y0072550D01*
X0238114Y0076234D02*
X0237080Y0075200D01*
X0235011Y0075200D01*
X0233977Y0076234D01*
X0233977Y0078303D02*
X0236046Y0079337D01*
X0237080Y0079337D01*
X0238114Y0078303D01*
X0238114Y0076234D01*
X0233977Y0078303D02*
X0233977Y0081405D01*
X0238114Y0081405D01*
X0245300Y0083550D02*
X0228300Y0083550D01*
X0224800Y0091621D02*
X0224800Y0099550D01*
X0229800Y0095550D02*
X0229802Y0095722D01*
X0229808Y0095893D01*
X0229819Y0096065D01*
X0229834Y0096236D01*
X0229853Y0096407D01*
X0229876Y0096577D01*
X0229903Y0096747D01*
X0229935Y0096916D01*
X0229970Y0097084D01*
X0230010Y0097251D01*
X0230054Y0097417D01*
X0230101Y0097582D01*
X0230153Y0097746D01*
X0230209Y0097908D01*
X0230269Y0098069D01*
X0230333Y0098229D01*
X0230401Y0098387D01*
X0230472Y0098543D01*
X0230547Y0098697D01*
X0230627Y0098850D01*
X0230709Y0099000D01*
X0230796Y0099149D01*
X0230886Y0099295D01*
X0230980Y0099439D01*
X0231077Y0099581D01*
X0231178Y0099720D01*
X0231282Y0099857D01*
X0231389Y0099991D01*
X0231500Y0100122D01*
X0231613Y0100251D01*
X0231730Y0100377D01*
X0231850Y0100500D01*
X0231973Y0100620D01*
X0232099Y0100737D01*
X0232228Y0100850D01*
X0232359Y0100961D01*
X0232493Y0101068D01*
X0232630Y0101172D01*
X0232769Y0101273D01*
X0232911Y0101370D01*
X0233055Y0101464D01*
X0233201Y0101554D01*
X0233350Y0101641D01*
X0233500Y0101723D01*
X0233653Y0101803D01*
X0233807Y0101878D01*
X0233963Y0101949D01*
X0234121Y0102017D01*
X0234281Y0102081D01*
X0234442Y0102141D01*
X0234604Y0102197D01*
X0234768Y0102249D01*
X0234933Y0102296D01*
X0235099Y0102340D01*
X0235266Y0102380D01*
X0235434Y0102415D01*
X0235603Y0102447D01*
X0235773Y0102474D01*
X0235943Y0102497D01*
X0236114Y0102516D01*
X0236285Y0102531D01*
X0236457Y0102542D01*
X0236628Y0102548D01*
X0236800Y0102550D01*
X0236972Y0102548D01*
X0237143Y0102542D01*
X0237315Y0102531D01*
X0237486Y0102516D01*
X0237657Y0102497D01*
X0237827Y0102474D01*
X0237997Y0102447D01*
X0238166Y0102415D01*
X0238334Y0102380D01*
X0238501Y0102340D01*
X0238667Y0102296D01*
X0238832Y0102249D01*
X0238996Y0102197D01*
X0239158Y0102141D01*
X0239319Y0102081D01*
X0239479Y0102017D01*
X0239637Y0101949D01*
X0239793Y0101878D01*
X0239947Y0101803D01*
X0240100Y0101723D01*
X0240250Y0101641D01*
X0240399Y0101554D01*
X0240545Y0101464D01*
X0240689Y0101370D01*
X0240831Y0101273D01*
X0240970Y0101172D01*
X0241107Y0101068D01*
X0241241Y0100961D01*
X0241372Y0100850D01*
X0241501Y0100737D01*
X0241627Y0100620D01*
X0241750Y0100500D01*
X0241870Y0100377D01*
X0241987Y0100251D01*
X0242100Y0100122D01*
X0242211Y0099991D01*
X0242318Y0099857D01*
X0242422Y0099720D01*
X0242523Y0099581D01*
X0242620Y0099439D01*
X0242714Y0099295D01*
X0242804Y0099149D01*
X0242891Y0099000D01*
X0242973Y0098850D01*
X0243053Y0098697D01*
X0243128Y0098543D01*
X0243199Y0098387D01*
X0243267Y0098229D01*
X0243331Y0098069D01*
X0243391Y0097908D01*
X0243447Y0097746D01*
X0243499Y0097582D01*
X0243546Y0097417D01*
X0243590Y0097251D01*
X0243630Y0097084D01*
X0243665Y0096916D01*
X0243697Y0096747D01*
X0243724Y0096577D01*
X0243747Y0096407D01*
X0243766Y0096236D01*
X0243781Y0096065D01*
X0243792Y0095893D01*
X0243798Y0095722D01*
X0243800Y0095550D01*
X0243798Y0095378D01*
X0243792Y0095207D01*
X0243781Y0095035D01*
X0243766Y0094864D01*
X0243747Y0094693D01*
X0243724Y0094523D01*
X0243697Y0094353D01*
X0243665Y0094184D01*
X0243630Y0094016D01*
X0243590Y0093849D01*
X0243546Y0093683D01*
X0243499Y0093518D01*
X0243447Y0093354D01*
X0243391Y0093192D01*
X0243331Y0093031D01*
X0243267Y0092871D01*
X0243199Y0092713D01*
X0243128Y0092557D01*
X0243053Y0092403D01*
X0242973Y0092250D01*
X0242891Y0092100D01*
X0242804Y0091951D01*
X0242714Y0091805D01*
X0242620Y0091661D01*
X0242523Y0091519D01*
X0242422Y0091380D01*
X0242318Y0091243D01*
X0242211Y0091109D01*
X0242100Y0090978D01*
X0241987Y0090849D01*
X0241870Y0090723D01*
X0241750Y0090600D01*
X0241627Y0090480D01*
X0241501Y0090363D01*
X0241372Y0090250D01*
X0241241Y0090139D01*
X0241107Y0090032D01*
X0240970Y0089928D01*
X0240831Y0089827D01*
X0240689Y0089730D01*
X0240545Y0089636D01*
X0240399Y0089546D01*
X0240250Y0089459D01*
X0240100Y0089377D01*
X0239947Y0089297D01*
X0239793Y0089222D01*
X0239637Y0089151D01*
X0239479Y0089083D01*
X0239319Y0089019D01*
X0239158Y0088959D01*
X0238996Y0088903D01*
X0238832Y0088851D01*
X0238667Y0088804D01*
X0238501Y0088760D01*
X0238334Y0088720D01*
X0238166Y0088685D01*
X0237997Y0088653D01*
X0237827Y0088626D01*
X0237657Y0088603D01*
X0237486Y0088584D01*
X0237315Y0088569D01*
X0237143Y0088558D01*
X0236972Y0088552D01*
X0236800Y0088550D01*
X0236628Y0088552D01*
X0236457Y0088558D01*
X0236285Y0088569D01*
X0236114Y0088584D01*
X0235943Y0088603D01*
X0235773Y0088626D01*
X0235603Y0088653D01*
X0235434Y0088685D01*
X0235266Y0088720D01*
X0235099Y0088760D01*
X0234933Y0088804D01*
X0234768Y0088851D01*
X0234604Y0088903D01*
X0234442Y0088959D01*
X0234281Y0089019D01*
X0234121Y0089083D01*
X0233963Y0089151D01*
X0233807Y0089222D01*
X0233653Y0089297D01*
X0233500Y0089377D01*
X0233350Y0089459D01*
X0233201Y0089546D01*
X0233055Y0089636D01*
X0232911Y0089730D01*
X0232769Y0089827D01*
X0232630Y0089928D01*
X0232493Y0090032D01*
X0232359Y0090139D01*
X0232228Y0090250D01*
X0232099Y0090363D01*
X0231973Y0090480D01*
X0231850Y0090600D01*
X0231730Y0090723D01*
X0231613Y0090849D01*
X0231500Y0090978D01*
X0231389Y0091109D01*
X0231282Y0091243D01*
X0231178Y0091380D01*
X0231077Y0091519D01*
X0230980Y0091661D01*
X0230886Y0091805D01*
X0230796Y0091951D01*
X0230709Y0092100D01*
X0230627Y0092250D01*
X0230547Y0092403D01*
X0230472Y0092557D01*
X0230401Y0092713D01*
X0230333Y0092871D01*
X0230269Y0093031D01*
X0230209Y0093192D01*
X0230153Y0093354D01*
X0230101Y0093518D01*
X0230054Y0093683D01*
X0230010Y0093849D01*
X0229970Y0094016D01*
X0229935Y0094184D01*
X0229903Y0094353D01*
X0229876Y0094523D01*
X0229853Y0094693D01*
X0229834Y0094864D01*
X0229819Y0095035D01*
X0229808Y0095207D01*
X0229802Y0095378D01*
X0229800Y0095550D01*
X0248800Y0099550D02*
X0248800Y0091503D01*
X0264800Y0091621D02*
X0264800Y0099550D01*
X0269800Y0095550D02*
X0269802Y0095722D01*
X0269808Y0095893D01*
X0269819Y0096065D01*
X0269834Y0096236D01*
X0269853Y0096407D01*
X0269876Y0096577D01*
X0269903Y0096747D01*
X0269935Y0096916D01*
X0269970Y0097084D01*
X0270010Y0097251D01*
X0270054Y0097417D01*
X0270101Y0097582D01*
X0270153Y0097746D01*
X0270209Y0097908D01*
X0270269Y0098069D01*
X0270333Y0098229D01*
X0270401Y0098387D01*
X0270472Y0098543D01*
X0270547Y0098697D01*
X0270627Y0098850D01*
X0270709Y0099000D01*
X0270796Y0099149D01*
X0270886Y0099295D01*
X0270980Y0099439D01*
X0271077Y0099581D01*
X0271178Y0099720D01*
X0271282Y0099857D01*
X0271389Y0099991D01*
X0271500Y0100122D01*
X0271613Y0100251D01*
X0271730Y0100377D01*
X0271850Y0100500D01*
X0271973Y0100620D01*
X0272099Y0100737D01*
X0272228Y0100850D01*
X0272359Y0100961D01*
X0272493Y0101068D01*
X0272630Y0101172D01*
X0272769Y0101273D01*
X0272911Y0101370D01*
X0273055Y0101464D01*
X0273201Y0101554D01*
X0273350Y0101641D01*
X0273500Y0101723D01*
X0273653Y0101803D01*
X0273807Y0101878D01*
X0273963Y0101949D01*
X0274121Y0102017D01*
X0274281Y0102081D01*
X0274442Y0102141D01*
X0274604Y0102197D01*
X0274768Y0102249D01*
X0274933Y0102296D01*
X0275099Y0102340D01*
X0275266Y0102380D01*
X0275434Y0102415D01*
X0275603Y0102447D01*
X0275773Y0102474D01*
X0275943Y0102497D01*
X0276114Y0102516D01*
X0276285Y0102531D01*
X0276457Y0102542D01*
X0276628Y0102548D01*
X0276800Y0102550D01*
X0276972Y0102548D01*
X0277143Y0102542D01*
X0277315Y0102531D01*
X0277486Y0102516D01*
X0277657Y0102497D01*
X0277827Y0102474D01*
X0277997Y0102447D01*
X0278166Y0102415D01*
X0278334Y0102380D01*
X0278501Y0102340D01*
X0278667Y0102296D01*
X0278832Y0102249D01*
X0278996Y0102197D01*
X0279158Y0102141D01*
X0279319Y0102081D01*
X0279479Y0102017D01*
X0279637Y0101949D01*
X0279793Y0101878D01*
X0279947Y0101803D01*
X0280100Y0101723D01*
X0280250Y0101641D01*
X0280399Y0101554D01*
X0280545Y0101464D01*
X0280689Y0101370D01*
X0280831Y0101273D01*
X0280970Y0101172D01*
X0281107Y0101068D01*
X0281241Y0100961D01*
X0281372Y0100850D01*
X0281501Y0100737D01*
X0281627Y0100620D01*
X0281750Y0100500D01*
X0281870Y0100377D01*
X0281987Y0100251D01*
X0282100Y0100122D01*
X0282211Y0099991D01*
X0282318Y0099857D01*
X0282422Y0099720D01*
X0282523Y0099581D01*
X0282620Y0099439D01*
X0282714Y0099295D01*
X0282804Y0099149D01*
X0282891Y0099000D01*
X0282973Y0098850D01*
X0283053Y0098697D01*
X0283128Y0098543D01*
X0283199Y0098387D01*
X0283267Y0098229D01*
X0283331Y0098069D01*
X0283391Y0097908D01*
X0283447Y0097746D01*
X0283499Y0097582D01*
X0283546Y0097417D01*
X0283590Y0097251D01*
X0283630Y0097084D01*
X0283665Y0096916D01*
X0283697Y0096747D01*
X0283724Y0096577D01*
X0283747Y0096407D01*
X0283766Y0096236D01*
X0283781Y0096065D01*
X0283792Y0095893D01*
X0283798Y0095722D01*
X0283800Y0095550D01*
X0283798Y0095378D01*
X0283792Y0095207D01*
X0283781Y0095035D01*
X0283766Y0094864D01*
X0283747Y0094693D01*
X0283724Y0094523D01*
X0283697Y0094353D01*
X0283665Y0094184D01*
X0283630Y0094016D01*
X0283590Y0093849D01*
X0283546Y0093683D01*
X0283499Y0093518D01*
X0283447Y0093354D01*
X0283391Y0093192D01*
X0283331Y0093031D01*
X0283267Y0092871D01*
X0283199Y0092713D01*
X0283128Y0092557D01*
X0283053Y0092403D01*
X0282973Y0092250D01*
X0282891Y0092100D01*
X0282804Y0091951D01*
X0282714Y0091805D01*
X0282620Y0091661D01*
X0282523Y0091519D01*
X0282422Y0091380D01*
X0282318Y0091243D01*
X0282211Y0091109D01*
X0282100Y0090978D01*
X0281987Y0090849D01*
X0281870Y0090723D01*
X0281750Y0090600D01*
X0281627Y0090480D01*
X0281501Y0090363D01*
X0281372Y0090250D01*
X0281241Y0090139D01*
X0281107Y0090032D01*
X0280970Y0089928D01*
X0280831Y0089827D01*
X0280689Y0089730D01*
X0280545Y0089636D01*
X0280399Y0089546D01*
X0280250Y0089459D01*
X0280100Y0089377D01*
X0279947Y0089297D01*
X0279793Y0089222D01*
X0279637Y0089151D01*
X0279479Y0089083D01*
X0279319Y0089019D01*
X0279158Y0088959D01*
X0278996Y0088903D01*
X0278832Y0088851D01*
X0278667Y0088804D01*
X0278501Y0088760D01*
X0278334Y0088720D01*
X0278166Y0088685D01*
X0277997Y0088653D01*
X0277827Y0088626D01*
X0277657Y0088603D01*
X0277486Y0088584D01*
X0277315Y0088569D01*
X0277143Y0088558D01*
X0276972Y0088552D01*
X0276800Y0088550D01*
X0276628Y0088552D01*
X0276457Y0088558D01*
X0276285Y0088569D01*
X0276114Y0088584D01*
X0275943Y0088603D01*
X0275773Y0088626D01*
X0275603Y0088653D01*
X0275434Y0088685D01*
X0275266Y0088720D01*
X0275099Y0088760D01*
X0274933Y0088804D01*
X0274768Y0088851D01*
X0274604Y0088903D01*
X0274442Y0088959D01*
X0274281Y0089019D01*
X0274121Y0089083D01*
X0273963Y0089151D01*
X0273807Y0089222D01*
X0273653Y0089297D01*
X0273500Y0089377D01*
X0273350Y0089459D01*
X0273201Y0089546D01*
X0273055Y0089636D01*
X0272911Y0089730D01*
X0272769Y0089827D01*
X0272630Y0089928D01*
X0272493Y0090032D01*
X0272359Y0090139D01*
X0272228Y0090250D01*
X0272099Y0090363D01*
X0271973Y0090480D01*
X0271850Y0090600D01*
X0271730Y0090723D01*
X0271613Y0090849D01*
X0271500Y0090978D01*
X0271389Y0091109D01*
X0271282Y0091243D01*
X0271178Y0091380D01*
X0271077Y0091519D01*
X0270980Y0091661D01*
X0270886Y0091805D01*
X0270796Y0091951D01*
X0270709Y0092100D01*
X0270627Y0092250D01*
X0270547Y0092403D01*
X0270472Y0092557D01*
X0270401Y0092713D01*
X0270333Y0092871D01*
X0270269Y0093031D01*
X0270209Y0093192D01*
X0270153Y0093354D01*
X0270101Y0093518D01*
X0270054Y0093683D01*
X0270010Y0093849D01*
X0269970Y0094016D01*
X0269935Y0094184D01*
X0269903Y0094353D01*
X0269876Y0094523D01*
X0269853Y0094693D01*
X0269834Y0094864D01*
X0269819Y0095035D01*
X0269808Y0095207D01*
X0269802Y0095378D01*
X0269800Y0095550D01*
X0288800Y0099550D02*
X0288800Y0091503D01*
X0285300Y0083550D02*
X0268300Y0083550D01*
X0273977Y0078303D02*
X0276046Y0080371D01*
X0278114Y0081405D01*
X0277080Y0078303D02*
X0273977Y0078303D01*
X0273977Y0076234D01*
X0275011Y0075200D01*
X0277080Y0075200D01*
X0278114Y0076234D01*
X0278114Y0077268D01*
X0277080Y0078303D01*
X0285300Y0072550D02*
X0268300Y0072550D01*
X0264800Y0064550D02*
X0264800Y0056621D01*
X0269800Y0060550D02*
X0269802Y0060722D01*
X0269808Y0060893D01*
X0269819Y0061065D01*
X0269834Y0061236D01*
X0269853Y0061407D01*
X0269876Y0061577D01*
X0269903Y0061747D01*
X0269935Y0061916D01*
X0269970Y0062084D01*
X0270010Y0062251D01*
X0270054Y0062417D01*
X0270101Y0062582D01*
X0270153Y0062746D01*
X0270209Y0062908D01*
X0270269Y0063069D01*
X0270333Y0063229D01*
X0270401Y0063387D01*
X0270472Y0063543D01*
X0270547Y0063697D01*
X0270627Y0063850D01*
X0270709Y0064000D01*
X0270796Y0064149D01*
X0270886Y0064295D01*
X0270980Y0064439D01*
X0271077Y0064581D01*
X0271178Y0064720D01*
X0271282Y0064857D01*
X0271389Y0064991D01*
X0271500Y0065122D01*
X0271613Y0065251D01*
X0271730Y0065377D01*
X0271850Y0065500D01*
X0271973Y0065620D01*
X0272099Y0065737D01*
X0272228Y0065850D01*
X0272359Y0065961D01*
X0272493Y0066068D01*
X0272630Y0066172D01*
X0272769Y0066273D01*
X0272911Y0066370D01*
X0273055Y0066464D01*
X0273201Y0066554D01*
X0273350Y0066641D01*
X0273500Y0066723D01*
X0273653Y0066803D01*
X0273807Y0066878D01*
X0273963Y0066949D01*
X0274121Y0067017D01*
X0274281Y0067081D01*
X0274442Y0067141D01*
X0274604Y0067197D01*
X0274768Y0067249D01*
X0274933Y0067296D01*
X0275099Y0067340D01*
X0275266Y0067380D01*
X0275434Y0067415D01*
X0275603Y0067447D01*
X0275773Y0067474D01*
X0275943Y0067497D01*
X0276114Y0067516D01*
X0276285Y0067531D01*
X0276457Y0067542D01*
X0276628Y0067548D01*
X0276800Y0067550D01*
X0276972Y0067548D01*
X0277143Y0067542D01*
X0277315Y0067531D01*
X0277486Y0067516D01*
X0277657Y0067497D01*
X0277827Y0067474D01*
X0277997Y0067447D01*
X0278166Y0067415D01*
X0278334Y0067380D01*
X0278501Y0067340D01*
X0278667Y0067296D01*
X0278832Y0067249D01*
X0278996Y0067197D01*
X0279158Y0067141D01*
X0279319Y0067081D01*
X0279479Y0067017D01*
X0279637Y0066949D01*
X0279793Y0066878D01*
X0279947Y0066803D01*
X0280100Y0066723D01*
X0280250Y0066641D01*
X0280399Y0066554D01*
X0280545Y0066464D01*
X0280689Y0066370D01*
X0280831Y0066273D01*
X0280970Y0066172D01*
X0281107Y0066068D01*
X0281241Y0065961D01*
X0281372Y0065850D01*
X0281501Y0065737D01*
X0281627Y0065620D01*
X0281750Y0065500D01*
X0281870Y0065377D01*
X0281987Y0065251D01*
X0282100Y0065122D01*
X0282211Y0064991D01*
X0282318Y0064857D01*
X0282422Y0064720D01*
X0282523Y0064581D01*
X0282620Y0064439D01*
X0282714Y0064295D01*
X0282804Y0064149D01*
X0282891Y0064000D01*
X0282973Y0063850D01*
X0283053Y0063697D01*
X0283128Y0063543D01*
X0283199Y0063387D01*
X0283267Y0063229D01*
X0283331Y0063069D01*
X0283391Y0062908D01*
X0283447Y0062746D01*
X0283499Y0062582D01*
X0283546Y0062417D01*
X0283590Y0062251D01*
X0283630Y0062084D01*
X0283665Y0061916D01*
X0283697Y0061747D01*
X0283724Y0061577D01*
X0283747Y0061407D01*
X0283766Y0061236D01*
X0283781Y0061065D01*
X0283792Y0060893D01*
X0283798Y0060722D01*
X0283800Y0060550D01*
X0283798Y0060378D01*
X0283792Y0060207D01*
X0283781Y0060035D01*
X0283766Y0059864D01*
X0283747Y0059693D01*
X0283724Y0059523D01*
X0283697Y0059353D01*
X0283665Y0059184D01*
X0283630Y0059016D01*
X0283590Y0058849D01*
X0283546Y0058683D01*
X0283499Y0058518D01*
X0283447Y0058354D01*
X0283391Y0058192D01*
X0283331Y0058031D01*
X0283267Y0057871D01*
X0283199Y0057713D01*
X0283128Y0057557D01*
X0283053Y0057403D01*
X0282973Y0057250D01*
X0282891Y0057100D01*
X0282804Y0056951D01*
X0282714Y0056805D01*
X0282620Y0056661D01*
X0282523Y0056519D01*
X0282422Y0056380D01*
X0282318Y0056243D01*
X0282211Y0056109D01*
X0282100Y0055978D01*
X0281987Y0055849D01*
X0281870Y0055723D01*
X0281750Y0055600D01*
X0281627Y0055480D01*
X0281501Y0055363D01*
X0281372Y0055250D01*
X0281241Y0055139D01*
X0281107Y0055032D01*
X0280970Y0054928D01*
X0280831Y0054827D01*
X0280689Y0054730D01*
X0280545Y0054636D01*
X0280399Y0054546D01*
X0280250Y0054459D01*
X0280100Y0054377D01*
X0279947Y0054297D01*
X0279793Y0054222D01*
X0279637Y0054151D01*
X0279479Y0054083D01*
X0279319Y0054019D01*
X0279158Y0053959D01*
X0278996Y0053903D01*
X0278832Y0053851D01*
X0278667Y0053804D01*
X0278501Y0053760D01*
X0278334Y0053720D01*
X0278166Y0053685D01*
X0277997Y0053653D01*
X0277827Y0053626D01*
X0277657Y0053603D01*
X0277486Y0053584D01*
X0277315Y0053569D01*
X0277143Y0053558D01*
X0276972Y0053552D01*
X0276800Y0053550D01*
X0276628Y0053552D01*
X0276457Y0053558D01*
X0276285Y0053569D01*
X0276114Y0053584D01*
X0275943Y0053603D01*
X0275773Y0053626D01*
X0275603Y0053653D01*
X0275434Y0053685D01*
X0275266Y0053720D01*
X0275099Y0053760D01*
X0274933Y0053804D01*
X0274768Y0053851D01*
X0274604Y0053903D01*
X0274442Y0053959D01*
X0274281Y0054019D01*
X0274121Y0054083D01*
X0273963Y0054151D01*
X0273807Y0054222D01*
X0273653Y0054297D01*
X0273500Y0054377D01*
X0273350Y0054459D01*
X0273201Y0054546D01*
X0273055Y0054636D01*
X0272911Y0054730D01*
X0272769Y0054827D01*
X0272630Y0054928D01*
X0272493Y0055032D01*
X0272359Y0055139D01*
X0272228Y0055250D01*
X0272099Y0055363D01*
X0271973Y0055480D01*
X0271850Y0055600D01*
X0271730Y0055723D01*
X0271613Y0055849D01*
X0271500Y0055978D01*
X0271389Y0056109D01*
X0271282Y0056243D01*
X0271178Y0056380D01*
X0271077Y0056519D01*
X0270980Y0056661D01*
X0270886Y0056805D01*
X0270796Y0056951D01*
X0270709Y0057100D01*
X0270627Y0057250D01*
X0270547Y0057403D01*
X0270472Y0057557D01*
X0270401Y0057713D01*
X0270333Y0057871D01*
X0270269Y0058031D01*
X0270209Y0058192D01*
X0270153Y0058354D01*
X0270101Y0058518D01*
X0270054Y0058683D01*
X0270010Y0058849D01*
X0269970Y0059016D01*
X0269935Y0059184D01*
X0269903Y0059353D01*
X0269876Y0059523D01*
X0269853Y0059693D01*
X0269834Y0059864D01*
X0269819Y0060035D01*
X0269808Y0060207D01*
X0269802Y0060378D01*
X0269800Y0060550D01*
X0288800Y0064550D02*
X0288800Y0056503D01*
X0285300Y0048550D02*
X0268300Y0048550D01*
X0273977Y0045371D02*
X0273977Y0044337D01*
X0275011Y0043303D01*
X0278114Y0043303D01*
X0278114Y0045371D02*
X0278114Y0041234D01*
X0277080Y0040200D01*
X0275011Y0040200D01*
X0273977Y0041234D01*
X0273977Y0045371D02*
X0275011Y0046405D01*
X0277080Y0046405D01*
X0278114Y0045371D01*
X0285300Y0037550D02*
X0268300Y0037550D01*
X0264800Y0029550D02*
X0264800Y0021621D01*
X0269800Y0025550D02*
X0269802Y0025722D01*
X0269808Y0025893D01*
X0269819Y0026065D01*
X0269834Y0026236D01*
X0269853Y0026407D01*
X0269876Y0026577D01*
X0269903Y0026747D01*
X0269935Y0026916D01*
X0269970Y0027084D01*
X0270010Y0027251D01*
X0270054Y0027417D01*
X0270101Y0027582D01*
X0270153Y0027746D01*
X0270209Y0027908D01*
X0270269Y0028069D01*
X0270333Y0028229D01*
X0270401Y0028387D01*
X0270472Y0028543D01*
X0270547Y0028697D01*
X0270627Y0028850D01*
X0270709Y0029000D01*
X0270796Y0029149D01*
X0270886Y0029295D01*
X0270980Y0029439D01*
X0271077Y0029581D01*
X0271178Y0029720D01*
X0271282Y0029857D01*
X0271389Y0029991D01*
X0271500Y0030122D01*
X0271613Y0030251D01*
X0271730Y0030377D01*
X0271850Y0030500D01*
X0271973Y0030620D01*
X0272099Y0030737D01*
X0272228Y0030850D01*
X0272359Y0030961D01*
X0272493Y0031068D01*
X0272630Y0031172D01*
X0272769Y0031273D01*
X0272911Y0031370D01*
X0273055Y0031464D01*
X0273201Y0031554D01*
X0273350Y0031641D01*
X0273500Y0031723D01*
X0273653Y0031803D01*
X0273807Y0031878D01*
X0273963Y0031949D01*
X0274121Y0032017D01*
X0274281Y0032081D01*
X0274442Y0032141D01*
X0274604Y0032197D01*
X0274768Y0032249D01*
X0274933Y0032296D01*
X0275099Y0032340D01*
X0275266Y0032380D01*
X0275434Y0032415D01*
X0275603Y0032447D01*
X0275773Y0032474D01*
X0275943Y0032497D01*
X0276114Y0032516D01*
X0276285Y0032531D01*
X0276457Y0032542D01*
X0276628Y0032548D01*
X0276800Y0032550D01*
X0276972Y0032548D01*
X0277143Y0032542D01*
X0277315Y0032531D01*
X0277486Y0032516D01*
X0277657Y0032497D01*
X0277827Y0032474D01*
X0277997Y0032447D01*
X0278166Y0032415D01*
X0278334Y0032380D01*
X0278501Y0032340D01*
X0278667Y0032296D01*
X0278832Y0032249D01*
X0278996Y0032197D01*
X0279158Y0032141D01*
X0279319Y0032081D01*
X0279479Y0032017D01*
X0279637Y0031949D01*
X0279793Y0031878D01*
X0279947Y0031803D01*
X0280100Y0031723D01*
X0280250Y0031641D01*
X0280399Y0031554D01*
X0280545Y0031464D01*
X0280689Y0031370D01*
X0280831Y0031273D01*
X0280970Y0031172D01*
X0281107Y0031068D01*
X0281241Y0030961D01*
X0281372Y0030850D01*
X0281501Y0030737D01*
X0281627Y0030620D01*
X0281750Y0030500D01*
X0281870Y0030377D01*
X0281987Y0030251D01*
X0282100Y0030122D01*
X0282211Y0029991D01*
X0282318Y0029857D01*
X0282422Y0029720D01*
X0282523Y0029581D01*
X0282620Y0029439D01*
X0282714Y0029295D01*
X0282804Y0029149D01*
X0282891Y0029000D01*
X0282973Y0028850D01*
X0283053Y0028697D01*
X0283128Y0028543D01*
X0283199Y0028387D01*
X0283267Y0028229D01*
X0283331Y0028069D01*
X0283391Y0027908D01*
X0283447Y0027746D01*
X0283499Y0027582D01*
X0283546Y0027417D01*
X0283590Y0027251D01*
X0283630Y0027084D01*
X0283665Y0026916D01*
X0283697Y0026747D01*
X0283724Y0026577D01*
X0283747Y0026407D01*
X0283766Y0026236D01*
X0283781Y0026065D01*
X0283792Y0025893D01*
X0283798Y0025722D01*
X0283800Y0025550D01*
X0283798Y0025378D01*
X0283792Y0025207D01*
X0283781Y0025035D01*
X0283766Y0024864D01*
X0283747Y0024693D01*
X0283724Y0024523D01*
X0283697Y0024353D01*
X0283665Y0024184D01*
X0283630Y0024016D01*
X0283590Y0023849D01*
X0283546Y0023683D01*
X0283499Y0023518D01*
X0283447Y0023354D01*
X0283391Y0023192D01*
X0283331Y0023031D01*
X0283267Y0022871D01*
X0283199Y0022713D01*
X0283128Y0022557D01*
X0283053Y0022403D01*
X0282973Y0022250D01*
X0282891Y0022100D01*
X0282804Y0021951D01*
X0282714Y0021805D01*
X0282620Y0021661D01*
X0282523Y0021519D01*
X0282422Y0021380D01*
X0282318Y0021243D01*
X0282211Y0021109D01*
X0282100Y0020978D01*
X0281987Y0020849D01*
X0281870Y0020723D01*
X0281750Y0020600D01*
X0281627Y0020480D01*
X0281501Y0020363D01*
X0281372Y0020250D01*
X0281241Y0020139D01*
X0281107Y0020032D01*
X0280970Y0019928D01*
X0280831Y0019827D01*
X0280689Y0019730D01*
X0280545Y0019636D01*
X0280399Y0019546D01*
X0280250Y0019459D01*
X0280100Y0019377D01*
X0279947Y0019297D01*
X0279793Y0019222D01*
X0279637Y0019151D01*
X0279479Y0019083D01*
X0279319Y0019019D01*
X0279158Y0018959D01*
X0278996Y0018903D01*
X0278832Y0018851D01*
X0278667Y0018804D01*
X0278501Y0018760D01*
X0278334Y0018720D01*
X0278166Y0018685D01*
X0277997Y0018653D01*
X0277827Y0018626D01*
X0277657Y0018603D01*
X0277486Y0018584D01*
X0277315Y0018569D01*
X0277143Y0018558D01*
X0276972Y0018552D01*
X0276800Y0018550D01*
X0276628Y0018552D01*
X0276457Y0018558D01*
X0276285Y0018569D01*
X0276114Y0018584D01*
X0275943Y0018603D01*
X0275773Y0018626D01*
X0275603Y0018653D01*
X0275434Y0018685D01*
X0275266Y0018720D01*
X0275099Y0018760D01*
X0274933Y0018804D01*
X0274768Y0018851D01*
X0274604Y0018903D01*
X0274442Y0018959D01*
X0274281Y0019019D01*
X0274121Y0019083D01*
X0273963Y0019151D01*
X0273807Y0019222D01*
X0273653Y0019297D01*
X0273500Y0019377D01*
X0273350Y0019459D01*
X0273201Y0019546D01*
X0273055Y0019636D01*
X0272911Y0019730D01*
X0272769Y0019827D01*
X0272630Y0019928D01*
X0272493Y0020032D01*
X0272359Y0020139D01*
X0272228Y0020250D01*
X0272099Y0020363D01*
X0271973Y0020480D01*
X0271850Y0020600D01*
X0271730Y0020723D01*
X0271613Y0020849D01*
X0271500Y0020978D01*
X0271389Y0021109D01*
X0271282Y0021243D01*
X0271178Y0021380D01*
X0271077Y0021519D01*
X0270980Y0021661D01*
X0270886Y0021805D01*
X0270796Y0021951D01*
X0270709Y0022100D01*
X0270627Y0022250D01*
X0270547Y0022403D01*
X0270472Y0022557D01*
X0270401Y0022713D01*
X0270333Y0022871D01*
X0270269Y0023031D01*
X0270209Y0023192D01*
X0270153Y0023354D01*
X0270101Y0023518D01*
X0270054Y0023683D01*
X0270010Y0023849D01*
X0269970Y0024016D01*
X0269935Y0024184D01*
X0269903Y0024353D01*
X0269876Y0024523D01*
X0269853Y0024693D01*
X0269834Y0024864D01*
X0269819Y0025035D01*
X0269808Y0025207D01*
X0269802Y0025378D01*
X0269800Y0025550D01*
X0288800Y0029550D02*
X0288800Y0021503D01*
X0285300Y0013550D02*
X0268300Y0013550D01*
X0275011Y0011405D02*
X0275011Y0005200D01*
X0277080Y0005200D02*
X0277080Y0011405D01*
X0277080Y0009337D02*
X0273977Y0009337D01*
X0273977Y0007268D02*
X0278114Y0007268D01*
X0278114Y0009337D02*
X0277080Y0009337D01*
X0298926Y0016800D02*
X0298928Y0016993D01*
X0298935Y0017186D01*
X0298947Y0017379D01*
X0298964Y0017572D01*
X0298985Y0017764D01*
X0299011Y0017955D01*
X0299042Y0018146D01*
X0299077Y0018336D01*
X0299117Y0018525D01*
X0299162Y0018713D01*
X0299211Y0018900D01*
X0299265Y0019086D01*
X0299323Y0019270D01*
X0299386Y0019453D01*
X0299454Y0019634D01*
X0299525Y0019813D01*
X0299602Y0019991D01*
X0299682Y0020167D01*
X0299767Y0020340D01*
X0299856Y0020512D01*
X0299949Y0020681D01*
X0300046Y0020848D01*
X0300148Y0021013D01*
X0300253Y0021175D01*
X0300362Y0021334D01*
X0300476Y0021491D01*
X0300593Y0021644D01*
X0300713Y0021795D01*
X0300838Y0021943D01*
X0300966Y0022088D01*
X0301097Y0022229D01*
X0301232Y0022368D01*
X0301371Y0022503D01*
X0301512Y0022634D01*
X0301657Y0022762D01*
X0301805Y0022887D01*
X0301956Y0023007D01*
X0302109Y0023124D01*
X0302266Y0023238D01*
X0302425Y0023347D01*
X0302587Y0023452D01*
X0302752Y0023554D01*
X0302919Y0023651D01*
X0303088Y0023744D01*
X0303260Y0023833D01*
X0303433Y0023918D01*
X0303609Y0023998D01*
X0303787Y0024075D01*
X0303966Y0024146D01*
X0304147Y0024214D01*
X0304330Y0024277D01*
X0304514Y0024335D01*
X0304700Y0024389D01*
X0304887Y0024438D01*
X0305075Y0024483D01*
X0305264Y0024523D01*
X0305454Y0024558D01*
X0305645Y0024589D01*
X0305836Y0024615D01*
X0306028Y0024636D01*
X0306221Y0024653D01*
X0306414Y0024665D01*
X0306607Y0024672D01*
X0306800Y0024674D01*
X0306993Y0024672D01*
X0307186Y0024665D01*
X0307379Y0024653D01*
X0307572Y0024636D01*
X0307764Y0024615D01*
X0307955Y0024589D01*
X0308146Y0024558D01*
X0308336Y0024523D01*
X0308525Y0024483D01*
X0308713Y0024438D01*
X0308900Y0024389D01*
X0309086Y0024335D01*
X0309270Y0024277D01*
X0309453Y0024214D01*
X0309634Y0024146D01*
X0309813Y0024075D01*
X0309991Y0023998D01*
X0310167Y0023918D01*
X0310340Y0023833D01*
X0310512Y0023744D01*
X0310681Y0023651D01*
X0310848Y0023554D01*
X0311013Y0023452D01*
X0311175Y0023347D01*
X0311334Y0023238D01*
X0311491Y0023124D01*
X0311644Y0023007D01*
X0311795Y0022887D01*
X0311943Y0022762D01*
X0312088Y0022634D01*
X0312229Y0022503D01*
X0312368Y0022368D01*
X0312503Y0022229D01*
X0312634Y0022088D01*
X0312762Y0021943D01*
X0312887Y0021795D01*
X0313007Y0021644D01*
X0313124Y0021491D01*
X0313238Y0021334D01*
X0313347Y0021175D01*
X0313452Y0021013D01*
X0313554Y0020848D01*
X0313651Y0020681D01*
X0313744Y0020512D01*
X0313833Y0020340D01*
X0313918Y0020167D01*
X0313998Y0019991D01*
X0314075Y0019813D01*
X0314146Y0019634D01*
X0314214Y0019453D01*
X0314277Y0019270D01*
X0314335Y0019086D01*
X0314389Y0018900D01*
X0314438Y0018713D01*
X0314483Y0018525D01*
X0314523Y0018336D01*
X0314558Y0018146D01*
X0314589Y0017955D01*
X0314615Y0017764D01*
X0314636Y0017572D01*
X0314653Y0017379D01*
X0314665Y0017186D01*
X0314672Y0016993D01*
X0314674Y0016800D01*
X0314672Y0016607D01*
X0314665Y0016414D01*
X0314653Y0016221D01*
X0314636Y0016028D01*
X0314615Y0015836D01*
X0314589Y0015645D01*
X0314558Y0015454D01*
X0314523Y0015264D01*
X0314483Y0015075D01*
X0314438Y0014887D01*
X0314389Y0014700D01*
X0314335Y0014514D01*
X0314277Y0014330D01*
X0314214Y0014147D01*
X0314146Y0013966D01*
X0314075Y0013787D01*
X0313998Y0013609D01*
X0313918Y0013433D01*
X0313833Y0013260D01*
X0313744Y0013088D01*
X0313651Y0012919D01*
X0313554Y0012752D01*
X0313452Y0012587D01*
X0313347Y0012425D01*
X0313238Y0012266D01*
X0313124Y0012109D01*
X0313007Y0011956D01*
X0312887Y0011805D01*
X0312762Y0011657D01*
X0312634Y0011512D01*
X0312503Y0011371D01*
X0312368Y0011232D01*
X0312229Y0011097D01*
X0312088Y0010966D01*
X0311943Y0010838D01*
X0311795Y0010713D01*
X0311644Y0010593D01*
X0311491Y0010476D01*
X0311334Y0010362D01*
X0311175Y0010253D01*
X0311013Y0010148D01*
X0310848Y0010046D01*
X0310681Y0009949D01*
X0310512Y0009856D01*
X0310340Y0009767D01*
X0310167Y0009682D01*
X0309991Y0009602D01*
X0309813Y0009525D01*
X0309634Y0009454D01*
X0309453Y0009386D01*
X0309270Y0009323D01*
X0309086Y0009265D01*
X0308900Y0009211D01*
X0308713Y0009162D01*
X0308525Y0009117D01*
X0308336Y0009077D01*
X0308146Y0009042D01*
X0307955Y0009011D01*
X0307764Y0008985D01*
X0307572Y0008964D01*
X0307379Y0008947D01*
X0307186Y0008935D01*
X0306993Y0008928D01*
X0306800Y0008926D01*
X0306607Y0008928D01*
X0306414Y0008935D01*
X0306221Y0008947D01*
X0306028Y0008964D01*
X0305836Y0008985D01*
X0305645Y0009011D01*
X0305454Y0009042D01*
X0305264Y0009077D01*
X0305075Y0009117D01*
X0304887Y0009162D01*
X0304700Y0009211D01*
X0304514Y0009265D01*
X0304330Y0009323D01*
X0304147Y0009386D01*
X0303966Y0009454D01*
X0303787Y0009525D01*
X0303609Y0009602D01*
X0303433Y0009682D01*
X0303260Y0009767D01*
X0303088Y0009856D01*
X0302919Y0009949D01*
X0302752Y0010046D01*
X0302587Y0010148D01*
X0302425Y0010253D01*
X0302266Y0010362D01*
X0302109Y0010476D01*
X0301956Y0010593D01*
X0301805Y0010713D01*
X0301657Y0010838D01*
X0301512Y0010966D01*
X0301371Y0011097D01*
X0301232Y0011232D01*
X0301097Y0011371D01*
X0300966Y0011512D01*
X0300838Y0011657D01*
X0300713Y0011805D01*
X0300593Y0011956D01*
X0300476Y0012109D01*
X0300362Y0012266D01*
X0300253Y0012425D01*
X0300148Y0012587D01*
X0300046Y0012752D01*
X0299949Y0012919D01*
X0299856Y0013088D01*
X0299767Y0013260D01*
X0299682Y0013433D01*
X0299602Y0013609D01*
X0299525Y0013787D01*
X0299454Y0013966D01*
X0299386Y0014147D01*
X0299323Y0014330D01*
X0299265Y0014514D01*
X0299211Y0014700D01*
X0299162Y0014887D01*
X0299117Y0015075D01*
X0299077Y0015264D01*
X0299042Y0015454D01*
X0299011Y0015645D01*
X0298985Y0015836D01*
X0298964Y0016028D01*
X0298947Y0016221D01*
X0298935Y0016414D01*
X0298928Y0016607D01*
X0298926Y0016800D01*
X0248800Y0021503D02*
X0248800Y0029550D01*
X0229800Y0025550D02*
X0229802Y0025722D01*
X0229808Y0025893D01*
X0229819Y0026065D01*
X0229834Y0026236D01*
X0229853Y0026407D01*
X0229876Y0026577D01*
X0229903Y0026747D01*
X0229935Y0026916D01*
X0229970Y0027084D01*
X0230010Y0027251D01*
X0230054Y0027417D01*
X0230101Y0027582D01*
X0230153Y0027746D01*
X0230209Y0027908D01*
X0230269Y0028069D01*
X0230333Y0028229D01*
X0230401Y0028387D01*
X0230472Y0028543D01*
X0230547Y0028697D01*
X0230627Y0028850D01*
X0230709Y0029000D01*
X0230796Y0029149D01*
X0230886Y0029295D01*
X0230980Y0029439D01*
X0231077Y0029581D01*
X0231178Y0029720D01*
X0231282Y0029857D01*
X0231389Y0029991D01*
X0231500Y0030122D01*
X0231613Y0030251D01*
X0231730Y0030377D01*
X0231850Y0030500D01*
X0231973Y0030620D01*
X0232099Y0030737D01*
X0232228Y0030850D01*
X0232359Y0030961D01*
X0232493Y0031068D01*
X0232630Y0031172D01*
X0232769Y0031273D01*
X0232911Y0031370D01*
X0233055Y0031464D01*
X0233201Y0031554D01*
X0233350Y0031641D01*
X0233500Y0031723D01*
X0233653Y0031803D01*
X0233807Y0031878D01*
X0233963Y0031949D01*
X0234121Y0032017D01*
X0234281Y0032081D01*
X0234442Y0032141D01*
X0234604Y0032197D01*
X0234768Y0032249D01*
X0234933Y0032296D01*
X0235099Y0032340D01*
X0235266Y0032380D01*
X0235434Y0032415D01*
X0235603Y0032447D01*
X0235773Y0032474D01*
X0235943Y0032497D01*
X0236114Y0032516D01*
X0236285Y0032531D01*
X0236457Y0032542D01*
X0236628Y0032548D01*
X0236800Y0032550D01*
X0236972Y0032548D01*
X0237143Y0032542D01*
X0237315Y0032531D01*
X0237486Y0032516D01*
X0237657Y0032497D01*
X0237827Y0032474D01*
X0237997Y0032447D01*
X0238166Y0032415D01*
X0238334Y0032380D01*
X0238501Y0032340D01*
X0238667Y0032296D01*
X0238832Y0032249D01*
X0238996Y0032197D01*
X0239158Y0032141D01*
X0239319Y0032081D01*
X0239479Y0032017D01*
X0239637Y0031949D01*
X0239793Y0031878D01*
X0239947Y0031803D01*
X0240100Y0031723D01*
X0240250Y0031641D01*
X0240399Y0031554D01*
X0240545Y0031464D01*
X0240689Y0031370D01*
X0240831Y0031273D01*
X0240970Y0031172D01*
X0241107Y0031068D01*
X0241241Y0030961D01*
X0241372Y0030850D01*
X0241501Y0030737D01*
X0241627Y0030620D01*
X0241750Y0030500D01*
X0241870Y0030377D01*
X0241987Y0030251D01*
X0242100Y0030122D01*
X0242211Y0029991D01*
X0242318Y0029857D01*
X0242422Y0029720D01*
X0242523Y0029581D01*
X0242620Y0029439D01*
X0242714Y0029295D01*
X0242804Y0029149D01*
X0242891Y0029000D01*
X0242973Y0028850D01*
X0243053Y0028697D01*
X0243128Y0028543D01*
X0243199Y0028387D01*
X0243267Y0028229D01*
X0243331Y0028069D01*
X0243391Y0027908D01*
X0243447Y0027746D01*
X0243499Y0027582D01*
X0243546Y0027417D01*
X0243590Y0027251D01*
X0243630Y0027084D01*
X0243665Y0026916D01*
X0243697Y0026747D01*
X0243724Y0026577D01*
X0243747Y0026407D01*
X0243766Y0026236D01*
X0243781Y0026065D01*
X0243792Y0025893D01*
X0243798Y0025722D01*
X0243800Y0025550D01*
X0243798Y0025378D01*
X0243792Y0025207D01*
X0243781Y0025035D01*
X0243766Y0024864D01*
X0243747Y0024693D01*
X0243724Y0024523D01*
X0243697Y0024353D01*
X0243665Y0024184D01*
X0243630Y0024016D01*
X0243590Y0023849D01*
X0243546Y0023683D01*
X0243499Y0023518D01*
X0243447Y0023354D01*
X0243391Y0023192D01*
X0243331Y0023031D01*
X0243267Y0022871D01*
X0243199Y0022713D01*
X0243128Y0022557D01*
X0243053Y0022403D01*
X0242973Y0022250D01*
X0242891Y0022100D01*
X0242804Y0021951D01*
X0242714Y0021805D01*
X0242620Y0021661D01*
X0242523Y0021519D01*
X0242422Y0021380D01*
X0242318Y0021243D01*
X0242211Y0021109D01*
X0242100Y0020978D01*
X0241987Y0020849D01*
X0241870Y0020723D01*
X0241750Y0020600D01*
X0241627Y0020480D01*
X0241501Y0020363D01*
X0241372Y0020250D01*
X0241241Y0020139D01*
X0241107Y0020032D01*
X0240970Y0019928D01*
X0240831Y0019827D01*
X0240689Y0019730D01*
X0240545Y0019636D01*
X0240399Y0019546D01*
X0240250Y0019459D01*
X0240100Y0019377D01*
X0239947Y0019297D01*
X0239793Y0019222D01*
X0239637Y0019151D01*
X0239479Y0019083D01*
X0239319Y0019019D01*
X0239158Y0018959D01*
X0238996Y0018903D01*
X0238832Y0018851D01*
X0238667Y0018804D01*
X0238501Y0018760D01*
X0238334Y0018720D01*
X0238166Y0018685D01*
X0237997Y0018653D01*
X0237827Y0018626D01*
X0237657Y0018603D01*
X0237486Y0018584D01*
X0237315Y0018569D01*
X0237143Y0018558D01*
X0236972Y0018552D01*
X0236800Y0018550D01*
X0236628Y0018552D01*
X0236457Y0018558D01*
X0236285Y0018569D01*
X0236114Y0018584D01*
X0235943Y0018603D01*
X0235773Y0018626D01*
X0235603Y0018653D01*
X0235434Y0018685D01*
X0235266Y0018720D01*
X0235099Y0018760D01*
X0234933Y0018804D01*
X0234768Y0018851D01*
X0234604Y0018903D01*
X0234442Y0018959D01*
X0234281Y0019019D01*
X0234121Y0019083D01*
X0233963Y0019151D01*
X0233807Y0019222D01*
X0233653Y0019297D01*
X0233500Y0019377D01*
X0233350Y0019459D01*
X0233201Y0019546D01*
X0233055Y0019636D01*
X0232911Y0019730D01*
X0232769Y0019827D01*
X0232630Y0019928D01*
X0232493Y0020032D01*
X0232359Y0020139D01*
X0232228Y0020250D01*
X0232099Y0020363D01*
X0231973Y0020480D01*
X0231850Y0020600D01*
X0231730Y0020723D01*
X0231613Y0020849D01*
X0231500Y0020978D01*
X0231389Y0021109D01*
X0231282Y0021243D01*
X0231178Y0021380D01*
X0231077Y0021519D01*
X0230980Y0021661D01*
X0230886Y0021805D01*
X0230796Y0021951D01*
X0230709Y0022100D01*
X0230627Y0022250D01*
X0230547Y0022403D01*
X0230472Y0022557D01*
X0230401Y0022713D01*
X0230333Y0022871D01*
X0230269Y0023031D01*
X0230209Y0023192D01*
X0230153Y0023354D01*
X0230101Y0023518D01*
X0230054Y0023683D01*
X0230010Y0023849D01*
X0229970Y0024016D01*
X0229935Y0024184D01*
X0229903Y0024353D01*
X0229876Y0024523D01*
X0229853Y0024693D01*
X0229834Y0024864D01*
X0229819Y0025035D01*
X0229808Y0025207D01*
X0229802Y0025378D01*
X0229800Y0025550D01*
X0228300Y0013550D02*
X0245300Y0013550D01*
X0238114Y0010371D02*
X0233977Y0006234D01*
X0235011Y0005200D01*
X0237080Y0005200D01*
X0238114Y0006234D01*
X0238114Y0010371D01*
X0237080Y0011405D01*
X0235011Y0011405D01*
X0233977Y0010371D01*
X0233977Y0006234D01*
X0198114Y0046405D02*
X0193977Y0046405D01*
X0184800Y0091621D02*
X0184800Y0099550D01*
X0189800Y0095550D02*
X0189802Y0095722D01*
X0189808Y0095893D01*
X0189819Y0096065D01*
X0189834Y0096236D01*
X0189853Y0096407D01*
X0189876Y0096577D01*
X0189903Y0096747D01*
X0189935Y0096916D01*
X0189970Y0097084D01*
X0190010Y0097251D01*
X0190054Y0097417D01*
X0190101Y0097582D01*
X0190153Y0097746D01*
X0190209Y0097908D01*
X0190269Y0098069D01*
X0190333Y0098229D01*
X0190401Y0098387D01*
X0190472Y0098543D01*
X0190547Y0098697D01*
X0190627Y0098850D01*
X0190709Y0099000D01*
X0190796Y0099149D01*
X0190886Y0099295D01*
X0190980Y0099439D01*
X0191077Y0099581D01*
X0191178Y0099720D01*
X0191282Y0099857D01*
X0191389Y0099991D01*
X0191500Y0100122D01*
X0191613Y0100251D01*
X0191730Y0100377D01*
X0191850Y0100500D01*
X0191973Y0100620D01*
X0192099Y0100737D01*
X0192228Y0100850D01*
X0192359Y0100961D01*
X0192493Y0101068D01*
X0192630Y0101172D01*
X0192769Y0101273D01*
X0192911Y0101370D01*
X0193055Y0101464D01*
X0193201Y0101554D01*
X0193350Y0101641D01*
X0193500Y0101723D01*
X0193653Y0101803D01*
X0193807Y0101878D01*
X0193963Y0101949D01*
X0194121Y0102017D01*
X0194281Y0102081D01*
X0194442Y0102141D01*
X0194604Y0102197D01*
X0194768Y0102249D01*
X0194933Y0102296D01*
X0195099Y0102340D01*
X0195266Y0102380D01*
X0195434Y0102415D01*
X0195603Y0102447D01*
X0195773Y0102474D01*
X0195943Y0102497D01*
X0196114Y0102516D01*
X0196285Y0102531D01*
X0196457Y0102542D01*
X0196628Y0102548D01*
X0196800Y0102550D01*
X0196972Y0102548D01*
X0197143Y0102542D01*
X0197315Y0102531D01*
X0197486Y0102516D01*
X0197657Y0102497D01*
X0197827Y0102474D01*
X0197997Y0102447D01*
X0198166Y0102415D01*
X0198334Y0102380D01*
X0198501Y0102340D01*
X0198667Y0102296D01*
X0198832Y0102249D01*
X0198996Y0102197D01*
X0199158Y0102141D01*
X0199319Y0102081D01*
X0199479Y0102017D01*
X0199637Y0101949D01*
X0199793Y0101878D01*
X0199947Y0101803D01*
X0200100Y0101723D01*
X0200250Y0101641D01*
X0200399Y0101554D01*
X0200545Y0101464D01*
X0200689Y0101370D01*
X0200831Y0101273D01*
X0200970Y0101172D01*
X0201107Y0101068D01*
X0201241Y0100961D01*
X0201372Y0100850D01*
X0201501Y0100737D01*
X0201627Y0100620D01*
X0201750Y0100500D01*
X0201870Y0100377D01*
X0201987Y0100251D01*
X0202100Y0100122D01*
X0202211Y0099991D01*
X0202318Y0099857D01*
X0202422Y0099720D01*
X0202523Y0099581D01*
X0202620Y0099439D01*
X0202714Y0099295D01*
X0202804Y0099149D01*
X0202891Y0099000D01*
X0202973Y0098850D01*
X0203053Y0098697D01*
X0203128Y0098543D01*
X0203199Y0098387D01*
X0203267Y0098229D01*
X0203331Y0098069D01*
X0203391Y0097908D01*
X0203447Y0097746D01*
X0203499Y0097582D01*
X0203546Y0097417D01*
X0203590Y0097251D01*
X0203630Y0097084D01*
X0203665Y0096916D01*
X0203697Y0096747D01*
X0203724Y0096577D01*
X0203747Y0096407D01*
X0203766Y0096236D01*
X0203781Y0096065D01*
X0203792Y0095893D01*
X0203798Y0095722D01*
X0203800Y0095550D01*
X0203798Y0095378D01*
X0203792Y0095207D01*
X0203781Y0095035D01*
X0203766Y0094864D01*
X0203747Y0094693D01*
X0203724Y0094523D01*
X0203697Y0094353D01*
X0203665Y0094184D01*
X0203630Y0094016D01*
X0203590Y0093849D01*
X0203546Y0093683D01*
X0203499Y0093518D01*
X0203447Y0093354D01*
X0203391Y0093192D01*
X0203331Y0093031D01*
X0203267Y0092871D01*
X0203199Y0092713D01*
X0203128Y0092557D01*
X0203053Y0092403D01*
X0202973Y0092250D01*
X0202891Y0092100D01*
X0202804Y0091951D01*
X0202714Y0091805D01*
X0202620Y0091661D01*
X0202523Y0091519D01*
X0202422Y0091380D01*
X0202318Y0091243D01*
X0202211Y0091109D01*
X0202100Y0090978D01*
X0201987Y0090849D01*
X0201870Y0090723D01*
X0201750Y0090600D01*
X0201627Y0090480D01*
X0201501Y0090363D01*
X0201372Y0090250D01*
X0201241Y0090139D01*
X0201107Y0090032D01*
X0200970Y0089928D01*
X0200831Y0089827D01*
X0200689Y0089730D01*
X0200545Y0089636D01*
X0200399Y0089546D01*
X0200250Y0089459D01*
X0200100Y0089377D01*
X0199947Y0089297D01*
X0199793Y0089222D01*
X0199637Y0089151D01*
X0199479Y0089083D01*
X0199319Y0089019D01*
X0199158Y0088959D01*
X0198996Y0088903D01*
X0198832Y0088851D01*
X0198667Y0088804D01*
X0198501Y0088760D01*
X0198334Y0088720D01*
X0198166Y0088685D01*
X0197997Y0088653D01*
X0197827Y0088626D01*
X0197657Y0088603D01*
X0197486Y0088584D01*
X0197315Y0088569D01*
X0197143Y0088558D01*
X0196972Y0088552D01*
X0196800Y0088550D01*
X0196628Y0088552D01*
X0196457Y0088558D01*
X0196285Y0088569D01*
X0196114Y0088584D01*
X0195943Y0088603D01*
X0195773Y0088626D01*
X0195603Y0088653D01*
X0195434Y0088685D01*
X0195266Y0088720D01*
X0195099Y0088760D01*
X0194933Y0088804D01*
X0194768Y0088851D01*
X0194604Y0088903D01*
X0194442Y0088959D01*
X0194281Y0089019D01*
X0194121Y0089083D01*
X0193963Y0089151D01*
X0193807Y0089222D01*
X0193653Y0089297D01*
X0193500Y0089377D01*
X0193350Y0089459D01*
X0193201Y0089546D01*
X0193055Y0089636D01*
X0192911Y0089730D01*
X0192769Y0089827D01*
X0192630Y0089928D01*
X0192493Y0090032D01*
X0192359Y0090139D01*
X0192228Y0090250D01*
X0192099Y0090363D01*
X0191973Y0090480D01*
X0191850Y0090600D01*
X0191730Y0090723D01*
X0191613Y0090849D01*
X0191500Y0090978D01*
X0191389Y0091109D01*
X0191282Y0091243D01*
X0191178Y0091380D01*
X0191077Y0091519D01*
X0190980Y0091661D01*
X0190886Y0091805D01*
X0190796Y0091951D01*
X0190709Y0092100D01*
X0190627Y0092250D01*
X0190547Y0092403D01*
X0190472Y0092557D01*
X0190401Y0092713D01*
X0190333Y0092871D01*
X0190269Y0093031D01*
X0190209Y0093192D01*
X0190153Y0093354D01*
X0190101Y0093518D01*
X0190054Y0093683D01*
X0190010Y0093849D01*
X0189970Y0094016D01*
X0189935Y0094184D01*
X0189903Y0094353D01*
X0189876Y0094523D01*
X0189853Y0094693D01*
X0189834Y0094864D01*
X0189819Y0095035D01*
X0189808Y0095207D01*
X0189802Y0095378D01*
X0189800Y0095550D01*
X0228300Y0107550D02*
X0245300Y0107550D01*
X0238114Y0110200D02*
X0233977Y0110200D01*
X0238114Y0114337D01*
X0238114Y0115371D01*
X0237080Y0116405D01*
X0235011Y0116405D01*
X0233977Y0115371D01*
X0228300Y0118550D02*
X0245300Y0118550D01*
X0248800Y0126503D02*
X0248800Y0134550D01*
X0229800Y0130550D02*
X0229802Y0130722D01*
X0229808Y0130893D01*
X0229819Y0131065D01*
X0229834Y0131236D01*
X0229853Y0131407D01*
X0229876Y0131577D01*
X0229903Y0131747D01*
X0229935Y0131916D01*
X0229970Y0132084D01*
X0230010Y0132251D01*
X0230054Y0132417D01*
X0230101Y0132582D01*
X0230153Y0132746D01*
X0230209Y0132908D01*
X0230269Y0133069D01*
X0230333Y0133229D01*
X0230401Y0133387D01*
X0230472Y0133543D01*
X0230547Y0133697D01*
X0230627Y0133850D01*
X0230709Y0134000D01*
X0230796Y0134149D01*
X0230886Y0134295D01*
X0230980Y0134439D01*
X0231077Y0134581D01*
X0231178Y0134720D01*
X0231282Y0134857D01*
X0231389Y0134991D01*
X0231500Y0135122D01*
X0231613Y0135251D01*
X0231730Y0135377D01*
X0231850Y0135500D01*
X0231973Y0135620D01*
X0232099Y0135737D01*
X0232228Y0135850D01*
X0232359Y0135961D01*
X0232493Y0136068D01*
X0232630Y0136172D01*
X0232769Y0136273D01*
X0232911Y0136370D01*
X0233055Y0136464D01*
X0233201Y0136554D01*
X0233350Y0136641D01*
X0233500Y0136723D01*
X0233653Y0136803D01*
X0233807Y0136878D01*
X0233963Y0136949D01*
X0234121Y0137017D01*
X0234281Y0137081D01*
X0234442Y0137141D01*
X0234604Y0137197D01*
X0234768Y0137249D01*
X0234933Y0137296D01*
X0235099Y0137340D01*
X0235266Y0137380D01*
X0235434Y0137415D01*
X0235603Y0137447D01*
X0235773Y0137474D01*
X0235943Y0137497D01*
X0236114Y0137516D01*
X0236285Y0137531D01*
X0236457Y0137542D01*
X0236628Y0137548D01*
X0236800Y0137550D01*
X0236972Y0137548D01*
X0237143Y0137542D01*
X0237315Y0137531D01*
X0237486Y0137516D01*
X0237657Y0137497D01*
X0237827Y0137474D01*
X0237997Y0137447D01*
X0238166Y0137415D01*
X0238334Y0137380D01*
X0238501Y0137340D01*
X0238667Y0137296D01*
X0238832Y0137249D01*
X0238996Y0137197D01*
X0239158Y0137141D01*
X0239319Y0137081D01*
X0239479Y0137017D01*
X0239637Y0136949D01*
X0239793Y0136878D01*
X0239947Y0136803D01*
X0240100Y0136723D01*
X0240250Y0136641D01*
X0240399Y0136554D01*
X0240545Y0136464D01*
X0240689Y0136370D01*
X0240831Y0136273D01*
X0240970Y0136172D01*
X0241107Y0136068D01*
X0241241Y0135961D01*
X0241372Y0135850D01*
X0241501Y0135737D01*
X0241627Y0135620D01*
X0241750Y0135500D01*
X0241870Y0135377D01*
X0241987Y0135251D01*
X0242100Y0135122D01*
X0242211Y0134991D01*
X0242318Y0134857D01*
X0242422Y0134720D01*
X0242523Y0134581D01*
X0242620Y0134439D01*
X0242714Y0134295D01*
X0242804Y0134149D01*
X0242891Y0134000D01*
X0242973Y0133850D01*
X0243053Y0133697D01*
X0243128Y0133543D01*
X0243199Y0133387D01*
X0243267Y0133229D01*
X0243331Y0133069D01*
X0243391Y0132908D01*
X0243447Y0132746D01*
X0243499Y0132582D01*
X0243546Y0132417D01*
X0243590Y0132251D01*
X0243630Y0132084D01*
X0243665Y0131916D01*
X0243697Y0131747D01*
X0243724Y0131577D01*
X0243747Y0131407D01*
X0243766Y0131236D01*
X0243781Y0131065D01*
X0243792Y0130893D01*
X0243798Y0130722D01*
X0243800Y0130550D01*
X0243798Y0130378D01*
X0243792Y0130207D01*
X0243781Y0130035D01*
X0243766Y0129864D01*
X0243747Y0129693D01*
X0243724Y0129523D01*
X0243697Y0129353D01*
X0243665Y0129184D01*
X0243630Y0129016D01*
X0243590Y0128849D01*
X0243546Y0128683D01*
X0243499Y0128518D01*
X0243447Y0128354D01*
X0243391Y0128192D01*
X0243331Y0128031D01*
X0243267Y0127871D01*
X0243199Y0127713D01*
X0243128Y0127557D01*
X0243053Y0127403D01*
X0242973Y0127250D01*
X0242891Y0127100D01*
X0242804Y0126951D01*
X0242714Y0126805D01*
X0242620Y0126661D01*
X0242523Y0126519D01*
X0242422Y0126380D01*
X0242318Y0126243D01*
X0242211Y0126109D01*
X0242100Y0125978D01*
X0241987Y0125849D01*
X0241870Y0125723D01*
X0241750Y0125600D01*
X0241627Y0125480D01*
X0241501Y0125363D01*
X0241372Y0125250D01*
X0241241Y0125139D01*
X0241107Y0125032D01*
X0240970Y0124928D01*
X0240831Y0124827D01*
X0240689Y0124730D01*
X0240545Y0124636D01*
X0240399Y0124546D01*
X0240250Y0124459D01*
X0240100Y0124377D01*
X0239947Y0124297D01*
X0239793Y0124222D01*
X0239637Y0124151D01*
X0239479Y0124083D01*
X0239319Y0124019D01*
X0239158Y0123959D01*
X0238996Y0123903D01*
X0238832Y0123851D01*
X0238667Y0123804D01*
X0238501Y0123760D01*
X0238334Y0123720D01*
X0238166Y0123685D01*
X0237997Y0123653D01*
X0237827Y0123626D01*
X0237657Y0123603D01*
X0237486Y0123584D01*
X0237315Y0123569D01*
X0237143Y0123558D01*
X0236972Y0123552D01*
X0236800Y0123550D01*
X0236628Y0123552D01*
X0236457Y0123558D01*
X0236285Y0123569D01*
X0236114Y0123584D01*
X0235943Y0123603D01*
X0235773Y0123626D01*
X0235603Y0123653D01*
X0235434Y0123685D01*
X0235266Y0123720D01*
X0235099Y0123760D01*
X0234933Y0123804D01*
X0234768Y0123851D01*
X0234604Y0123903D01*
X0234442Y0123959D01*
X0234281Y0124019D01*
X0234121Y0124083D01*
X0233963Y0124151D01*
X0233807Y0124222D01*
X0233653Y0124297D01*
X0233500Y0124377D01*
X0233350Y0124459D01*
X0233201Y0124546D01*
X0233055Y0124636D01*
X0232911Y0124730D01*
X0232769Y0124827D01*
X0232630Y0124928D01*
X0232493Y0125032D01*
X0232359Y0125139D01*
X0232228Y0125250D01*
X0232099Y0125363D01*
X0231973Y0125480D01*
X0231850Y0125600D01*
X0231730Y0125723D01*
X0231613Y0125849D01*
X0231500Y0125978D01*
X0231389Y0126109D01*
X0231282Y0126243D01*
X0231178Y0126380D01*
X0231077Y0126519D01*
X0230980Y0126661D01*
X0230886Y0126805D01*
X0230796Y0126951D01*
X0230709Y0127100D01*
X0230627Y0127250D01*
X0230547Y0127403D01*
X0230472Y0127557D01*
X0230401Y0127713D01*
X0230333Y0127871D01*
X0230269Y0128031D01*
X0230209Y0128192D01*
X0230153Y0128354D01*
X0230101Y0128518D01*
X0230054Y0128683D01*
X0230010Y0128849D01*
X0229970Y0129016D01*
X0229935Y0129184D01*
X0229903Y0129353D01*
X0229876Y0129523D01*
X0229853Y0129693D01*
X0229834Y0129864D01*
X0229819Y0130035D01*
X0229808Y0130207D01*
X0229802Y0130378D01*
X0229800Y0130550D01*
X0224800Y0126621D02*
X0224800Y0134550D01*
X0228300Y0142550D02*
X0245300Y0142550D01*
X0264800Y0134550D02*
X0264800Y0126621D01*
X0269800Y0130550D02*
X0269802Y0130722D01*
X0269808Y0130893D01*
X0269819Y0131065D01*
X0269834Y0131236D01*
X0269853Y0131407D01*
X0269876Y0131577D01*
X0269903Y0131747D01*
X0269935Y0131916D01*
X0269970Y0132084D01*
X0270010Y0132251D01*
X0270054Y0132417D01*
X0270101Y0132582D01*
X0270153Y0132746D01*
X0270209Y0132908D01*
X0270269Y0133069D01*
X0270333Y0133229D01*
X0270401Y0133387D01*
X0270472Y0133543D01*
X0270547Y0133697D01*
X0270627Y0133850D01*
X0270709Y0134000D01*
X0270796Y0134149D01*
X0270886Y0134295D01*
X0270980Y0134439D01*
X0271077Y0134581D01*
X0271178Y0134720D01*
X0271282Y0134857D01*
X0271389Y0134991D01*
X0271500Y0135122D01*
X0271613Y0135251D01*
X0271730Y0135377D01*
X0271850Y0135500D01*
X0271973Y0135620D01*
X0272099Y0135737D01*
X0272228Y0135850D01*
X0272359Y0135961D01*
X0272493Y0136068D01*
X0272630Y0136172D01*
X0272769Y0136273D01*
X0272911Y0136370D01*
X0273055Y0136464D01*
X0273201Y0136554D01*
X0273350Y0136641D01*
X0273500Y0136723D01*
X0273653Y0136803D01*
X0273807Y0136878D01*
X0273963Y0136949D01*
X0274121Y0137017D01*
X0274281Y0137081D01*
X0274442Y0137141D01*
X0274604Y0137197D01*
X0274768Y0137249D01*
X0274933Y0137296D01*
X0275099Y0137340D01*
X0275266Y0137380D01*
X0275434Y0137415D01*
X0275603Y0137447D01*
X0275773Y0137474D01*
X0275943Y0137497D01*
X0276114Y0137516D01*
X0276285Y0137531D01*
X0276457Y0137542D01*
X0276628Y0137548D01*
X0276800Y0137550D01*
X0276972Y0137548D01*
X0277143Y0137542D01*
X0277315Y0137531D01*
X0277486Y0137516D01*
X0277657Y0137497D01*
X0277827Y0137474D01*
X0277997Y0137447D01*
X0278166Y0137415D01*
X0278334Y0137380D01*
X0278501Y0137340D01*
X0278667Y0137296D01*
X0278832Y0137249D01*
X0278996Y0137197D01*
X0279158Y0137141D01*
X0279319Y0137081D01*
X0279479Y0137017D01*
X0279637Y0136949D01*
X0279793Y0136878D01*
X0279947Y0136803D01*
X0280100Y0136723D01*
X0280250Y0136641D01*
X0280399Y0136554D01*
X0280545Y0136464D01*
X0280689Y0136370D01*
X0280831Y0136273D01*
X0280970Y0136172D01*
X0281107Y0136068D01*
X0281241Y0135961D01*
X0281372Y0135850D01*
X0281501Y0135737D01*
X0281627Y0135620D01*
X0281750Y0135500D01*
X0281870Y0135377D01*
X0281987Y0135251D01*
X0282100Y0135122D01*
X0282211Y0134991D01*
X0282318Y0134857D01*
X0282422Y0134720D01*
X0282523Y0134581D01*
X0282620Y0134439D01*
X0282714Y0134295D01*
X0282804Y0134149D01*
X0282891Y0134000D01*
X0282973Y0133850D01*
X0283053Y0133697D01*
X0283128Y0133543D01*
X0283199Y0133387D01*
X0283267Y0133229D01*
X0283331Y0133069D01*
X0283391Y0132908D01*
X0283447Y0132746D01*
X0283499Y0132582D01*
X0283546Y0132417D01*
X0283590Y0132251D01*
X0283630Y0132084D01*
X0283665Y0131916D01*
X0283697Y0131747D01*
X0283724Y0131577D01*
X0283747Y0131407D01*
X0283766Y0131236D01*
X0283781Y0131065D01*
X0283792Y0130893D01*
X0283798Y0130722D01*
X0283800Y0130550D01*
X0283798Y0130378D01*
X0283792Y0130207D01*
X0283781Y0130035D01*
X0283766Y0129864D01*
X0283747Y0129693D01*
X0283724Y0129523D01*
X0283697Y0129353D01*
X0283665Y0129184D01*
X0283630Y0129016D01*
X0283590Y0128849D01*
X0283546Y0128683D01*
X0283499Y0128518D01*
X0283447Y0128354D01*
X0283391Y0128192D01*
X0283331Y0128031D01*
X0283267Y0127871D01*
X0283199Y0127713D01*
X0283128Y0127557D01*
X0283053Y0127403D01*
X0282973Y0127250D01*
X0282891Y0127100D01*
X0282804Y0126951D01*
X0282714Y0126805D01*
X0282620Y0126661D01*
X0282523Y0126519D01*
X0282422Y0126380D01*
X0282318Y0126243D01*
X0282211Y0126109D01*
X0282100Y0125978D01*
X0281987Y0125849D01*
X0281870Y0125723D01*
X0281750Y0125600D01*
X0281627Y0125480D01*
X0281501Y0125363D01*
X0281372Y0125250D01*
X0281241Y0125139D01*
X0281107Y0125032D01*
X0280970Y0124928D01*
X0280831Y0124827D01*
X0280689Y0124730D01*
X0280545Y0124636D01*
X0280399Y0124546D01*
X0280250Y0124459D01*
X0280100Y0124377D01*
X0279947Y0124297D01*
X0279793Y0124222D01*
X0279637Y0124151D01*
X0279479Y0124083D01*
X0279319Y0124019D01*
X0279158Y0123959D01*
X0278996Y0123903D01*
X0278832Y0123851D01*
X0278667Y0123804D01*
X0278501Y0123760D01*
X0278334Y0123720D01*
X0278166Y0123685D01*
X0277997Y0123653D01*
X0277827Y0123626D01*
X0277657Y0123603D01*
X0277486Y0123584D01*
X0277315Y0123569D01*
X0277143Y0123558D01*
X0276972Y0123552D01*
X0276800Y0123550D01*
X0276628Y0123552D01*
X0276457Y0123558D01*
X0276285Y0123569D01*
X0276114Y0123584D01*
X0275943Y0123603D01*
X0275773Y0123626D01*
X0275603Y0123653D01*
X0275434Y0123685D01*
X0275266Y0123720D01*
X0275099Y0123760D01*
X0274933Y0123804D01*
X0274768Y0123851D01*
X0274604Y0123903D01*
X0274442Y0123959D01*
X0274281Y0124019D01*
X0274121Y0124083D01*
X0273963Y0124151D01*
X0273807Y0124222D01*
X0273653Y0124297D01*
X0273500Y0124377D01*
X0273350Y0124459D01*
X0273201Y0124546D01*
X0273055Y0124636D01*
X0272911Y0124730D01*
X0272769Y0124827D01*
X0272630Y0124928D01*
X0272493Y0125032D01*
X0272359Y0125139D01*
X0272228Y0125250D01*
X0272099Y0125363D01*
X0271973Y0125480D01*
X0271850Y0125600D01*
X0271730Y0125723D01*
X0271613Y0125849D01*
X0271500Y0125978D01*
X0271389Y0126109D01*
X0271282Y0126243D01*
X0271178Y0126380D01*
X0271077Y0126519D01*
X0270980Y0126661D01*
X0270886Y0126805D01*
X0270796Y0126951D01*
X0270709Y0127100D01*
X0270627Y0127250D01*
X0270547Y0127403D01*
X0270472Y0127557D01*
X0270401Y0127713D01*
X0270333Y0127871D01*
X0270269Y0128031D01*
X0270209Y0128192D01*
X0270153Y0128354D01*
X0270101Y0128518D01*
X0270054Y0128683D01*
X0270010Y0128849D01*
X0269970Y0129016D01*
X0269935Y0129184D01*
X0269903Y0129353D01*
X0269876Y0129523D01*
X0269853Y0129693D01*
X0269834Y0129864D01*
X0269819Y0130035D01*
X0269808Y0130207D01*
X0269802Y0130378D01*
X0269800Y0130550D01*
X0288800Y0134550D02*
X0288800Y0126503D01*
X0285300Y0118550D02*
X0268300Y0118550D01*
X0273977Y0115371D02*
X0275011Y0116405D01*
X0277080Y0116405D01*
X0278114Y0115371D01*
X0278114Y0114337D01*
X0277080Y0113303D01*
X0278114Y0112268D01*
X0278114Y0111234D01*
X0277080Y0110200D01*
X0275011Y0110200D01*
X0273977Y0111234D01*
X0276046Y0113303D02*
X0277080Y0113303D01*
X0285300Y0107550D02*
X0268300Y0107550D01*
X0268300Y0142550D02*
X0285300Y0142550D01*
X0298926Y0146800D02*
X0298928Y0146993D01*
X0298935Y0147186D01*
X0298947Y0147379D01*
X0298964Y0147572D01*
X0298985Y0147764D01*
X0299011Y0147955D01*
X0299042Y0148146D01*
X0299077Y0148336D01*
X0299117Y0148525D01*
X0299162Y0148713D01*
X0299211Y0148900D01*
X0299265Y0149086D01*
X0299323Y0149270D01*
X0299386Y0149453D01*
X0299454Y0149634D01*
X0299525Y0149813D01*
X0299602Y0149991D01*
X0299682Y0150167D01*
X0299767Y0150340D01*
X0299856Y0150512D01*
X0299949Y0150681D01*
X0300046Y0150848D01*
X0300148Y0151013D01*
X0300253Y0151175D01*
X0300362Y0151334D01*
X0300476Y0151491D01*
X0300593Y0151644D01*
X0300713Y0151795D01*
X0300838Y0151943D01*
X0300966Y0152088D01*
X0301097Y0152229D01*
X0301232Y0152368D01*
X0301371Y0152503D01*
X0301512Y0152634D01*
X0301657Y0152762D01*
X0301805Y0152887D01*
X0301956Y0153007D01*
X0302109Y0153124D01*
X0302266Y0153238D01*
X0302425Y0153347D01*
X0302587Y0153452D01*
X0302752Y0153554D01*
X0302919Y0153651D01*
X0303088Y0153744D01*
X0303260Y0153833D01*
X0303433Y0153918D01*
X0303609Y0153998D01*
X0303787Y0154075D01*
X0303966Y0154146D01*
X0304147Y0154214D01*
X0304330Y0154277D01*
X0304514Y0154335D01*
X0304700Y0154389D01*
X0304887Y0154438D01*
X0305075Y0154483D01*
X0305264Y0154523D01*
X0305454Y0154558D01*
X0305645Y0154589D01*
X0305836Y0154615D01*
X0306028Y0154636D01*
X0306221Y0154653D01*
X0306414Y0154665D01*
X0306607Y0154672D01*
X0306800Y0154674D01*
X0306993Y0154672D01*
X0307186Y0154665D01*
X0307379Y0154653D01*
X0307572Y0154636D01*
X0307764Y0154615D01*
X0307955Y0154589D01*
X0308146Y0154558D01*
X0308336Y0154523D01*
X0308525Y0154483D01*
X0308713Y0154438D01*
X0308900Y0154389D01*
X0309086Y0154335D01*
X0309270Y0154277D01*
X0309453Y0154214D01*
X0309634Y0154146D01*
X0309813Y0154075D01*
X0309991Y0153998D01*
X0310167Y0153918D01*
X0310340Y0153833D01*
X0310512Y0153744D01*
X0310681Y0153651D01*
X0310848Y0153554D01*
X0311013Y0153452D01*
X0311175Y0153347D01*
X0311334Y0153238D01*
X0311491Y0153124D01*
X0311644Y0153007D01*
X0311795Y0152887D01*
X0311943Y0152762D01*
X0312088Y0152634D01*
X0312229Y0152503D01*
X0312368Y0152368D01*
X0312503Y0152229D01*
X0312634Y0152088D01*
X0312762Y0151943D01*
X0312887Y0151795D01*
X0313007Y0151644D01*
X0313124Y0151491D01*
X0313238Y0151334D01*
X0313347Y0151175D01*
X0313452Y0151013D01*
X0313554Y0150848D01*
X0313651Y0150681D01*
X0313744Y0150512D01*
X0313833Y0150340D01*
X0313918Y0150167D01*
X0313998Y0149991D01*
X0314075Y0149813D01*
X0314146Y0149634D01*
X0314214Y0149453D01*
X0314277Y0149270D01*
X0314335Y0149086D01*
X0314389Y0148900D01*
X0314438Y0148713D01*
X0314483Y0148525D01*
X0314523Y0148336D01*
X0314558Y0148146D01*
X0314589Y0147955D01*
X0314615Y0147764D01*
X0314636Y0147572D01*
X0314653Y0147379D01*
X0314665Y0147186D01*
X0314672Y0146993D01*
X0314674Y0146800D01*
X0314672Y0146607D01*
X0314665Y0146414D01*
X0314653Y0146221D01*
X0314636Y0146028D01*
X0314615Y0145836D01*
X0314589Y0145645D01*
X0314558Y0145454D01*
X0314523Y0145264D01*
X0314483Y0145075D01*
X0314438Y0144887D01*
X0314389Y0144700D01*
X0314335Y0144514D01*
X0314277Y0144330D01*
X0314214Y0144147D01*
X0314146Y0143966D01*
X0314075Y0143787D01*
X0313998Y0143609D01*
X0313918Y0143433D01*
X0313833Y0143260D01*
X0313744Y0143088D01*
X0313651Y0142919D01*
X0313554Y0142752D01*
X0313452Y0142587D01*
X0313347Y0142425D01*
X0313238Y0142266D01*
X0313124Y0142109D01*
X0313007Y0141956D01*
X0312887Y0141805D01*
X0312762Y0141657D01*
X0312634Y0141512D01*
X0312503Y0141371D01*
X0312368Y0141232D01*
X0312229Y0141097D01*
X0312088Y0140966D01*
X0311943Y0140838D01*
X0311795Y0140713D01*
X0311644Y0140593D01*
X0311491Y0140476D01*
X0311334Y0140362D01*
X0311175Y0140253D01*
X0311013Y0140148D01*
X0310848Y0140046D01*
X0310681Y0139949D01*
X0310512Y0139856D01*
X0310340Y0139767D01*
X0310167Y0139682D01*
X0309991Y0139602D01*
X0309813Y0139525D01*
X0309634Y0139454D01*
X0309453Y0139386D01*
X0309270Y0139323D01*
X0309086Y0139265D01*
X0308900Y0139211D01*
X0308713Y0139162D01*
X0308525Y0139117D01*
X0308336Y0139077D01*
X0308146Y0139042D01*
X0307955Y0139011D01*
X0307764Y0138985D01*
X0307572Y0138964D01*
X0307379Y0138947D01*
X0307186Y0138935D01*
X0306993Y0138928D01*
X0306800Y0138926D01*
X0306607Y0138928D01*
X0306414Y0138935D01*
X0306221Y0138947D01*
X0306028Y0138964D01*
X0305836Y0138985D01*
X0305645Y0139011D01*
X0305454Y0139042D01*
X0305264Y0139077D01*
X0305075Y0139117D01*
X0304887Y0139162D01*
X0304700Y0139211D01*
X0304514Y0139265D01*
X0304330Y0139323D01*
X0304147Y0139386D01*
X0303966Y0139454D01*
X0303787Y0139525D01*
X0303609Y0139602D01*
X0303433Y0139682D01*
X0303260Y0139767D01*
X0303088Y0139856D01*
X0302919Y0139949D01*
X0302752Y0140046D01*
X0302587Y0140148D01*
X0302425Y0140253D01*
X0302266Y0140362D01*
X0302109Y0140476D01*
X0301956Y0140593D01*
X0301805Y0140713D01*
X0301657Y0140838D01*
X0301512Y0140966D01*
X0301371Y0141097D01*
X0301232Y0141232D01*
X0301097Y0141371D01*
X0300966Y0141512D01*
X0300838Y0141657D01*
X0300713Y0141805D01*
X0300593Y0141956D01*
X0300476Y0142109D01*
X0300362Y0142266D01*
X0300253Y0142425D01*
X0300148Y0142587D01*
X0300046Y0142752D01*
X0299949Y0142919D01*
X0299856Y0143088D01*
X0299767Y0143260D01*
X0299682Y0143433D01*
X0299602Y0143609D01*
X0299525Y0143787D01*
X0299454Y0143966D01*
X0299386Y0144147D01*
X0299323Y0144330D01*
X0299265Y0144514D01*
X0299211Y0144700D01*
X0299162Y0144887D01*
X0299117Y0145075D01*
X0299077Y0145264D01*
X0299042Y0145454D01*
X0299011Y0145645D01*
X0298985Y0145836D01*
X0298964Y0146028D01*
X0298947Y0146221D01*
X0298935Y0146414D01*
X0298928Y0146607D01*
X0298926Y0146800D01*
X0205300Y0142550D02*
X0188300Y0142550D01*
D14*
X0020353Y0096954D02*
X0020353Y0092150D01*
X0017150Y0096954D01*
X0017150Y0092150D01*
X0015288Y0092951D02*
X0015288Y0096153D01*
X0014488Y0096954D01*
X0012886Y0096954D01*
X0012086Y0096153D01*
X0012086Y0092951D01*
X0012886Y0092150D01*
X0014488Y0092150D01*
X0015288Y0092951D01*
M02*
