G75*
%MOIN*%
%OFA0B0*%
%FSLAX25Y25*%
%IPPOS*%
%LPD*%
%AMOC8*
5,1,8,0,0,1.08239X$1,22.5*
%
%ADD10C,0.00500*%
%ADD11C,0.00400*%
%ADD12C,0.01000*%
%ADD13C,0.00600*%
%ADD14C,0.00800*%
D10*
X0035281Y0016300D02*
X0036449Y0016300D01*
X0035865Y0016300D02*
X0035865Y0019803D01*
X0036449Y0019803D01*
X0038320Y0019803D02*
X0038320Y0016300D01*
X0037737Y0016300D02*
X0038904Y0016300D01*
X0040252Y0017468D02*
X0042587Y0017468D01*
X0042587Y0018051D02*
X0042587Y0016884D01*
X0042003Y0016300D01*
X0040836Y0016300D01*
X0040252Y0017468D02*
X0040252Y0018051D01*
X0040836Y0018635D01*
X0042003Y0018635D01*
X0042587Y0018051D01*
X0043935Y0016884D02*
X0044519Y0016300D01*
X0045687Y0016300D01*
X0046270Y0016884D01*
X0046270Y0019219D01*
X0045687Y0019803D01*
X0044519Y0019803D01*
X0043935Y0019219D01*
X0038904Y0019803D02*
X0038320Y0019803D01*
X0051301Y0018051D02*
X0051301Y0016884D01*
X0051885Y0016300D01*
X0053053Y0016300D01*
X0053637Y0016884D01*
X0053637Y0018051D01*
X0053053Y0018635D01*
X0051885Y0018635D01*
X0051301Y0018051D01*
X0054985Y0018051D02*
X0055568Y0017468D01*
X0057320Y0017468D01*
X0057320Y0016300D02*
X0057320Y0019803D01*
X0055568Y0019803D01*
X0054985Y0019219D01*
X0054985Y0018051D01*
X0058608Y0016300D02*
X0059775Y0016300D01*
X0059191Y0016300D02*
X0059191Y0018635D01*
X0059775Y0018635D01*
X0059191Y0019803D02*
X0059191Y0020387D01*
X0063458Y0019803D02*
X0063458Y0016300D01*
X0061123Y0016300D01*
X0068489Y0016884D02*
X0069073Y0016300D01*
X0070241Y0016300D01*
X0070825Y0016884D01*
X0070825Y0018051D02*
X0069657Y0018635D01*
X0069073Y0018635D01*
X0068489Y0018051D01*
X0068489Y0016884D01*
X0070825Y0018051D02*
X0070825Y0019803D01*
X0068489Y0019803D01*
X0072173Y0019219D02*
X0072756Y0019803D01*
X0073924Y0019803D01*
X0074508Y0019219D01*
X0075856Y0019219D02*
X0078191Y0016884D01*
X0077607Y0016300D01*
X0076440Y0016300D01*
X0075856Y0016884D01*
X0075856Y0019219D01*
X0076440Y0019803D01*
X0077607Y0019803D01*
X0078191Y0019219D01*
X0078191Y0016884D01*
X0079539Y0016300D02*
X0081874Y0016300D01*
X0079539Y0018635D01*
X0079539Y0019219D01*
X0080123Y0019803D01*
X0081290Y0019803D01*
X0081874Y0019219D01*
X0083222Y0019219D02*
X0085557Y0016884D01*
X0084973Y0016300D01*
X0083806Y0016300D01*
X0083222Y0016884D01*
X0083222Y0019219D01*
X0083806Y0019803D01*
X0084973Y0019803D01*
X0085557Y0019219D01*
X0085557Y0016884D01*
X0086905Y0018051D02*
X0089240Y0018051D01*
X0087489Y0019803D01*
X0087489Y0016300D01*
X0090588Y0018051D02*
X0091172Y0017468D01*
X0092924Y0017468D01*
X0092924Y0016300D02*
X0092924Y0019803D01*
X0091172Y0019803D01*
X0090588Y0019219D01*
X0090588Y0018051D01*
X0094271Y0016300D02*
X0096607Y0016300D01*
X0096607Y0019803D01*
X0074508Y0016300D02*
X0072173Y0018635D01*
X0072173Y0019219D01*
X0072173Y0016300D02*
X0074508Y0016300D01*
X0131085Y0075050D02*
X0132253Y0075050D01*
X0131669Y0075050D02*
X0131669Y0078553D01*
X0132253Y0078553D02*
X0131085Y0078553D01*
X0133601Y0077969D02*
X0134185Y0078553D01*
X0135936Y0078553D01*
X0135936Y0075050D01*
X0134185Y0075050D01*
X0133601Y0075634D01*
X0133601Y0077969D01*
X0137284Y0077969D02*
X0137284Y0076801D01*
X0137868Y0076218D01*
X0139619Y0076218D01*
X0139619Y0075050D02*
X0139619Y0078553D01*
X0137868Y0078553D01*
X0137284Y0077969D01*
X0140967Y0078553D02*
X0140967Y0075634D01*
X0141551Y0075050D01*
X0142719Y0075050D01*
X0143302Y0075634D01*
X0143302Y0078553D01*
D11*
X0049268Y0147799D02*
X0048417Y0147799D01*
X0047566Y0148649D01*
X0047566Y0152903D01*
X0050118Y0152903D01*
X0050969Y0152052D01*
X0050969Y0150351D01*
X0050118Y0149500D01*
X0047566Y0149500D01*
X0045905Y0150351D02*
X0045054Y0149500D01*
X0042502Y0149500D01*
X0042502Y0148649D02*
X0043352Y0147799D01*
X0044203Y0147799D01*
X0042502Y0148649D02*
X0042502Y0152903D01*
X0045905Y0152903D02*
X0045905Y0150351D01*
X0052630Y0150351D02*
X0052630Y0152052D01*
X0053481Y0152903D01*
X0055183Y0152903D01*
X0056033Y0152052D01*
X0056033Y0150351D01*
X0055183Y0149500D01*
X0053481Y0149500D01*
X0052630Y0150351D01*
X0057708Y0149500D02*
X0059409Y0149500D01*
X0058559Y0149500D02*
X0058559Y0154604D01*
X0059409Y0154604D01*
X0061922Y0152903D02*
X0064474Y0152903D01*
X0064474Y0154604D02*
X0064474Y0149500D01*
X0061922Y0149500D01*
X0061071Y0150351D01*
X0061071Y0152052D01*
X0061922Y0152903D01*
X0066135Y0152052D02*
X0066986Y0152903D01*
X0068687Y0152903D01*
X0069538Y0152052D01*
X0069538Y0150351D01*
X0068687Y0149500D01*
X0066986Y0149500D01*
X0066135Y0150351D01*
X0066135Y0152052D01*
X0071200Y0152052D02*
X0071200Y0149500D01*
X0071200Y0152052D02*
X0072050Y0152903D01*
X0074602Y0152903D01*
X0074602Y0149500D01*
X0076264Y0149500D02*
X0076264Y0152052D01*
X0077115Y0152903D01*
X0078816Y0152903D01*
X0079667Y0152052D01*
X0081328Y0152903D02*
X0083880Y0152903D01*
X0084731Y0152052D01*
X0084731Y0150351D01*
X0083880Y0149500D01*
X0081328Y0149500D01*
X0079667Y0149500D02*
X0079667Y0154604D01*
X0086393Y0152052D02*
X0086393Y0151201D01*
X0089795Y0151201D01*
X0089795Y0150351D02*
X0089795Y0152052D01*
X0088945Y0152903D01*
X0087243Y0152903D01*
X0086393Y0152052D01*
X0087243Y0149500D02*
X0088945Y0149500D01*
X0089795Y0150351D01*
X0093158Y0149500D02*
X0093158Y0154604D01*
X0091457Y0154604D02*
X0094860Y0154604D01*
D12*
X0026800Y0111800D02*
X0026800Y0011800D01*
X0104300Y0011800D01*
X0104300Y0111800D01*
X0026800Y0111800D01*
D13*
X0125619Y0129438D02*
X0127981Y0129438D01*
X0127981Y0134162D02*
X0125619Y0134162D01*
X0139369Y0134162D02*
X0141731Y0134162D01*
X0141731Y0129438D02*
X0139369Y0129438D01*
X0194438Y0129369D02*
X0194438Y0131731D01*
X0199162Y0131731D02*
X0199162Y0129369D01*
X0234438Y0129369D02*
X0234438Y0131731D01*
X0239162Y0131731D02*
X0239162Y0129369D01*
X0237981Y0115412D02*
X0235619Y0115412D01*
X0235619Y0110688D02*
X0237981Y0110688D01*
X0239162Y0096731D02*
X0239162Y0094369D01*
X0234438Y0094369D02*
X0234438Y0096731D01*
X0275619Y0110688D02*
X0277981Y0110688D01*
X0277981Y0115412D02*
X0275619Y0115412D01*
X0239162Y0061731D02*
X0239162Y0059369D01*
X0234438Y0059369D02*
X0234438Y0061731D01*
X0150481Y0081938D02*
X0148119Y0081938D01*
X0148119Y0086662D02*
X0150481Y0086662D01*
D14*
X0167272Y0098769D02*
X0126328Y0098769D01*
X0126328Y0119831D01*
X0167272Y0119831D01*
X0167272Y0098769D01*
X0169800Y0109300D02*
X0173800Y0109300D01*
X0128357Y0116977D02*
X0128359Y0117062D01*
X0128365Y0117146D01*
X0128375Y0117231D01*
X0128389Y0117314D01*
X0128406Y0117397D01*
X0128428Y0117479D01*
X0128454Y0117560D01*
X0128483Y0117640D01*
X0128516Y0117718D01*
X0128552Y0117794D01*
X0128592Y0117869D01*
X0128636Y0117942D01*
X0128683Y0118013D01*
X0128733Y0118081D01*
X0128786Y0118147D01*
X0128843Y0118210D01*
X0128902Y0118271D01*
X0128964Y0118329D01*
X0129029Y0118384D01*
X0129096Y0118436D01*
X0129165Y0118484D01*
X0129237Y0118529D01*
X0129311Y0118571D01*
X0129387Y0118609D01*
X0129464Y0118644D01*
X0129543Y0118675D01*
X0129623Y0118703D01*
X0129705Y0118726D01*
X0129787Y0118746D01*
X0129870Y0118762D01*
X0129954Y0118774D01*
X0130039Y0118782D01*
X0130124Y0118786D01*
X0130208Y0118786D01*
X0130293Y0118782D01*
X0130378Y0118774D01*
X0130462Y0118762D01*
X0130545Y0118746D01*
X0130627Y0118726D01*
X0130709Y0118703D01*
X0130789Y0118675D01*
X0130868Y0118644D01*
X0130945Y0118609D01*
X0131021Y0118571D01*
X0131095Y0118529D01*
X0131167Y0118484D01*
X0131236Y0118436D01*
X0131303Y0118384D01*
X0131368Y0118329D01*
X0131430Y0118271D01*
X0131489Y0118210D01*
X0131546Y0118147D01*
X0131599Y0118081D01*
X0131649Y0118013D01*
X0131696Y0117942D01*
X0131740Y0117869D01*
X0131780Y0117794D01*
X0131816Y0117718D01*
X0131849Y0117640D01*
X0131878Y0117560D01*
X0131904Y0117479D01*
X0131926Y0117397D01*
X0131943Y0117314D01*
X0131957Y0117231D01*
X0131967Y0117146D01*
X0131973Y0117062D01*
X0131975Y0116977D01*
X0131973Y0116892D01*
X0131967Y0116808D01*
X0131957Y0116723D01*
X0131943Y0116640D01*
X0131926Y0116557D01*
X0131904Y0116475D01*
X0131878Y0116394D01*
X0131849Y0116314D01*
X0131816Y0116236D01*
X0131780Y0116160D01*
X0131740Y0116085D01*
X0131696Y0116012D01*
X0131649Y0115941D01*
X0131599Y0115873D01*
X0131546Y0115807D01*
X0131489Y0115744D01*
X0131430Y0115683D01*
X0131368Y0115625D01*
X0131303Y0115570D01*
X0131236Y0115518D01*
X0131167Y0115470D01*
X0131095Y0115425D01*
X0131021Y0115383D01*
X0130945Y0115345D01*
X0130868Y0115310D01*
X0130789Y0115279D01*
X0130709Y0115251D01*
X0130627Y0115228D01*
X0130545Y0115208D01*
X0130462Y0115192D01*
X0130378Y0115180D01*
X0130293Y0115172D01*
X0130208Y0115168D01*
X0130124Y0115168D01*
X0130039Y0115172D01*
X0129954Y0115180D01*
X0129870Y0115192D01*
X0129787Y0115208D01*
X0129705Y0115228D01*
X0129623Y0115251D01*
X0129543Y0115279D01*
X0129464Y0115310D01*
X0129387Y0115345D01*
X0129311Y0115383D01*
X0129237Y0115425D01*
X0129165Y0115470D01*
X0129096Y0115518D01*
X0129029Y0115570D01*
X0128964Y0115625D01*
X0128902Y0115683D01*
X0128843Y0115744D01*
X0128786Y0115807D01*
X0128733Y0115873D01*
X0128683Y0115941D01*
X0128636Y0116012D01*
X0128592Y0116085D01*
X0128552Y0116160D01*
X0128516Y0116236D01*
X0128483Y0116314D01*
X0128454Y0116394D01*
X0128428Y0116475D01*
X0128406Y0116557D01*
X0128389Y0116640D01*
X0128375Y0116723D01*
X0128365Y0116808D01*
X0128359Y0116892D01*
X0128357Y0116977D01*
X0113050Y0108800D02*
X0113050Y0104800D01*
X0114625Y0098434D02*
X0111475Y0098434D01*
X0106554Y0097450D02*
X0106554Y0091150D01*
X0113050Y0083800D02*
X0113050Y0079800D01*
X0119546Y0091150D02*
X0119546Y0097450D01*
X0114800Y0136550D02*
X0114800Y0139550D01*
X0114800Y0136550D02*
X0148300Y0136550D01*
X0158800Y0136550D01*
X0158800Y0139550D01*
X0154300Y0139550D02*
X0154155Y0139391D01*
X0154007Y0139236D01*
X0153855Y0139084D01*
X0153699Y0138936D01*
X0153540Y0138792D01*
X0153378Y0138651D01*
X0153212Y0138515D01*
X0153043Y0138382D01*
X0152871Y0138253D01*
X0152696Y0138129D01*
X0152518Y0138009D01*
X0152338Y0137893D01*
X0152154Y0137781D01*
X0151968Y0137674D01*
X0151780Y0137571D01*
X0151589Y0137472D01*
X0151396Y0137379D01*
X0151200Y0137290D01*
X0151003Y0137205D01*
X0150803Y0137125D01*
X0150602Y0137050D01*
X0150399Y0136980D01*
X0150194Y0136915D01*
X0149988Y0136854D01*
X0149781Y0136799D01*
X0149572Y0136748D01*
X0149362Y0136703D01*
X0149151Y0136662D01*
X0148940Y0136627D01*
X0148727Y0136596D01*
X0148514Y0136571D01*
X0148300Y0136550D01*
X0154300Y0151550D02*
X0154155Y0151709D01*
X0154007Y0151864D01*
X0153855Y0152016D01*
X0153699Y0152164D01*
X0153540Y0152308D01*
X0153378Y0152449D01*
X0153212Y0152585D01*
X0153043Y0152718D01*
X0152871Y0152847D01*
X0152696Y0152971D01*
X0152518Y0153091D01*
X0152338Y0153207D01*
X0152154Y0153319D01*
X0151968Y0153426D01*
X0151780Y0153529D01*
X0151589Y0153628D01*
X0151396Y0153721D01*
X0151200Y0153810D01*
X0151003Y0153895D01*
X0150803Y0153975D01*
X0150602Y0154050D01*
X0150399Y0154120D01*
X0150194Y0154185D01*
X0149988Y0154246D01*
X0149781Y0154301D01*
X0149572Y0154352D01*
X0149362Y0154397D01*
X0149151Y0154438D01*
X0148940Y0154473D01*
X0148727Y0154504D01*
X0148514Y0154529D01*
X0148300Y0154550D01*
X0158800Y0154550D02*
X0158800Y0151550D01*
X0158800Y0154550D02*
X0125300Y0154550D01*
X0114800Y0154550D01*
X0114800Y0151550D01*
X0103800Y0149300D02*
X0099800Y0149300D01*
X0119300Y0139550D02*
X0119445Y0139391D01*
X0119593Y0139236D01*
X0119745Y0139084D01*
X0119901Y0138936D01*
X0120060Y0138792D01*
X0120222Y0138651D01*
X0120388Y0138515D01*
X0120557Y0138382D01*
X0120729Y0138253D01*
X0120904Y0138129D01*
X0121082Y0138009D01*
X0121262Y0137893D01*
X0121446Y0137781D01*
X0121632Y0137674D01*
X0121820Y0137571D01*
X0122011Y0137472D01*
X0122204Y0137379D01*
X0122400Y0137290D01*
X0122597Y0137205D01*
X0122797Y0137125D01*
X0122998Y0137050D01*
X0123201Y0136980D01*
X0123406Y0136915D01*
X0123612Y0136854D01*
X0123819Y0136799D01*
X0124028Y0136748D01*
X0124238Y0136703D01*
X0124449Y0136662D01*
X0124660Y0136627D01*
X0124873Y0136596D01*
X0125086Y0136571D01*
X0125300Y0136550D01*
X0119300Y0151550D02*
X0119445Y0151709D01*
X0119593Y0151864D01*
X0119745Y0152016D01*
X0119901Y0152164D01*
X0120060Y0152308D01*
X0120222Y0152449D01*
X0120388Y0152585D01*
X0120557Y0152718D01*
X0120729Y0152847D01*
X0120904Y0152971D01*
X0121082Y0153091D01*
X0121262Y0153207D01*
X0121446Y0153319D01*
X0121632Y0153426D01*
X0121820Y0153529D01*
X0122011Y0153628D01*
X0122204Y0153721D01*
X0122400Y0153810D01*
X0122597Y0153895D01*
X0122797Y0153975D01*
X0122998Y0154050D01*
X0123201Y0154120D01*
X0123406Y0154185D01*
X0123612Y0154246D01*
X0123819Y0154301D01*
X0124028Y0154352D01*
X0124238Y0154397D01*
X0124449Y0154438D01*
X0124660Y0154473D01*
X0124873Y0154504D01*
X0125086Y0154529D01*
X0125300Y0154550D01*
X0169800Y0149300D02*
X0173800Y0149300D01*
X0025658Y0093414D02*
X0007942Y0093414D01*
X0007942Y0085737D01*
X0009910Y0085737D01*
X0009910Y0077863D01*
X0007942Y0077863D01*
X0007942Y0070186D01*
X0025658Y0070186D01*
X0025658Y0093414D01*
M02*
