%
M48
M72
T01C0.0197
T02C0.0276
T03C0.0394
T04C0.0400
T05C0.0900
T06C0.0984
%
T01
X12680Y4180
X14430Y11430
X14805Y11680
X13930Y11680
X12555Y12430
X16055Y13180
X8555Y11555
X8180Y12430
X7555Y13180
T02
X1463Y8574
X1463Y7786
T03
X1930Y6180
X1930Y5180
X1930Y4180
X3180Y12180
X3180Y13180
X3180Y14180
X3180Y15180
T04
X1680Y12750
X1680Y11680
X1680Y10610
X12680Y7130
X13680Y7130
X14680Y7130
X13680Y8430
X18400Y8665
X20960Y8665
X22400Y8665
X24960Y8665
X26400Y8665
X28960Y8665
X28960Y6945
X26400Y6945
X24960Y6945
X22400Y6945
X20960Y6945
X18400Y6945
X18400Y5165
X20960Y5165
X22400Y5165
X24960Y5165
X26400Y5165
X28960Y5165
X28960Y3445
X26400Y3445
X24960Y3445
X22400Y3445
X20960Y3445
X18400Y3445
X18400Y1665
X20960Y1665
X22400Y1665
X24960Y1665
X26400Y1665
X28960Y1665
X14680Y1430
X12680Y1430
X18400Y10445
X20960Y10445
X22400Y10445
X24960Y10445
X26400Y10445
X28960Y10445
X28960Y12165
X26400Y12165
X24960Y12165
X22400Y12165
X20960Y12165
X18400Y12165
X18400Y13945
X20960Y13945
X22400Y13945
X24960Y13945
X26400Y13945
X28960Y13945
T05
X16280Y4180
X11080Y4180
T06
X1680Y1680
X1680Y14680
X30680Y14680
X30680Y1680
M30
