G75*
%MOIN*%
%OFA0B0*%
%FSLAX25Y25*%
%IPPOS*%
%LPD*%
%AMOC8*
5,1,8,0,0,1.08239X$1,22.5*
%
%ADD10C,0.07400*%
%ADD11C,0.06600*%
%ADD12C,0.06000*%
%ADD13C,0.13000*%
%ADD14C,0.07000*%
%ADD15C,0.13843*%
%ADD16C,0.06299*%
%ADD17C,0.01600*%
%ADD18C,0.03569*%
%ADD19C,0.02400*%
D10*
X0184000Y0016650D03*
X0209600Y0016650D03*
X0224000Y0016650D03*
X0249600Y0016650D03*
X0264000Y0016650D03*
X0289600Y0016650D03*
X0289600Y0034450D03*
X0264000Y0034450D03*
X0249600Y0034450D03*
X0224000Y0034450D03*
X0209600Y0034450D03*
X0184000Y0034450D03*
X0184000Y0051650D03*
X0209600Y0051650D03*
X0224000Y0051650D03*
X0249600Y0051650D03*
X0264000Y0051650D03*
X0289600Y0051650D03*
X0289600Y0069450D03*
X0264000Y0069450D03*
X0249600Y0069450D03*
X0224000Y0069450D03*
X0209600Y0069450D03*
X0184000Y0069450D03*
X0184000Y0086650D03*
X0209600Y0086650D03*
X0224000Y0086650D03*
X0249600Y0086650D03*
X0264000Y0086650D03*
X0289600Y0086650D03*
X0289600Y0104450D03*
X0264000Y0104450D03*
X0249600Y0104450D03*
X0224000Y0104450D03*
X0209600Y0104450D03*
X0184000Y0104450D03*
X0184000Y0121650D03*
X0209600Y0121650D03*
X0224000Y0121650D03*
X0249600Y0121650D03*
X0264000Y0121650D03*
X0289600Y0121650D03*
X0289600Y0139450D03*
X0264000Y0139450D03*
X0249600Y0139450D03*
X0224000Y0139450D03*
X0209600Y0139450D03*
X0184000Y0139450D03*
X0016800Y0127500D03*
X0016800Y0116800D03*
X0016800Y0106100D03*
D11*
X0031800Y0121800D03*
X0031800Y0131800D03*
X0031800Y0141800D03*
X0031800Y0151800D03*
X0019300Y0061800D03*
X0019300Y0051800D03*
X0019300Y0041800D03*
D12*
X0126800Y0014300D03*
X0146800Y0014300D03*
X0146800Y0071300D03*
X0136800Y0071300D03*
X0126800Y0071300D03*
D13*
X0110800Y0041800D03*
X0162800Y0041800D03*
D14*
X0136800Y0084300D03*
D15*
X0016800Y0016800D03*
X0016800Y0146800D03*
X0306800Y0146800D03*
X0306800Y0016800D03*
D16*
X0014635Y0077863D03*
X0014635Y0085737D03*
D17*
X0081800Y0124300D02*
X0125550Y0124300D01*
X0144300Y0114300D02*
X0126800Y0096800D01*
X0126800Y0071300D01*
X0146800Y0071300D02*
X0148050Y0073050D01*
X0148050Y0116800D01*
X0209600Y0104450D02*
X0249600Y0104450D01*
X0289600Y0104450D01*
X0289600Y0069450D02*
X0249600Y0069450D01*
X0209600Y0069450D01*
X0209600Y0034450D02*
X0249600Y0034450D01*
X0251800Y0034450D01*
X0289600Y0034450D01*
X0126800Y0041800D02*
X0126800Y0014300D01*
X0209600Y0139450D02*
X0249600Y0139450D01*
X0289600Y0139450D01*
D18*
X0160550Y0131800D03*
X0148050Y0116800D03*
X0144300Y0114300D03*
X0139300Y0116800D03*
X0125550Y0124300D03*
X0085550Y0115550D03*
X0081800Y0124300D03*
X0075550Y0131800D03*
X0126800Y0041800D03*
D19*
X0085550Y0115550D02*
X0018050Y0115550D01*
X0016800Y0116800D01*
X0075550Y0131800D02*
X0139300Y0131800D01*
X0139300Y0116800D01*
X0139300Y0131800D02*
X0160550Y0131800D01*
M02*
