G75*
%MOIN*%
%OFA0B0*%
%FSLAX25Y25*%
%IPPOS*%
%LPD*%
%AMOC8*
5,1,8,0,0,1.08239X$1,22.5*
%
%ADD10C,0.07400*%
%ADD11R,0.03150X0.04724*%
%ADD12R,0.04724X0.03150*%
%ADD13R,0.01370X0.05500*%
%ADD14C,0.06600*%
%ADD15R,0.21654X0.07874*%
%ADD16R,0.05118X0.04724*%
%ADD17C,0.06000*%
%ADD18C,0.13000*%
%ADD19C,0.07000*%
%ADD20C,0.13843*%
%ADD21R,0.04724X0.05118*%
%ADD22R,0.02165X0.04724*%
%ADD23C,0.06299*%
%ADD24C,0.01600*%
%ADD25C,0.03569*%
%ADD26C,0.02400*%
D10*
X0184000Y0016650D03*
X0209600Y0016650D03*
X0224000Y0016650D03*
X0249600Y0016650D03*
X0264000Y0016650D03*
X0289600Y0016650D03*
X0289600Y0034450D03*
X0264000Y0034450D03*
X0249600Y0034450D03*
X0224000Y0034450D03*
X0209600Y0034450D03*
X0184000Y0034450D03*
X0184000Y0051650D03*
X0209600Y0051650D03*
X0224000Y0051650D03*
X0249600Y0051650D03*
X0264000Y0051650D03*
X0289600Y0051650D03*
X0289600Y0069450D03*
X0264000Y0069450D03*
X0249600Y0069450D03*
X0224000Y0069450D03*
X0209600Y0069450D03*
X0184000Y0069450D03*
X0184000Y0086650D03*
X0209600Y0086650D03*
X0224000Y0086650D03*
X0249600Y0086650D03*
X0264000Y0086650D03*
X0289600Y0086650D03*
X0289600Y0104450D03*
X0264000Y0104450D03*
X0249600Y0104450D03*
X0224000Y0104450D03*
X0209600Y0104450D03*
X0184000Y0104450D03*
X0184000Y0121650D03*
X0209600Y0121650D03*
X0224000Y0121650D03*
X0249600Y0121650D03*
X0264000Y0121650D03*
X0289600Y0121650D03*
X0289600Y0139450D03*
X0264000Y0139450D03*
X0249600Y0139450D03*
X0224000Y0139450D03*
X0209600Y0139450D03*
X0184000Y0139450D03*
X0016800Y0127500D03*
X0016800Y0116800D03*
X0016800Y0106100D03*
D11*
X0123257Y0131800D03*
X0130343Y0131800D03*
X0137007Y0131800D03*
X0144093Y0131800D03*
X0233257Y0113050D03*
X0240343Y0113050D03*
X0273257Y0113050D03*
X0280343Y0113050D03*
X0152843Y0084300D03*
X0145757Y0084300D03*
D12*
X0196800Y0127007D03*
X0196800Y0134093D03*
X0236800Y0134093D03*
X0236800Y0127007D03*
X0236800Y0099093D03*
X0236800Y0092007D03*
X0236800Y0064093D03*
X0236800Y0057007D03*
D13*
X0163434Y0094906D03*
X0160875Y0094906D03*
X0158316Y0094906D03*
X0155757Y0094906D03*
X0153198Y0094906D03*
X0150639Y0094906D03*
X0148080Y0094906D03*
X0145520Y0094906D03*
X0142961Y0094906D03*
X0140402Y0094906D03*
X0137843Y0094906D03*
X0135284Y0094906D03*
X0132725Y0094906D03*
X0130166Y0094906D03*
X0130166Y0123694D03*
X0132725Y0123694D03*
X0135284Y0123694D03*
X0137843Y0123694D03*
X0140402Y0123694D03*
X0142961Y0123694D03*
X0145520Y0123694D03*
X0148080Y0123694D03*
X0150639Y0123694D03*
X0153198Y0123694D03*
X0155757Y0123694D03*
X0158316Y0123694D03*
X0160875Y0123694D03*
X0163434Y0123694D03*
D14*
X0031800Y0121800D03*
X0031800Y0131800D03*
X0031800Y0141800D03*
X0031800Y0151800D03*
X0019300Y0061800D03*
X0019300Y0051800D03*
X0019300Y0041800D03*
D15*
X0118099Y0145550D03*
X0155501Y0145550D03*
D16*
X0171800Y0145300D03*
X0171800Y0153300D03*
X0101800Y0153300D03*
X0101800Y0145300D03*
X0171800Y0113300D03*
X0171800Y0105300D03*
D17*
X0146800Y0071300D03*
X0136800Y0071300D03*
X0126800Y0071300D03*
X0126800Y0014300D03*
X0146800Y0014300D03*
D18*
X0162800Y0041800D03*
X0110800Y0041800D03*
D19*
X0136800Y0084300D03*
D20*
X0016800Y0146800D03*
X0016800Y0016800D03*
X0306800Y0016800D03*
X0306800Y0146800D03*
D21*
X0117050Y0106800D03*
X0109050Y0106800D03*
X0109050Y0081800D03*
X0117050Y0081800D03*
D22*
X0116790Y0089181D03*
X0113050Y0089181D03*
X0109310Y0089181D03*
X0109310Y0099419D03*
X0116790Y0099419D03*
D23*
X0014635Y0085737D03*
X0014635Y0077863D03*
D24*
X0006600Y0006600D02*
X0006600Y0157000D01*
X0098033Y0157000D01*
X0097801Y0156767D01*
X0097564Y0156357D01*
X0097441Y0155899D01*
X0097441Y0153681D01*
X0101419Y0153681D01*
X0101419Y0152919D01*
X0097441Y0152919D01*
X0097441Y0150701D01*
X0097564Y0150243D01*
X0097801Y0149833D01*
X0098136Y0149497D01*
X0098546Y0149260D01*
X0098570Y0149254D01*
X0097641Y0148325D01*
X0097641Y0144353D01*
X0088159Y0153835D01*
X0087277Y0154200D01*
X0036110Y0154200D01*
X0035954Y0154576D01*
X0034576Y0155954D01*
X0032775Y0156700D01*
X0030825Y0156700D01*
X0029024Y0155954D01*
X0027646Y0154576D01*
X0026900Y0152775D01*
X0026900Y0150825D01*
X0027646Y0149024D01*
X0029024Y0147646D01*
X0030825Y0146900D01*
X0032775Y0146900D01*
X0034576Y0147646D01*
X0035954Y0149024D01*
X0036110Y0149400D01*
X0085806Y0149400D01*
X0091006Y0144200D01*
X0036110Y0144200D01*
X0035954Y0144576D01*
X0034576Y0145954D01*
X0032775Y0146700D01*
X0030825Y0146700D01*
X0029024Y0145954D01*
X0027646Y0144576D01*
X0026900Y0142775D01*
X0026900Y0140825D01*
X0027646Y0139024D01*
X0029024Y0137646D01*
X0030825Y0136900D01*
X0032775Y0136900D01*
X0034576Y0137646D01*
X0035954Y0139024D01*
X0036110Y0139400D01*
X0090806Y0139400D01*
X0119247Y0110959D01*
X0119101Y0110959D01*
X0096674Y0133386D01*
X0095886Y0134174D01*
X0094857Y0134600D01*
X0077536Y0134600D01*
X0077467Y0134669D01*
X0076223Y0135184D01*
X0074877Y0135184D01*
X0073633Y0134669D01*
X0073564Y0134600D01*
X0035930Y0134600D01*
X0034576Y0135954D01*
X0032775Y0136700D01*
X0030825Y0136700D01*
X0029024Y0135954D01*
X0027646Y0134576D01*
X0026900Y0132775D01*
X0026900Y0130825D01*
X0027646Y0129024D01*
X0029024Y0127646D01*
X0030825Y0126900D01*
X0032775Y0126900D01*
X0034576Y0127646D01*
X0035930Y0129000D01*
X0073564Y0129000D01*
X0073633Y0128931D01*
X0074877Y0128416D01*
X0076223Y0128416D01*
X0077467Y0128931D01*
X0077536Y0129000D01*
X0093140Y0129000D01*
X0110981Y0111159D01*
X0109431Y0111159D01*
X0109431Y0107181D01*
X0108669Y0107181D01*
X0108669Y0106419D01*
X0104888Y0106419D01*
X0104888Y0104004D01*
X0105010Y0103546D01*
X0105247Y0103136D01*
X0105583Y0102801D01*
X0105993Y0102564D01*
X0106451Y0102441D01*
X0106627Y0102441D01*
X0106627Y0098433D01*
X0088934Y0116126D01*
X0088934Y0116223D01*
X0088419Y0117467D01*
X0087467Y0118419D01*
X0086223Y0118934D01*
X0084877Y0118934D01*
X0083633Y0118419D01*
X0082681Y0117467D01*
X0082166Y0116223D01*
X0082166Y0114877D01*
X0082681Y0113633D01*
X0083633Y0112681D01*
X0084877Y0112166D01*
X0084974Y0112166D01*
X0105214Y0091926D01*
X0106243Y0091500D01*
X0106510Y0091500D01*
X0106510Y0088625D01*
X0106627Y0088341D01*
X0106627Y0086159D01*
X0106451Y0086159D01*
X0105993Y0086036D01*
X0105583Y0085799D01*
X0105247Y0085464D01*
X0105010Y0085054D01*
X0104888Y0084596D01*
X0104888Y0082181D01*
X0108669Y0082181D01*
X0108669Y0081419D01*
X0104888Y0081419D01*
X0104888Y0079200D01*
X0053823Y0079200D01*
X0052941Y0078835D01*
X0024064Y0049958D01*
X0024274Y0050606D01*
X0024400Y0051399D01*
X0024400Y0051616D01*
X0019484Y0051616D01*
X0019484Y0046700D01*
X0019701Y0046700D01*
X0020494Y0046826D01*
X0021142Y0047036D01*
X0020650Y0046544D01*
X0020275Y0046700D01*
X0018325Y0046700D01*
X0016524Y0045954D01*
X0015146Y0044576D01*
X0014400Y0042775D01*
X0014400Y0040825D01*
X0015146Y0039024D01*
X0016524Y0037646D01*
X0018325Y0036900D01*
X0020275Y0036900D01*
X0022076Y0037646D01*
X0023454Y0039024D01*
X0024200Y0040825D01*
X0024200Y0042775D01*
X0024044Y0043150D01*
X0055294Y0074400D01*
X0121027Y0074400D01*
X0121909Y0074765D01*
X0127585Y0080441D01*
X0127950Y0081323D01*
X0127950Y0085806D01*
X0132201Y0090057D01*
X0132408Y0090556D01*
X0146566Y0090556D01*
X0146700Y0090479D01*
X0147158Y0090356D01*
X0148079Y0090356D01*
X0148079Y0094906D01*
X0148080Y0094906D01*
X0148080Y0090356D01*
X0149002Y0090356D01*
X0149459Y0090479D01*
X0149593Y0090556D01*
X0150798Y0090556D01*
X0150798Y0088262D01*
X0150606Y0088262D01*
X0149669Y0087325D01*
X0149669Y0081275D01*
X0150606Y0080338D01*
X0155081Y0080338D01*
X0155916Y0081173D01*
X0155916Y0074310D01*
X0150982Y0069376D01*
X0151400Y0070385D01*
X0151400Y0072215D01*
X0150700Y0073906D01*
X0149406Y0075200D01*
X0147715Y0075900D01*
X0145885Y0075900D01*
X0144194Y0075200D01*
X0142900Y0073906D01*
X0142200Y0072215D01*
X0142200Y0070385D01*
X0142900Y0068694D01*
X0144194Y0067400D01*
X0145885Y0066700D01*
X0147715Y0066700D01*
X0148724Y0067118D01*
X0126790Y0045184D01*
X0126127Y0045184D01*
X0124883Y0044669D01*
X0123931Y0043717D01*
X0123416Y0042473D01*
X0123416Y0041127D01*
X0123931Y0039883D01*
X0124883Y0038931D01*
X0126127Y0038416D01*
X0127473Y0038416D01*
X0128717Y0038931D01*
X0129669Y0039883D01*
X0130184Y0041127D01*
X0130184Y0041790D01*
X0160350Y0071956D01*
X0160716Y0072838D01*
X0160716Y0090556D01*
X0161920Y0090556D01*
X0162054Y0090479D01*
X0162512Y0090356D01*
X0163434Y0090356D01*
X0164356Y0090356D01*
X0164814Y0090479D01*
X0165224Y0090716D01*
X0165559Y0091051D01*
X0165796Y0091462D01*
X0165919Y0091919D01*
X0165919Y0094906D01*
X0163434Y0094906D01*
X0163434Y0090356D01*
X0163434Y0094906D01*
X0163434Y0094906D01*
X0163434Y0094906D01*
X0165919Y0094906D01*
X0165919Y0097893D01*
X0165796Y0098351D01*
X0165559Y0098762D01*
X0165224Y0099097D01*
X0164814Y0099334D01*
X0164356Y0099456D01*
X0163434Y0099456D01*
X0163434Y0094906D01*
X0163434Y0094906D01*
X0163434Y0099456D01*
X0162512Y0099456D01*
X0162054Y0099334D01*
X0161920Y0099256D01*
X0153170Y0099256D01*
X0153439Y0099904D01*
X0153439Y0102268D01*
X0153012Y0103297D01*
X0145271Y0111039D01*
X0146217Y0111431D01*
X0147169Y0112383D01*
X0147597Y0113416D01*
X0148723Y0113416D01*
X0149967Y0113931D01*
X0150919Y0114883D01*
X0151434Y0116127D01*
X0151434Y0117473D01*
X0150919Y0118717D01*
X0150450Y0119186D01*
X0150450Y0119344D01*
X0155916Y0119344D01*
X0155916Y0114807D01*
X0156281Y0113925D01*
X0162265Y0107941D01*
X0162941Y0107265D01*
X0163823Y0106900D01*
X0167441Y0106900D01*
X0167441Y0105681D01*
X0171419Y0105681D01*
X0171419Y0104919D01*
X0172181Y0104919D01*
X0172181Y0105681D01*
X0176159Y0105681D01*
X0176159Y0106900D01*
X0179278Y0106900D01*
X0178700Y0105504D01*
X0178700Y0103396D01*
X0179507Y0101448D01*
X0180998Y0099957D01*
X0182946Y0099150D01*
X0185054Y0099150D01*
X0187002Y0099957D01*
X0188493Y0101448D01*
X0189300Y0103396D01*
X0189300Y0105504D01*
X0188722Y0106900D01*
X0195417Y0106900D01*
X0195759Y0106862D01*
X0195891Y0106900D01*
X0196027Y0106900D01*
X0196346Y0107032D01*
X0196676Y0107128D01*
X0196783Y0107213D01*
X0196909Y0107265D01*
X0197153Y0107509D01*
X0199400Y0109307D01*
X0199400Y0093973D01*
X0199765Y0093091D01*
X0204549Y0088306D01*
X0204300Y0087704D01*
X0204300Y0085596D01*
X0204418Y0085312D01*
X0200441Y0081335D01*
X0199765Y0080659D01*
X0199400Y0079777D01*
X0199400Y0058973D01*
X0199765Y0058091D01*
X0204549Y0053306D01*
X0204300Y0052704D01*
X0204300Y0050596D01*
X0204549Y0049994D01*
X0199765Y0045209D01*
X0199400Y0044327D01*
X0199400Y0023823D01*
X0199765Y0022941D01*
X0200441Y0022265D01*
X0200697Y0022159D01*
X0204549Y0018306D01*
X0204300Y0017704D01*
X0204300Y0015596D01*
X0205107Y0013648D01*
X0206598Y0012157D01*
X0208546Y0011350D01*
X0210654Y0011350D01*
X0212602Y0012157D01*
X0214093Y0013648D01*
X0214900Y0015596D01*
X0214900Y0017704D01*
X0214093Y0019652D01*
X0212602Y0021143D01*
X0210654Y0021950D01*
X0208546Y0021950D01*
X0207944Y0021701D01*
X0204200Y0025444D01*
X0204200Y0042856D01*
X0207944Y0046599D01*
X0208546Y0046350D01*
X0210654Y0046350D01*
X0212602Y0047157D01*
X0214093Y0048648D01*
X0214900Y0050596D01*
X0214900Y0052704D01*
X0214093Y0054652D01*
X0212602Y0056143D01*
X0210654Y0056950D01*
X0208546Y0056950D01*
X0207944Y0056701D01*
X0204200Y0060444D01*
X0204200Y0078306D01*
X0207625Y0081731D01*
X0208546Y0081350D01*
X0210654Y0081350D01*
X0212602Y0082157D01*
X0214093Y0083648D01*
X0214900Y0085596D01*
X0214900Y0087704D01*
X0214093Y0089652D01*
X0212602Y0091143D01*
X0210654Y0091950D01*
X0208546Y0091950D01*
X0207944Y0091701D01*
X0204200Y0095444D01*
X0204200Y0113306D01*
X0207625Y0116731D01*
X0208546Y0116350D01*
X0210654Y0116350D01*
X0211256Y0116599D01*
X0216165Y0111691D01*
X0216165Y0111691D01*
X0216841Y0111015D01*
X0217723Y0110650D01*
X0230082Y0110650D01*
X0230082Y0110025D01*
X0231019Y0109088D01*
X0234400Y0109088D01*
X0234400Y0105223D01*
X0234765Y0104341D01*
X0235356Y0103750D01*
X0234765Y0103159D01*
X0234400Y0102277D01*
X0234400Y0102268D01*
X0233775Y0102268D01*
X0232838Y0101331D01*
X0232838Y0096856D01*
X0233775Y0095919D01*
X0239825Y0095919D01*
X0240762Y0096856D01*
X0240762Y0101331D01*
X0240244Y0101849D01*
X0240444Y0102050D01*
X0244857Y0102050D01*
X0245107Y0101448D01*
X0246598Y0099957D01*
X0248546Y0099150D01*
X0250654Y0099150D01*
X0252602Y0099957D01*
X0254093Y0101448D01*
X0254400Y0102189D01*
X0254400Y0094844D01*
X0251256Y0091701D01*
X0250654Y0091950D01*
X0248546Y0091950D01*
X0246598Y0091143D01*
X0245107Y0089652D01*
X0244300Y0087704D01*
X0244300Y0085596D01*
X0245107Y0083648D01*
X0246598Y0082157D01*
X0248546Y0081350D01*
X0250654Y0081350D01*
X0251068Y0081521D01*
X0254400Y0077912D01*
X0254400Y0071711D01*
X0254093Y0072452D01*
X0252602Y0073943D01*
X0250654Y0074750D01*
X0248546Y0074750D01*
X0247944Y0074501D01*
X0239200Y0083244D01*
X0239200Y0088832D01*
X0239825Y0088832D01*
X0240762Y0089769D01*
X0240762Y0094244D01*
X0239825Y0095181D01*
X0233775Y0095181D01*
X0232838Y0094244D01*
X0232838Y0089769D01*
X0233775Y0088832D01*
X0234400Y0088832D01*
X0234400Y0081773D01*
X0234765Y0080891D01*
X0243806Y0071850D01*
X0238823Y0071850D01*
X0237941Y0071485D01*
X0237265Y0070809D01*
X0234765Y0068309D01*
X0234400Y0067427D01*
X0234400Y0067268D01*
X0233775Y0067268D01*
X0232838Y0066331D01*
X0232838Y0061856D01*
X0233775Y0060919D01*
X0239825Y0060919D01*
X0240762Y0061856D01*
X0240762Y0066331D01*
X0240169Y0066924D01*
X0240294Y0067050D01*
X0244857Y0067050D01*
X0245107Y0066448D01*
X0246598Y0064957D01*
X0248546Y0064150D01*
X0250654Y0064150D01*
X0252602Y0064957D01*
X0254093Y0066448D01*
X0254400Y0067189D01*
X0254400Y0059844D01*
X0251256Y0056701D01*
X0250654Y0056950D01*
X0248546Y0056950D01*
X0246598Y0056143D01*
X0245107Y0054652D01*
X0244300Y0052704D01*
X0244300Y0050596D01*
X0245107Y0048648D01*
X0246598Y0047157D01*
X0248546Y0046350D01*
X0250654Y0046350D01*
X0251256Y0046599D01*
X0254400Y0043456D01*
X0254400Y0036711D01*
X0254093Y0037452D01*
X0252602Y0038943D01*
X0250654Y0039750D01*
X0248546Y0039750D01*
X0247944Y0039501D01*
X0239200Y0048244D01*
X0239200Y0053832D01*
X0239825Y0053832D01*
X0240762Y0054769D01*
X0240762Y0059244D01*
X0239825Y0060181D01*
X0233775Y0060181D01*
X0232838Y0059244D01*
X0232838Y0054769D01*
X0233775Y0053832D01*
X0234400Y0053832D01*
X0234400Y0046773D01*
X0234765Y0045891D01*
X0244549Y0036106D01*
X0244300Y0035504D01*
X0244300Y0033396D01*
X0245107Y0031448D01*
X0246598Y0029957D01*
X0248546Y0029150D01*
X0250654Y0029150D01*
X0252602Y0029957D01*
X0254093Y0031448D01*
X0254400Y0032189D01*
X0254400Y0024844D01*
X0251256Y0021701D01*
X0250654Y0021950D01*
X0248546Y0021950D01*
X0246598Y0021143D01*
X0245107Y0019652D01*
X0244300Y0017704D01*
X0244300Y0015596D01*
X0245107Y0013648D01*
X0246598Y0012157D01*
X0248546Y0011350D01*
X0250654Y0011350D01*
X0252602Y0012157D01*
X0254093Y0013648D01*
X0254900Y0015596D01*
X0254900Y0017704D01*
X0254651Y0018306D01*
X0258835Y0022491D01*
X0259200Y0023373D01*
X0259200Y0032189D01*
X0259507Y0031448D01*
X0260998Y0029957D01*
X0262946Y0029150D01*
X0265054Y0029150D01*
X0267002Y0029957D01*
X0268493Y0031448D01*
X0269300Y0033396D01*
X0269300Y0035504D01*
X0268493Y0037452D01*
X0267002Y0038943D01*
X0265054Y0039750D01*
X0262946Y0039750D01*
X0260998Y0038943D01*
X0259507Y0037452D01*
X0259200Y0036711D01*
X0259200Y0044927D01*
X0258835Y0045809D01*
X0254651Y0049994D01*
X0254900Y0050596D01*
X0254900Y0052704D01*
X0254651Y0053306D01*
X0258835Y0057491D01*
X0259200Y0058373D01*
X0259200Y0067189D01*
X0259507Y0066448D01*
X0260998Y0064957D01*
X0262946Y0064150D01*
X0265054Y0064150D01*
X0267002Y0064957D01*
X0268493Y0066448D01*
X0269300Y0068396D01*
X0269300Y0070504D01*
X0268493Y0072452D01*
X0267002Y0073943D01*
X0265054Y0074750D01*
X0262946Y0074750D01*
X0260998Y0073943D01*
X0259507Y0072452D01*
X0259200Y0071711D01*
X0259200Y0078802D01*
X0259217Y0079231D01*
X0259200Y0079278D01*
X0259200Y0079327D01*
X0259036Y0079724D01*
X0258887Y0080127D01*
X0258854Y0080164D01*
X0258835Y0080209D01*
X0258531Y0080513D01*
X0254571Y0084803D01*
X0254900Y0085596D01*
X0254900Y0087704D01*
X0254651Y0088306D01*
X0258835Y0092491D01*
X0259200Y0093373D01*
X0259200Y0102189D01*
X0259507Y0101448D01*
X0260998Y0099957D01*
X0262946Y0099150D01*
X0265054Y0099150D01*
X0267002Y0099957D01*
X0268493Y0101448D01*
X0269300Y0103396D01*
X0269300Y0105504D01*
X0268493Y0107452D01*
X0267002Y0108943D01*
X0265054Y0109750D01*
X0262946Y0109750D01*
X0260998Y0108943D01*
X0259507Y0107452D01*
X0259200Y0106711D01*
X0259200Y0110650D01*
X0270082Y0110650D01*
X0270082Y0110025D01*
X0271019Y0109088D01*
X0275494Y0109088D01*
X0276431Y0110025D01*
X0276431Y0116075D01*
X0275494Y0117012D01*
X0271019Y0117012D01*
X0270082Y0116075D01*
X0270082Y0115450D01*
X0259194Y0115450D01*
X0254651Y0119994D01*
X0254900Y0120596D01*
X0254900Y0122704D01*
X0254093Y0124652D01*
X0252602Y0126143D01*
X0250654Y0126950D01*
X0248546Y0126950D01*
X0246598Y0126143D01*
X0245107Y0124652D01*
X0244300Y0122704D01*
X0244300Y0120596D01*
X0244549Y0119994D01*
X0241568Y0117012D01*
X0239200Y0117012D01*
X0239200Y0123832D01*
X0239825Y0123832D01*
X0240762Y0124769D01*
X0240762Y0129244D01*
X0239825Y0130181D01*
X0233775Y0130181D01*
X0232838Y0129244D01*
X0232838Y0124769D01*
X0233775Y0123832D01*
X0234400Y0123832D01*
X0234400Y0117012D01*
X0231019Y0117012D01*
X0230082Y0116075D01*
X0230082Y0115450D01*
X0219194Y0115450D01*
X0214651Y0119994D01*
X0214900Y0120596D01*
X0214900Y0122704D01*
X0214093Y0124652D01*
X0212602Y0126143D01*
X0210654Y0126950D01*
X0208546Y0126950D01*
X0206598Y0126143D01*
X0205107Y0124652D01*
X0204920Y0124200D01*
X0200193Y0124200D01*
X0200762Y0124769D01*
X0200762Y0129244D01*
X0199825Y0130181D01*
X0193775Y0130181D01*
X0192838Y0129244D01*
X0192838Y0124769D01*
X0193775Y0123832D01*
X0194400Y0123832D01*
X0194400Y0122573D01*
X0194765Y0121691D01*
X0196015Y0120441D01*
X0196691Y0119765D01*
X0197573Y0119400D01*
X0203506Y0119400D01*
X0200441Y0116335D01*
X0200197Y0116091D01*
X0194708Y0111700D01*
X0175959Y0111700D01*
X0175959Y0116325D01*
X0175022Y0117262D01*
X0168578Y0117262D01*
X0167641Y0116325D01*
X0167641Y0115450D01*
X0166544Y0115450D01*
X0165834Y0116160D01*
X0165834Y0125650D01*
X0175277Y0125650D01*
X0176243Y0125250D01*
X0177357Y0125250D01*
X0178386Y0125676D01*
X0180460Y0127750D01*
X0188607Y0127750D01*
X0189636Y0128176D01*
X0190424Y0128964D01*
X0192753Y0131293D01*
X0193400Y0131293D01*
X0193775Y0130919D01*
X0199825Y0130919D01*
X0200762Y0131856D01*
X0200762Y0136331D01*
X0199825Y0137268D01*
X0193775Y0137268D01*
X0193400Y0136893D01*
X0191036Y0136893D01*
X0190007Y0136467D01*
X0189220Y0135679D01*
X0186890Y0133350D01*
X0178743Y0133350D01*
X0177714Y0132924D01*
X0175240Y0130450D01*
X0165829Y0130450D01*
X0165808Y0130502D01*
X0164636Y0131674D01*
X0163934Y0132376D01*
X0163934Y0132473D01*
X0163419Y0133717D01*
X0162467Y0134669D01*
X0161223Y0135184D01*
X0159877Y0135184D01*
X0158633Y0134669D01*
X0157681Y0133717D01*
X0157166Y0132473D01*
X0157166Y0131127D01*
X0157681Y0129883D01*
X0158633Y0128931D01*
X0159877Y0128416D01*
X0159974Y0128416D01*
X0160347Y0128044D01*
X0146537Y0128044D01*
X0147268Y0128775D01*
X0147268Y0130124D01*
X0149409Y0132265D01*
X0150085Y0132941D01*
X0150450Y0133823D01*
X0150450Y0140013D01*
X0166990Y0140013D01*
X0167928Y0140950D01*
X0167928Y0141988D01*
X0168578Y0141338D01*
X0175022Y0141338D01*
X0175959Y0142275D01*
X0175959Y0148325D01*
X0175030Y0149254D01*
X0175054Y0149260D01*
X0175464Y0149497D01*
X0175799Y0149833D01*
X0176036Y0150243D01*
X0176159Y0150701D01*
X0176159Y0152919D01*
X0172181Y0152919D01*
X0172181Y0153681D01*
X0176159Y0153681D01*
X0176159Y0155899D01*
X0176036Y0156357D01*
X0175799Y0156767D01*
X0175567Y0157000D01*
X0317000Y0157000D01*
X0317000Y0006600D01*
X0006600Y0006600D01*
X0006600Y0008194D02*
X0016922Y0008194D01*
X0017713Y0008111D02*
X0018230Y0008279D01*
X0018495Y0008279D01*
X0019459Y0008678D01*
X0021169Y0009234D01*
X0021482Y0009516D01*
X0021627Y0009576D01*
X0022332Y0010281D01*
X0023868Y0011665D01*
X0023991Y0011940D01*
X0024024Y0011973D01*
X0024267Y0012560D01*
X0025346Y0014983D01*
X0025346Y0018617D01*
X0024267Y0021040D01*
X0024024Y0021627D01*
X0023991Y0021660D01*
X0023868Y0021935D01*
X0022332Y0023319D01*
X0021627Y0024024D01*
X0021482Y0024084D01*
X0021168Y0024366D01*
X0019459Y0024922D01*
X0018495Y0025321D01*
X0018230Y0025321D01*
X0017713Y0025489D01*
X0016116Y0025321D01*
X0015105Y0025321D01*
X0014761Y0025179D01*
X0014100Y0025109D01*
X0012847Y0024386D01*
X0011973Y0024024D01*
X0011636Y0023687D01*
X0010954Y0023293D01*
X0010188Y0022239D01*
X0009576Y0021627D01*
X0009354Y0021091D01*
X0008818Y0020354D01*
X0008576Y0019212D01*
X0008279Y0018495D01*
X0008279Y0017815D01*
X0008063Y0016800D01*
X0008279Y0015785D01*
X0008279Y0015105D01*
X0008576Y0014388D01*
X0008818Y0013246D01*
X0009354Y0012509D01*
X0009576Y0011973D01*
X0010188Y0011361D01*
X0010954Y0010307D01*
X0011636Y0009913D01*
X0011973Y0009576D01*
X0012847Y0009214D01*
X0014100Y0008491D01*
X0014761Y0008421D01*
X0015105Y0008279D01*
X0016116Y0008279D01*
X0017713Y0008111D01*
X0017969Y0008194D02*
X0306922Y0008194D01*
X0307713Y0008111D02*
X0306116Y0008279D01*
X0305105Y0008279D01*
X0304761Y0008421D01*
X0304100Y0008491D01*
X0302847Y0009214D01*
X0301973Y0009576D01*
X0301636Y0009913D01*
X0300954Y0010307D01*
X0300188Y0011361D01*
X0299576Y0011973D01*
X0299354Y0012509D01*
X0298818Y0013246D01*
X0298576Y0014388D01*
X0298279Y0015105D01*
X0298279Y0015785D01*
X0298063Y0016800D01*
X0298279Y0017815D01*
X0298279Y0018495D01*
X0298576Y0019212D01*
X0298818Y0020354D01*
X0299354Y0021091D01*
X0299576Y0021627D01*
X0300188Y0022239D01*
X0300954Y0023293D01*
X0301636Y0023687D01*
X0301973Y0024024D01*
X0302847Y0024386D01*
X0304100Y0025109D01*
X0304761Y0025179D01*
X0305105Y0025321D01*
X0306116Y0025321D01*
X0307713Y0025489D01*
X0308230Y0025321D01*
X0308495Y0025321D01*
X0309459Y0024922D01*
X0311168Y0024366D01*
X0311482Y0024084D01*
X0311627Y0024024D01*
X0312332Y0023319D01*
X0313868Y0021935D01*
X0313991Y0021660D01*
X0314024Y0021627D01*
X0314267Y0021040D01*
X0315346Y0018617D01*
X0315346Y0014983D01*
X0314267Y0012560D01*
X0314024Y0011973D01*
X0313991Y0011940D01*
X0313868Y0011665D01*
X0312332Y0010281D01*
X0311627Y0009576D01*
X0311482Y0009516D01*
X0311169Y0009234D01*
X0309459Y0008678D01*
X0308495Y0008279D01*
X0308230Y0008279D01*
X0307713Y0008111D01*
X0307969Y0008194D02*
X0317000Y0008194D01*
X0317000Y0009793D02*
X0311843Y0009793D01*
X0313565Y0011391D02*
X0317000Y0011391D01*
X0317000Y0012990D02*
X0314458Y0012990D01*
X0315170Y0014588D02*
X0317000Y0014588D01*
X0317000Y0016187D02*
X0315346Y0016187D01*
X0315346Y0017785D02*
X0317000Y0017785D01*
X0317000Y0019384D02*
X0315005Y0019384D01*
X0314293Y0020982D02*
X0317000Y0020982D01*
X0317000Y0022581D02*
X0313152Y0022581D01*
X0311377Y0024179D02*
X0317000Y0024179D01*
X0317000Y0025778D02*
X0283866Y0025778D01*
X0282950Y0026694D02*
X0282950Y0040806D01*
X0288509Y0046365D01*
X0288546Y0046350D01*
X0290654Y0046350D01*
X0292602Y0047157D01*
X0294093Y0048648D01*
X0294900Y0050596D01*
X0294900Y0052704D01*
X0294093Y0054652D01*
X0292602Y0056143D01*
X0290654Y0056950D01*
X0288546Y0056950D01*
X0287944Y0056701D01*
X0282950Y0061694D01*
X0282950Y0077056D01*
X0287625Y0081731D01*
X0288546Y0081350D01*
X0290654Y0081350D01*
X0292602Y0082157D01*
X0294093Y0083648D01*
X0294900Y0085596D01*
X0294900Y0087704D01*
X0294093Y0089652D01*
X0292602Y0091143D01*
X0290654Y0091950D01*
X0288546Y0091950D01*
X0287837Y0091657D01*
X0282950Y0096544D01*
X0282950Y0109457D01*
X0283518Y0110025D01*
X0283518Y0112174D01*
X0287944Y0116599D01*
X0288546Y0116350D01*
X0290654Y0116350D01*
X0292602Y0117157D01*
X0294093Y0118648D01*
X0294900Y0120596D01*
X0294900Y0122704D01*
X0294093Y0124652D01*
X0292602Y0126143D01*
X0290654Y0126950D01*
X0288546Y0126950D01*
X0286598Y0126143D01*
X0285107Y0124652D01*
X0284300Y0122704D01*
X0284300Y0120596D01*
X0284549Y0119994D01*
X0281568Y0117012D01*
X0278106Y0117012D01*
X0277169Y0116075D01*
X0277169Y0110025D01*
X0278106Y0109088D01*
X0278150Y0109088D01*
X0278150Y0095073D01*
X0278515Y0094191D01*
X0279191Y0093515D01*
X0284506Y0088200D01*
X0284300Y0087704D01*
X0284300Y0085596D01*
X0284418Y0085312D01*
X0279191Y0080085D01*
X0278515Y0079409D01*
X0278150Y0078527D01*
X0278150Y0060223D01*
X0278515Y0059341D01*
X0284549Y0053306D01*
X0284300Y0052704D01*
X0284300Y0050596D01*
X0284784Y0049428D01*
X0279191Y0043835D01*
X0278515Y0043159D01*
X0278150Y0042277D01*
X0278150Y0025223D01*
X0278515Y0024341D01*
X0284549Y0018306D01*
X0284300Y0017704D01*
X0284300Y0015596D01*
X0285107Y0013648D01*
X0286598Y0012157D01*
X0288546Y0011350D01*
X0290654Y0011350D01*
X0292602Y0012157D01*
X0294093Y0013648D01*
X0294900Y0015596D01*
X0294900Y0017704D01*
X0294093Y0019652D01*
X0292602Y0021143D01*
X0290654Y0021950D01*
X0288546Y0021950D01*
X0287944Y0021701D01*
X0282950Y0026694D01*
X0282950Y0027376D02*
X0317000Y0027376D01*
X0317000Y0028975D02*
X0282950Y0028975D01*
X0282950Y0030573D02*
X0285981Y0030573D01*
X0286598Y0029957D02*
X0288546Y0029150D01*
X0290654Y0029150D01*
X0292602Y0029957D01*
X0294093Y0031448D01*
X0294900Y0033396D01*
X0294900Y0035504D01*
X0294093Y0037452D01*
X0292602Y0038943D01*
X0290654Y0039750D01*
X0288546Y0039750D01*
X0286598Y0038943D01*
X0285107Y0037452D01*
X0284300Y0035504D01*
X0284300Y0033396D01*
X0285107Y0031448D01*
X0286598Y0029957D01*
X0284807Y0032172D02*
X0282950Y0032172D01*
X0282950Y0033770D02*
X0284300Y0033770D01*
X0284300Y0035369D02*
X0282950Y0035369D01*
X0282950Y0036967D02*
X0284906Y0036967D01*
X0286220Y0038566D02*
X0282950Y0038566D01*
X0282950Y0040164D02*
X0317000Y0040164D01*
X0317000Y0038566D02*
X0292980Y0038566D01*
X0294294Y0036967D02*
X0317000Y0036967D01*
X0317000Y0035369D02*
X0294900Y0035369D01*
X0294900Y0033770D02*
X0317000Y0033770D01*
X0317000Y0032172D02*
X0294393Y0032172D01*
X0293219Y0030573D02*
X0317000Y0030573D01*
X0302348Y0024179D02*
X0285465Y0024179D01*
X0287063Y0022581D02*
X0300436Y0022581D01*
X0299275Y0020982D02*
X0292763Y0020982D01*
X0294204Y0019384D02*
X0298612Y0019384D01*
X0298272Y0017785D02*
X0294866Y0017785D01*
X0294900Y0016187D02*
X0298193Y0016187D01*
X0298493Y0014588D02*
X0294483Y0014588D01*
X0293435Y0012990D02*
X0299005Y0012990D01*
X0300158Y0011391D02*
X0290753Y0011391D01*
X0288447Y0011391D02*
X0265153Y0011391D01*
X0265054Y0011350D02*
X0267002Y0012157D01*
X0268493Y0013648D01*
X0269300Y0015596D01*
X0269300Y0017704D01*
X0268493Y0019652D01*
X0267002Y0021143D01*
X0265054Y0021950D01*
X0262946Y0021950D01*
X0260998Y0021143D01*
X0259507Y0019652D01*
X0258700Y0017704D01*
X0258700Y0015596D01*
X0259507Y0013648D01*
X0260998Y0012157D01*
X0262946Y0011350D01*
X0265054Y0011350D01*
X0262847Y0011391D02*
X0250753Y0011391D01*
X0248447Y0011391D02*
X0225153Y0011391D01*
X0225054Y0011350D02*
X0227002Y0012157D01*
X0228493Y0013648D01*
X0229300Y0015596D01*
X0229300Y0017704D01*
X0228493Y0019652D01*
X0227002Y0021143D01*
X0225054Y0021950D01*
X0222946Y0021950D01*
X0220998Y0021143D01*
X0219507Y0019652D01*
X0218700Y0017704D01*
X0218700Y0015596D01*
X0219507Y0013648D01*
X0220998Y0012157D01*
X0222946Y0011350D01*
X0225054Y0011350D01*
X0222847Y0011391D02*
X0210753Y0011391D01*
X0208447Y0011391D02*
X0185153Y0011391D01*
X0185054Y0011350D02*
X0187002Y0012157D01*
X0188493Y0013648D01*
X0189300Y0015596D01*
X0189300Y0017704D01*
X0188493Y0019652D01*
X0187002Y0021143D01*
X0185054Y0021950D01*
X0182946Y0021950D01*
X0180998Y0021143D01*
X0179507Y0019652D01*
X0178700Y0017704D01*
X0178700Y0015596D01*
X0179507Y0013648D01*
X0180998Y0012157D01*
X0182946Y0011350D01*
X0185054Y0011350D01*
X0182847Y0011391D02*
X0150620Y0011391D01*
X0150461Y0011173D02*
X0150905Y0011784D01*
X0151248Y0012457D01*
X0151482Y0013176D01*
X0151600Y0013922D01*
X0151600Y0014100D01*
X0147000Y0014100D01*
X0147000Y0014500D01*
X0146600Y0014500D01*
X0146600Y0019100D01*
X0146422Y0019100D01*
X0145676Y0018982D01*
X0144957Y0018748D01*
X0144284Y0018405D01*
X0143673Y0017961D01*
X0143139Y0017427D01*
X0142695Y0016816D01*
X0142352Y0016143D01*
X0142118Y0015424D01*
X0142000Y0014678D01*
X0142000Y0014500D01*
X0146600Y0014500D01*
X0146600Y0014100D01*
X0142000Y0014100D01*
X0142000Y0013922D01*
X0142118Y0013176D01*
X0142352Y0012457D01*
X0142695Y0011784D01*
X0143139Y0011173D01*
X0143673Y0010639D01*
X0144284Y0010195D01*
X0144957Y0009852D01*
X0145676Y0009618D01*
X0146422Y0009500D01*
X0146600Y0009500D01*
X0146600Y0014100D01*
X0147000Y0014100D01*
X0147000Y0009500D01*
X0147178Y0009500D01*
X0147924Y0009618D01*
X0148643Y0009852D01*
X0149316Y0010195D01*
X0149927Y0010639D01*
X0150461Y0011173D01*
X0151421Y0012990D02*
X0180165Y0012990D01*
X0179117Y0014588D02*
X0151600Y0014588D01*
X0151600Y0014500D02*
X0151600Y0014678D01*
X0151482Y0015424D01*
X0151248Y0016143D01*
X0150905Y0016816D01*
X0150461Y0017427D01*
X0149927Y0017961D01*
X0149316Y0018405D01*
X0148643Y0018748D01*
X0147924Y0018982D01*
X0147178Y0019100D01*
X0147000Y0019100D01*
X0147000Y0014500D01*
X0151600Y0014500D01*
X0151226Y0016187D02*
X0178700Y0016187D01*
X0178734Y0017785D02*
X0150103Y0017785D01*
X0147000Y0017785D02*
X0146600Y0017785D01*
X0146600Y0016187D02*
X0147000Y0016187D01*
X0147000Y0014588D02*
X0146600Y0014588D01*
X0146600Y0012990D02*
X0147000Y0012990D01*
X0147000Y0011391D02*
X0146600Y0011391D01*
X0146600Y0009793D02*
X0147000Y0009793D01*
X0148461Y0009793D02*
X0301757Y0009793D01*
X0289600Y0016650D02*
X0280550Y0025700D01*
X0280550Y0041800D01*
X0289600Y0050850D01*
X0289600Y0051650D01*
X0280550Y0060700D01*
X0280550Y0078050D01*
X0289150Y0086650D01*
X0289150Y0086950D01*
X0280550Y0095550D01*
X0280550Y0112843D01*
X0280343Y0113050D01*
X0281000Y0113050D01*
X0289600Y0121650D01*
X0294900Y0121688D02*
X0317000Y0121688D01*
X0317000Y0120090D02*
X0294690Y0120090D01*
X0293937Y0118491D02*
X0317000Y0118491D01*
X0317000Y0116893D02*
X0291965Y0116893D01*
X0286638Y0115294D02*
X0317000Y0115294D01*
X0317000Y0113696D02*
X0285040Y0113696D01*
X0283518Y0112097D02*
X0317000Y0112097D01*
X0317000Y0110499D02*
X0283518Y0110499D01*
X0282950Y0108900D02*
X0286555Y0108900D01*
X0286598Y0108943D02*
X0285107Y0107452D01*
X0284300Y0105504D01*
X0284300Y0103396D01*
X0285107Y0101448D01*
X0286598Y0099957D01*
X0288546Y0099150D01*
X0290654Y0099150D01*
X0292602Y0099957D01*
X0294093Y0101448D01*
X0294900Y0103396D01*
X0294900Y0105504D01*
X0294093Y0107452D01*
X0292602Y0108943D01*
X0290654Y0109750D01*
X0288546Y0109750D01*
X0286598Y0108943D01*
X0285045Y0107302D02*
X0282950Y0107302D01*
X0282950Y0105703D02*
X0284382Y0105703D01*
X0284300Y0104105D02*
X0282950Y0104105D01*
X0282950Y0102506D02*
X0284668Y0102506D01*
X0285647Y0100908D02*
X0282950Y0100908D01*
X0282950Y0099309D02*
X0288161Y0099309D01*
X0291039Y0099309D02*
X0317000Y0099309D01*
X0317000Y0097711D02*
X0282950Y0097711D01*
X0283382Y0096112D02*
X0317000Y0096112D01*
X0317000Y0094514D02*
X0284980Y0094514D01*
X0286579Y0092915D02*
X0317000Y0092915D01*
X0317000Y0091317D02*
X0292183Y0091317D01*
X0294027Y0089718D02*
X0317000Y0089718D01*
X0317000Y0088120D02*
X0294728Y0088120D01*
X0294900Y0086521D02*
X0317000Y0086521D01*
X0317000Y0084923D02*
X0294621Y0084923D01*
X0293769Y0083324D02*
X0317000Y0083324D01*
X0317000Y0081726D02*
X0291561Y0081726D01*
X0287639Y0081726D02*
X0287620Y0081726D01*
X0286021Y0080127D02*
X0317000Y0080127D01*
X0317000Y0078529D02*
X0284423Y0078529D01*
X0282950Y0076930D02*
X0317000Y0076930D01*
X0317000Y0075332D02*
X0282950Y0075332D01*
X0282950Y0073733D02*
X0286388Y0073733D01*
X0286598Y0073943D02*
X0285107Y0072452D01*
X0284300Y0070504D01*
X0284300Y0068396D01*
X0285107Y0066448D01*
X0286598Y0064957D01*
X0288546Y0064150D01*
X0290654Y0064150D01*
X0292602Y0064957D01*
X0294093Y0066448D01*
X0294900Y0068396D01*
X0294900Y0070504D01*
X0294093Y0072452D01*
X0292602Y0073943D01*
X0290654Y0074750D01*
X0288546Y0074750D01*
X0286598Y0073943D01*
X0284975Y0072134D02*
X0282950Y0072134D01*
X0282950Y0070536D02*
X0284313Y0070536D01*
X0284300Y0068937D02*
X0282950Y0068937D01*
X0282950Y0067339D02*
X0284738Y0067339D01*
X0285814Y0065740D02*
X0282950Y0065740D01*
X0282950Y0064142D02*
X0317000Y0064142D01*
X0317000Y0065740D02*
X0293386Y0065740D01*
X0294462Y0067339D02*
X0317000Y0067339D01*
X0317000Y0068937D02*
X0294900Y0068937D01*
X0294887Y0070536D02*
X0317000Y0070536D01*
X0317000Y0072134D02*
X0294225Y0072134D01*
X0292812Y0073733D02*
X0317000Y0073733D01*
X0317000Y0062543D02*
X0282950Y0062543D01*
X0283699Y0060945D02*
X0317000Y0060945D01*
X0317000Y0059346D02*
X0285298Y0059346D01*
X0286896Y0057748D02*
X0317000Y0057748D01*
X0317000Y0056149D02*
X0292587Y0056149D01*
X0294135Y0054551D02*
X0317000Y0054551D01*
X0317000Y0052952D02*
X0294797Y0052952D01*
X0294900Y0051354D02*
X0317000Y0051354D01*
X0317000Y0049755D02*
X0294552Y0049755D01*
X0293602Y0048157D02*
X0317000Y0048157D01*
X0317000Y0046558D02*
X0291157Y0046558D01*
X0287104Y0044960D02*
X0317000Y0044960D01*
X0317000Y0043361D02*
X0285505Y0043361D01*
X0283907Y0041763D02*
X0317000Y0041763D01*
X0284648Y0049755D02*
X0268952Y0049755D01*
X0269300Y0050596D02*
X0268493Y0048648D01*
X0267002Y0047157D01*
X0265054Y0046350D01*
X0262946Y0046350D01*
X0260998Y0047157D01*
X0259507Y0048648D01*
X0258700Y0050596D01*
X0258700Y0052704D01*
X0259507Y0054652D01*
X0260998Y0056143D01*
X0262946Y0056950D01*
X0265054Y0056950D01*
X0267002Y0056143D01*
X0268493Y0054652D01*
X0269300Y0052704D01*
X0269300Y0050596D01*
X0269300Y0051354D02*
X0284300Y0051354D01*
X0284403Y0052952D02*
X0269197Y0052952D01*
X0268535Y0054551D02*
X0283305Y0054551D01*
X0281706Y0056149D02*
X0266987Y0056149D01*
X0261013Y0056149D02*
X0257493Y0056149D01*
X0258941Y0057748D02*
X0280108Y0057748D01*
X0278513Y0059346D02*
X0259200Y0059346D01*
X0259200Y0060945D02*
X0278150Y0060945D01*
X0278150Y0062543D02*
X0259200Y0062543D01*
X0259200Y0064142D02*
X0278150Y0064142D01*
X0278150Y0065740D02*
X0267786Y0065740D01*
X0268862Y0067339D02*
X0278150Y0067339D01*
X0278150Y0068937D02*
X0269300Y0068937D01*
X0269287Y0070536D02*
X0278150Y0070536D01*
X0278150Y0072134D02*
X0268625Y0072134D01*
X0267212Y0073733D02*
X0278150Y0073733D01*
X0278150Y0075332D02*
X0259200Y0075332D01*
X0259200Y0076930D02*
X0278150Y0076930D01*
X0278150Y0078529D02*
X0259200Y0078529D01*
X0258887Y0080127D02*
X0279233Y0080127D01*
X0280831Y0081726D02*
X0265961Y0081726D01*
X0265054Y0081350D02*
X0267002Y0082157D01*
X0268493Y0083648D01*
X0269300Y0085596D01*
X0269300Y0087704D01*
X0268493Y0089652D01*
X0267002Y0091143D01*
X0265054Y0091950D01*
X0262946Y0091950D01*
X0260998Y0091143D01*
X0259507Y0089652D01*
X0258700Y0087704D01*
X0258700Y0085596D01*
X0259507Y0083648D01*
X0260998Y0082157D01*
X0262946Y0081350D01*
X0265054Y0081350D01*
X0262039Y0081726D02*
X0257412Y0081726D01*
X0255936Y0083324D02*
X0259831Y0083324D01*
X0258979Y0084923D02*
X0254621Y0084923D01*
X0254900Y0086521D02*
X0258700Y0086521D01*
X0258872Y0088120D02*
X0254728Y0088120D01*
X0256062Y0089718D02*
X0259573Y0089718D01*
X0261417Y0091317D02*
X0257661Y0091317D01*
X0259010Y0092915D02*
X0279791Y0092915D01*
X0278382Y0094514D02*
X0259200Y0094514D01*
X0259200Y0096112D02*
X0278150Y0096112D01*
X0278150Y0097711D02*
X0259200Y0097711D01*
X0259200Y0099309D02*
X0262561Y0099309D01*
X0265439Y0099309D02*
X0278150Y0099309D01*
X0278150Y0100908D02*
X0267953Y0100908D01*
X0268932Y0102506D02*
X0278150Y0102506D01*
X0278150Y0104105D02*
X0269300Y0104105D01*
X0269218Y0105703D02*
X0278150Y0105703D01*
X0278150Y0107302D02*
X0268555Y0107302D01*
X0267045Y0108900D02*
X0278150Y0108900D01*
X0277169Y0110499D02*
X0276431Y0110499D01*
X0276431Y0112097D02*
X0277169Y0112097D01*
X0277169Y0113696D02*
X0276431Y0113696D01*
X0276431Y0115294D02*
X0277169Y0115294D01*
X0277986Y0116893D02*
X0275614Y0116893D01*
X0273257Y0113050D02*
X0258200Y0113050D01*
X0249600Y0121650D01*
X0241000Y0113050D01*
X0240343Y0113050D01*
X0233257Y0113050D02*
X0233050Y0113257D01*
X0233257Y0113050D02*
X0218200Y0113050D01*
X0209600Y0121650D01*
X0209450Y0121800D01*
X0198050Y0121800D01*
X0196800Y0123050D01*
X0196800Y0127007D01*
X0192838Y0126484D02*
X0186180Y0126484D01*
X0187002Y0126143D02*
X0185054Y0126950D01*
X0182946Y0126950D01*
X0180998Y0126143D01*
X0179507Y0124652D01*
X0178700Y0122704D01*
X0178700Y0120596D01*
X0179507Y0118648D01*
X0180998Y0117157D01*
X0182946Y0116350D01*
X0185054Y0116350D01*
X0187002Y0117157D01*
X0188493Y0118648D01*
X0189300Y0120596D01*
X0189300Y0122704D01*
X0188493Y0124652D01*
X0187002Y0126143D01*
X0188260Y0124885D02*
X0192838Y0124885D01*
X0194400Y0123287D02*
X0189059Y0123287D01*
X0189300Y0121688D02*
X0194768Y0121688D01*
X0196366Y0120090D02*
X0189090Y0120090D01*
X0188337Y0118491D02*
X0202597Y0118491D01*
X0200999Y0116893D02*
X0186365Y0116893D01*
X0181635Y0116893D02*
X0175391Y0116893D01*
X0175959Y0115294D02*
X0199201Y0115294D01*
X0197203Y0113696D02*
X0175959Y0113696D01*
X0175959Y0112097D02*
X0195205Y0112097D01*
X0195550Y0109300D02*
X0201800Y0114300D01*
X0201800Y0094450D01*
X0209600Y0086650D01*
X0209150Y0086650D01*
X0201800Y0079300D01*
X0201800Y0059450D01*
X0209600Y0051650D01*
X0201800Y0043850D01*
X0201800Y0024300D01*
X0201950Y0024300D01*
X0209600Y0016650D01*
X0204300Y0016187D02*
X0189300Y0016187D01*
X0189266Y0017785D02*
X0204334Y0017785D01*
X0203472Y0019384D02*
X0188604Y0019384D01*
X0187163Y0020982D02*
X0201874Y0020982D01*
X0200125Y0022581D02*
X0023152Y0022581D01*
X0024293Y0020982D02*
X0180837Y0020982D01*
X0179396Y0019384D02*
X0025005Y0019384D01*
X0025346Y0017785D02*
X0123780Y0017785D01*
X0124194Y0018200D02*
X0122900Y0016906D01*
X0122200Y0015215D01*
X0122200Y0013385D01*
X0122900Y0011694D01*
X0124194Y0010400D01*
X0125885Y0009700D01*
X0127715Y0009700D01*
X0129406Y0010400D01*
X0130700Y0011694D01*
X0131400Y0013385D01*
X0131400Y0015215D01*
X0130700Y0016906D01*
X0129406Y0018200D01*
X0127715Y0018900D01*
X0125885Y0018900D01*
X0124194Y0018200D01*
X0122602Y0016187D02*
X0025346Y0016187D01*
X0025170Y0014588D02*
X0122200Y0014588D01*
X0122364Y0012990D02*
X0024458Y0012990D01*
X0023565Y0011391D02*
X0123204Y0011391D01*
X0125662Y0009793D02*
X0021843Y0009793D01*
X0011757Y0009793D02*
X0006600Y0009793D01*
X0006600Y0011391D02*
X0010158Y0011391D01*
X0009005Y0012990D02*
X0006600Y0012990D01*
X0006600Y0014588D02*
X0008493Y0014588D01*
X0008193Y0016187D02*
X0006600Y0016187D01*
X0006600Y0017785D02*
X0008272Y0017785D01*
X0008612Y0019384D02*
X0006600Y0019384D01*
X0006600Y0020982D02*
X0009275Y0020982D01*
X0010436Y0022581D02*
X0006600Y0022581D01*
X0006600Y0024179D02*
X0012348Y0024179D01*
X0006600Y0025778D02*
X0199400Y0025778D01*
X0199400Y0027376D02*
X0006600Y0027376D01*
X0006600Y0028975D02*
X0199400Y0028975D01*
X0199400Y0030573D02*
X0187619Y0030573D01*
X0187002Y0029957D02*
X0188493Y0031448D01*
X0189300Y0033396D01*
X0189300Y0035504D01*
X0188493Y0037452D01*
X0187002Y0038943D01*
X0185054Y0039750D01*
X0182946Y0039750D01*
X0180998Y0038943D01*
X0179507Y0037452D01*
X0178700Y0035504D01*
X0178700Y0033396D01*
X0179507Y0031448D01*
X0180998Y0029957D01*
X0182946Y0029150D01*
X0185054Y0029150D01*
X0187002Y0029957D01*
X0188793Y0032172D02*
X0199400Y0032172D01*
X0199400Y0033770D02*
X0189300Y0033770D01*
X0189300Y0035369D02*
X0199400Y0035369D01*
X0199400Y0036967D02*
X0188694Y0036967D01*
X0187380Y0038566D02*
X0199400Y0038566D01*
X0199400Y0040164D02*
X0170890Y0040164D01*
X0170900Y0040189D02*
X0169667Y0037212D01*
X0167388Y0034933D01*
X0164411Y0033700D01*
X0161189Y0033700D01*
X0158212Y0034933D01*
X0155933Y0037212D01*
X0154700Y0040189D01*
X0154700Y0043411D01*
X0155933Y0046388D01*
X0158212Y0048667D01*
X0161189Y0049900D01*
X0164411Y0049900D01*
X0167388Y0048667D01*
X0169667Y0046388D01*
X0170900Y0043411D01*
X0170900Y0040189D01*
X0170900Y0041763D02*
X0199400Y0041763D01*
X0199400Y0043361D02*
X0170900Y0043361D01*
X0170259Y0044960D02*
X0199662Y0044960D01*
X0201114Y0046558D02*
X0185557Y0046558D01*
X0185054Y0046350D02*
X0187002Y0047157D01*
X0188493Y0048648D01*
X0189300Y0050596D01*
X0189300Y0052704D01*
X0188493Y0054652D01*
X0187002Y0056143D01*
X0185054Y0056950D01*
X0182946Y0056950D01*
X0180998Y0056143D01*
X0179507Y0054652D01*
X0178700Y0052704D01*
X0178700Y0050596D01*
X0179507Y0048648D01*
X0180998Y0047157D01*
X0182946Y0046350D01*
X0185054Y0046350D01*
X0182443Y0046558D02*
X0169497Y0046558D01*
X0167898Y0048157D02*
X0179998Y0048157D01*
X0179048Y0049755D02*
X0164760Y0049755D01*
X0160840Y0049755D02*
X0138149Y0049755D01*
X0136551Y0048157D02*
X0157702Y0048157D01*
X0156103Y0046558D02*
X0134952Y0046558D01*
X0133354Y0044960D02*
X0155341Y0044960D01*
X0154700Y0043361D02*
X0131755Y0043361D01*
X0130184Y0041763D02*
X0154700Y0041763D01*
X0154710Y0040164D02*
X0129786Y0040164D01*
X0127835Y0038566D02*
X0155372Y0038566D01*
X0156178Y0036967D02*
X0117422Y0036967D01*
X0117667Y0037212D02*
X0118900Y0040189D01*
X0118900Y0043411D01*
X0117667Y0046388D01*
X0115388Y0048667D01*
X0112411Y0049900D01*
X0109189Y0049900D01*
X0106212Y0048667D01*
X0103933Y0046388D01*
X0102700Y0043411D01*
X0102700Y0040189D01*
X0103933Y0037212D01*
X0106212Y0034933D01*
X0109189Y0033700D01*
X0112411Y0033700D01*
X0115388Y0034933D01*
X0117667Y0037212D01*
X0118228Y0038566D02*
X0125765Y0038566D01*
X0123814Y0040164D02*
X0118890Y0040164D01*
X0118900Y0041763D02*
X0123416Y0041763D01*
X0123784Y0043361D02*
X0118900Y0043361D01*
X0118259Y0044960D02*
X0125585Y0044960D01*
X0128164Y0046558D02*
X0117497Y0046558D01*
X0115898Y0048157D02*
X0129763Y0048157D01*
X0131361Y0049755D02*
X0112760Y0049755D01*
X0108840Y0049755D02*
X0030649Y0049755D01*
X0029051Y0048157D02*
X0105702Y0048157D01*
X0104103Y0046558D02*
X0027452Y0046558D01*
X0025854Y0044960D02*
X0103341Y0044960D01*
X0102700Y0043361D02*
X0024255Y0043361D01*
X0024200Y0041763D02*
X0102700Y0041763D01*
X0102710Y0040164D02*
X0023926Y0040164D01*
X0022995Y0038566D02*
X0103372Y0038566D01*
X0104178Y0036967D02*
X0020437Y0036967D01*
X0018163Y0036967D02*
X0006600Y0036967D01*
X0006600Y0035369D02*
X0105776Y0035369D01*
X0109019Y0033770D02*
X0006600Y0033770D01*
X0006600Y0032172D02*
X0179207Y0032172D01*
X0178700Y0033770D02*
X0164581Y0033770D01*
X0161019Y0033770D02*
X0112581Y0033770D01*
X0115824Y0035369D02*
X0157776Y0035369D01*
X0167824Y0035369D02*
X0178700Y0035369D01*
X0179306Y0036967D02*
X0169422Y0036967D01*
X0170228Y0038566D02*
X0180620Y0038566D01*
X0180381Y0030573D02*
X0006600Y0030573D01*
X0021377Y0024179D02*
X0199400Y0024179D01*
X0204200Y0025778D02*
X0254400Y0025778D01*
X0254400Y0027376D02*
X0204200Y0027376D01*
X0204200Y0028975D02*
X0254400Y0028975D01*
X0254400Y0030573D02*
X0253219Y0030573D01*
X0254393Y0032172D02*
X0254400Y0032172D01*
X0259200Y0032172D02*
X0259207Y0032172D01*
X0259200Y0030573D02*
X0260381Y0030573D01*
X0259200Y0028975D02*
X0278150Y0028975D01*
X0278150Y0030573D02*
X0267619Y0030573D01*
X0268793Y0032172D02*
X0278150Y0032172D01*
X0278150Y0033770D02*
X0269300Y0033770D01*
X0269300Y0035369D02*
X0278150Y0035369D01*
X0278150Y0036967D02*
X0268694Y0036967D01*
X0267380Y0038566D02*
X0278150Y0038566D01*
X0278150Y0040164D02*
X0259200Y0040164D01*
X0259200Y0038566D02*
X0260620Y0038566D01*
X0259306Y0036967D02*
X0259200Y0036967D01*
X0254400Y0036967D02*
X0254294Y0036967D01*
X0254400Y0038566D02*
X0252980Y0038566D01*
X0254400Y0040164D02*
X0247280Y0040164D01*
X0245681Y0041763D02*
X0254400Y0041763D01*
X0254400Y0043361D02*
X0244083Y0043361D01*
X0242484Y0044960D02*
X0252896Y0044960D01*
X0251298Y0046558D02*
X0251157Y0046558D01*
X0248043Y0046558D02*
X0240886Y0046558D01*
X0239287Y0048157D02*
X0245598Y0048157D01*
X0244648Y0049755D02*
X0239200Y0049755D01*
X0239200Y0051354D02*
X0244300Y0051354D01*
X0244403Y0052952D02*
X0239200Y0052952D01*
X0240544Y0054551D02*
X0245065Y0054551D01*
X0246613Y0056149D02*
X0240762Y0056149D01*
X0240762Y0057748D02*
X0252304Y0057748D01*
X0253902Y0059346D02*
X0240660Y0059346D01*
X0239851Y0060945D02*
X0254400Y0060945D01*
X0254400Y0062543D02*
X0240762Y0062543D01*
X0240762Y0064142D02*
X0254400Y0064142D01*
X0254400Y0065740D02*
X0253386Y0065740D01*
X0249600Y0069450D02*
X0239300Y0069450D01*
X0236800Y0066950D01*
X0236800Y0064093D01*
X0240762Y0065740D02*
X0245814Y0065740D01*
X0249600Y0069450D02*
X0236800Y0082250D01*
X0236800Y0092007D01*
X0240762Y0091317D02*
X0247017Y0091317D01*
X0245173Y0089718D02*
X0240711Y0089718D01*
X0239200Y0088120D02*
X0244472Y0088120D01*
X0244300Y0086521D02*
X0239200Y0086521D01*
X0239200Y0084923D02*
X0244579Y0084923D01*
X0245431Y0083324D02*
X0239200Y0083324D01*
X0240719Y0081726D02*
X0247639Y0081726D01*
X0243916Y0078529D02*
X0253831Y0078529D01*
X0254400Y0076930D02*
X0245514Y0076930D01*
X0247113Y0075332D02*
X0254400Y0075332D01*
X0254400Y0073733D02*
X0252812Y0073733D01*
X0254225Y0072134D02*
X0254400Y0072134D01*
X0259200Y0072134D02*
X0259375Y0072134D01*
X0259200Y0073733D02*
X0260788Y0073733D01*
X0256800Y0078850D02*
X0256800Y0058850D01*
X0249600Y0051650D01*
X0256800Y0044450D01*
X0256800Y0023850D01*
X0249600Y0016650D01*
X0254900Y0016187D02*
X0258700Y0016187D01*
X0258734Y0017785D02*
X0254866Y0017785D01*
X0255728Y0019384D02*
X0259396Y0019384D01*
X0260837Y0020982D02*
X0257326Y0020982D01*
X0258872Y0022581D02*
X0280275Y0022581D01*
X0278677Y0024179D02*
X0259200Y0024179D01*
X0259200Y0025778D02*
X0278150Y0025778D01*
X0278150Y0027376D02*
X0259200Y0027376D01*
X0253735Y0024179D02*
X0205465Y0024179D01*
X0207063Y0022581D02*
X0252137Y0022581D01*
X0246437Y0020982D02*
X0227163Y0020982D01*
X0228604Y0019384D02*
X0244996Y0019384D01*
X0244334Y0017785D02*
X0229266Y0017785D01*
X0229300Y0016187D02*
X0244300Y0016187D01*
X0244717Y0014588D02*
X0228883Y0014588D01*
X0227835Y0012990D02*
X0245765Y0012990D01*
X0253435Y0012990D02*
X0260165Y0012990D01*
X0259117Y0014588D02*
X0254483Y0014588D01*
X0267835Y0012990D02*
X0285765Y0012990D01*
X0284717Y0014588D02*
X0268883Y0014588D01*
X0269300Y0016187D02*
X0284300Y0016187D01*
X0284334Y0017785D02*
X0269266Y0017785D01*
X0268604Y0019384D02*
X0283472Y0019384D01*
X0281874Y0020982D02*
X0267163Y0020982D01*
X0245981Y0030573D02*
X0227619Y0030573D01*
X0227002Y0029957D02*
X0228493Y0031448D01*
X0229300Y0033396D01*
X0229300Y0035504D01*
X0228493Y0037452D01*
X0227002Y0038943D01*
X0225054Y0039750D01*
X0222946Y0039750D01*
X0220998Y0038943D01*
X0219507Y0037452D01*
X0218700Y0035504D01*
X0218700Y0033396D01*
X0219507Y0031448D01*
X0220998Y0029957D01*
X0222946Y0029150D01*
X0225054Y0029150D01*
X0227002Y0029957D01*
X0228793Y0032172D02*
X0244807Y0032172D01*
X0244300Y0033770D02*
X0229300Y0033770D01*
X0229300Y0035369D02*
X0244300Y0035369D01*
X0243689Y0036967D02*
X0228694Y0036967D01*
X0227380Y0038566D02*
X0242090Y0038566D01*
X0240492Y0040164D02*
X0204200Y0040164D01*
X0204200Y0038566D02*
X0206220Y0038566D01*
X0206598Y0038943D02*
X0205107Y0037452D01*
X0204300Y0035504D01*
X0204300Y0033396D01*
X0205107Y0031448D01*
X0206598Y0029957D01*
X0208546Y0029150D01*
X0210654Y0029150D01*
X0212602Y0029957D01*
X0214093Y0031448D01*
X0214900Y0033396D01*
X0214900Y0035504D01*
X0214093Y0037452D01*
X0212602Y0038943D01*
X0210654Y0039750D01*
X0208546Y0039750D01*
X0206598Y0038943D01*
X0204906Y0036967D02*
X0204200Y0036967D01*
X0204200Y0035369D02*
X0204300Y0035369D01*
X0204300Y0033770D02*
X0204200Y0033770D01*
X0204200Y0032172D02*
X0204807Y0032172D01*
X0204200Y0030573D02*
X0205981Y0030573D01*
X0213219Y0030573D02*
X0220381Y0030573D01*
X0219207Y0032172D02*
X0214393Y0032172D01*
X0214900Y0033770D02*
X0218700Y0033770D01*
X0218700Y0035369D02*
X0214900Y0035369D01*
X0214294Y0036967D02*
X0219306Y0036967D01*
X0220620Y0038566D02*
X0212980Y0038566D01*
X0204200Y0041763D02*
X0238893Y0041763D01*
X0237295Y0043361D02*
X0204705Y0043361D01*
X0206304Y0044960D02*
X0235696Y0044960D01*
X0234489Y0046558D02*
X0225557Y0046558D01*
X0225054Y0046350D02*
X0227002Y0047157D01*
X0228493Y0048648D01*
X0229300Y0050596D01*
X0229300Y0052704D01*
X0228493Y0054652D01*
X0227002Y0056143D01*
X0225054Y0056950D01*
X0222946Y0056950D01*
X0220998Y0056143D01*
X0219507Y0054652D01*
X0218700Y0052704D01*
X0218700Y0050596D01*
X0219507Y0048648D01*
X0220998Y0047157D01*
X0222946Y0046350D01*
X0225054Y0046350D01*
X0222443Y0046558D02*
X0211157Y0046558D01*
X0213602Y0048157D02*
X0219998Y0048157D01*
X0219048Y0049755D02*
X0214552Y0049755D01*
X0214900Y0051354D02*
X0218700Y0051354D01*
X0218803Y0052952D02*
X0214797Y0052952D01*
X0214135Y0054551D02*
X0219465Y0054551D01*
X0221013Y0056149D02*
X0212587Y0056149D01*
X0206896Y0057748D02*
X0232838Y0057748D01*
X0232838Y0056149D02*
X0226987Y0056149D01*
X0228535Y0054551D02*
X0233056Y0054551D01*
X0234400Y0052952D02*
X0229197Y0052952D01*
X0229300Y0051354D02*
X0234400Y0051354D01*
X0234400Y0049755D02*
X0228952Y0049755D01*
X0228002Y0048157D02*
X0234400Y0048157D01*
X0236800Y0047250D02*
X0249600Y0034450D01*
X0259200Y0041763D02*
X0278150Y0041763D01*
X0278717Y0043361D02*
X0259200Y0043361D01*
X0259187Y0044960D02*
X0280316Y0044960D01*
X0281914Y0046558D02*
X0265557Y0046558D01*
X0268002Y0048157D02*
X0283513Y0048157D01*
X0262443Y0046558D02*
X0258086Y0046558D01*
X0256487Y0048157D02*
X0259998Y0048157D01*
X0259048Y0049755D02*
X0254889Y0049755D01*
X0254900Y0051354D02*
X0258700Y0051354D01*
X0258803Y0052952D02*
X0254797Y0052952D01*
X0255895Y0054551D02*
X0259465Y0054551D01*
X0259200Y0065740D02*
X0260214Y0065740D01*
X0243521Y0072134D02*
X0228625Y0072134D01*
X0228493Y0072452D02*
X0227002Y0073943D01*
X0225054Y0074750D01*
X0222946Y0074750D01*
X0220998Y0073943D01*
X0219507Y0072452D01*
X0218700Y0070504D01*
X0218700Y0068396D01*
X0219507Y0066448D01*
X0220998Y0064957D01*
X0222946Y0064150D01*
X0225054Y0064150D01*
X0227002Y0064957D01*
X0228493Y0066448D01*
X0229300Y0068396D01*
X0229300Y0070504D01*
X0228493Y0072452D01*
X0227212Y0073733D02*
X0241923Y0073733D01*
X0240324Y0075332D02*
X0204200Y0075332D01*
X0204200Y0076930D02*
X0238726Y0076930D01*
X0237127Y0078529D02*
X0204423Y0078529D01*
X0206021Y0080127D02*
X0235529Y0080127D01*
X0234419Y0081726D02*
X0225961Y0081726D01*
X0225054Y0081350D02*
X0227002Y0082157D01*
X0228493Y0083648D01*
X0229300Y0085596D01*
X0229300Y0087704D01*
X0228493Y0089652D01*
X0227002Y0091143D01*
X0225054Y0091950D01*
X0222946Y0091950D01*
X0220998Y0091143D01*
X0219507Y0089652D01*
X0218700Y0087704D01*
X0218700Y0085596D01*
X0219507Y0083648D01*
X0220998Y0082157D01*
X0222946Y0081350D01*
X0225054Y0081350D01*
X0222039Y0081726D02*
X0211561Y0081726D01*
X0213769Y0083324D02*
X0219831Y0083324D01*
X0218979Y0084923D02*
X0214621Y0084923D01*
X0214900Y0086521D02*
X0218700Y0086521D01*
X0218872Y0088120D02*
X0214728Y0088120D01*
X0214027Y0089718D02*
X0219573Y0089718D01*
X0221417Y0091317D02*
X0212183Y0091317D01*
X0206729Y0092915D02*
X0232838Y0092915D01*
X0232838Y0091317D02*
X0226583Y0091317D01*
X0228427Y0089718D02*
X0232889Y0089718D01*
X0234400Y0088120D02*
X0229128Y0088120D01*
X0229300Y0086521D02*
X0234400Y0086521D01*
X0234400Y0084923D02*
X0229021Y0084923D01*
X0228169Y0083324D02*
X0234400Y0083324D01*
X0242317Y0080127D02*
X0252355Y0080127D01*
X0256800Y0078850D02*
X0249600Y0086650D01*
X0256800Y0093850D01*
X0256800Y0114300D01*
X0249600Y0121500D01*
X0249600Y0121650D01*
X0254900Y0121688D02*
X0258700Y0121688D01*
X0258700Y0122704D02*
X0258700Y0120596D01*
X0259507Y0118648D01*
X0260998Y0117157D01*
X0262946Y0116350D01*
X0265054Y0116350D01*
X0267002Y0117157D01*
X0268493Y0118648D01*
X0269300Y0120596D01*
X0269300Y0122704D01*
X0268493Y0124652D01*
X0267002Y0126143D01*
X0265054Y0126950D01*
X0262946Y0126950D01*
X0260998Y0126143D01*
X0259507Y0124652D01*
X0258700Y0122704D01*
X0258941Y0123287D02*
X0254659Y0123287D01*
X0253860Y0124885D02*
X0259740Y0124885D01*
X0261820Y0126484D02*
X0251780Y0126484D01*
X0247420Y0126484D02*
X0240762Y0126484D01*
X0240762Y0128082D02*
X0317000Y0128082D01*
X0317000Y0126484D02*
X0291780Y0126484D01*
X0293860Y0124885D02*
X0317000Y0124885D01*
X0317000Y0123287D02*
X0294659Y0123287D01*
X0287420Y0126484D02*
X0266180Y0126484D01*
X0268260Y0124885D02*
X0285340Y0124885D01*
X0284541Y0123287D02*
X0269059Y0123287D01*
X0269300Y0121688D02*
X0284300Y0121688D01*
X0284510Y0120090D02*
X0269090Y0120090D01*
X0268337Y0118491D02*
X0283047Y0118491D01*
X0270900Y0116893D02*
X0266365Y0116893D01*
X0261635Y0116893D02*
X0257751Y0116893D01*
X0256153Y0118491D02*
X0259663Y0118491D01*
X0258910Y0120090D02*
X0254690Y0120090D01*
X0244510Y0120090D02*
X0239200Y0120090D01*
X0239200Y0121688D02*
X0244300Y0121688D01*
X0244541Y0123287D02*
X0239200Y0123287D01*
X0240762Y0124885D02*
X0245340Y0124885D01*
X0236800Y0127007D02*
X0236800Y0105700D01*
X0238050Y0104450D01*
X0249600Y0104450D01*
X0239450Y0104450D01*
X0236800Y0101800D01*
X0236800Y0099093D01*
X0240762Y0099309D02*
X0248161Y0099309D01*
X0251039Y0099309D02*
X0254400Y0099309D01*
X0254400Y0097711D02*
X0240762Y0097711D01*
X0240019Y0096112D02*
X0254400Y0096112D01*
X0254070Y0094514D02*
X0240493Y0094514D01*
X0240762Y0092915D02*
X0252471Y0092915D01*
X0266583Y0091317D02*
X0281389Y0091317D01*
X0282988Y0089718D02*
X0268427Y0089718D01*
X0269128Y0088120D02*
X0284472Y0088120D01*
X0284300Y0086521D02*
X0269300Y0086521D01*
X0269021Y0084923D02*
X0284028Y0084923D01*
X0282430Y0083324D02*
X0268169Y0083324D01*
X0289150Y0086650D02*
X0289600Y0086650D01*
X0293553Y0100908D02*
X0317000Y0100908D01*
X0317000Y0102506D02*
X0294532Y0102506D01*
X0294900Y0104105D02*
X0317000Y0104105D01*
X0317000Y0105703D02*
X0294818Y0105703D01*
X0294155Y0107302D02*
X0317000Y0107302D01*
X0317000Y0108900D02*
X0292645Y0108900D01*
X0270082Y0110499D02*
X0259200Y0110499D01*
X0259200Y0108900D02*
X0260955Y0108900D01*
X0259445Y0107302D02*
X0259200Y0107302D01*
X0259200Y0100908D02*
X0260047Y0100908D01*
X0254400Y0100908D02*
X0253553Y0100908D01*
X0245647Y0100908D02*
X0240762Y0100908D01*
X0234495Y0102506D02*
X0228932Y0102506D01*
X0229300Y0103396D02*
X0228493Y0101448D01*
X0227002Y0099957D01*
X0225054Y0099150D01*
X0222946Y0099150D01*
X0220998Y0099957D01*
X0219507Y0101448D01*
X0218700Y0103396D01*
X0218700Y0105504D01*
X0219507Y0107452D01*
X0220998Y0108943D01*
X0222946Y0109750D01*
X0225054Y0109750D01*
X0227002Y0108943D01*
X0228493Y0107452D01*
X0229300Y0105504D01*
X0229300Y0103396D01*
X0229300Y0104105D02*
X0235001Y0104105D01*
X0234400Y0105703D02*
X0229218Y0105703D01*
X0228555Y0107302D02*
X0234400Y0107302D01*
X0234400Y0108900D02*
X0227045Y0108900D01*
X0230082Y0110499D02*
X0204200Y0110499D01*
X0204200Y0112097D02*
X0215759Y0112097D01*
X0214160Y0113696D02*
X0204590Y0113696D01*
X0206188Y0115294D02*
X0212562Y0115294D01*
X0216153Y0118491D02*
X0219663Y0118491D01*
X0219507Y0118648D02*
X0220998Y0117157D01*
X0222946Y0116350D01*
X0225054Y0116350D01*
X0227002Y0117157D01*
X0228493Y0118648D01*
X0229300Y0120596D01*
X0229300Y0122704D01*
X0228493Y0124652D01*
X0227002Y0126143D01*
X0225054Y0126950D01*
X0222946Y0126950D01*
X0220998Y0126143D01*
X0219507Y0124652D01*
X0218700Y0122704D01*
X0218700Y0120596D01*
X0219507Y0118648D01*
X0218910Y0120090D02*
X0214690Y0120090D01*
X0214900Y0121688D02*
X0218700Y0121688D01*
X0218941Y0123287D02*
X0214659Y0123287D01*
X0213860Y0124885D02*
X0219740Y0124885D01*
X0221820Y0126484D02*
X0211780Y0126484D01*
X0207420Y0126484D02*
X0200762Y0126484D01*
X0200762Y0128082D02*
X0232838Y0128082D01*
X0232838Y0126484D02*
X0226180Y0126484D01*
X0228260Y0124885D02*
X0232838Y0124885D01*
X0234400Y0123287D02*
X0229059Y0123287D01*
X0229300Y0121688D02*
X0234400Y0121688D01*
X0234400Y0120090D02*
X0229090Y0120090D01*
X0228337Y0118491D02*
X0234400Y0118491D01*
X0230900Y0116893D02*
X0226365Y0116893D01*
X0221635Y0116893D02*
X0217751Y0116893D01*
X0209600Y0121650D02*
X0209150Y0121650D01*
X0201800Y0114300D01*
X0206598Y0108943D02*
X0208546Y0109750D01*
X0210654Y0109750D01*
X0212602Y0108943D01*
X0214093Y0107452D01*
X0214900Y0105504D01*
X0214900Y0103396D01*
X0214093Y0101448D01*
X0212602Y0099957D01*
X0210654Y0099150D01*
X0208546Y0099150D01*
X0206598Y0099957D01*
X0205107Y0101448D01*
X0204300Y0103396D01*
X0204300Y0105504D01*
X0205107Y0107452D01*
X0206598Y0108943D01*
X0206555Y0108900D02*
X0204200Y0108900D01*
X0204200Y0107302D02*
X0205045Y0107302D01*
X0204382Y0105703D02*
X0204200Y0105703D01*
X0204200Y0104105D02*
X0204300Y0104105D01*
X0204200Y0102506D02*
X0204668Y0102506D01*
X0204200Y0100908D02*
X0205647Y0100908D01*
X0204200Y0099309D02*
X0208161Y0099309D01*
X0211039Y0099309D02*
X0222561Y0099309D01*
X0225439Y0099309D02*
X0232838Y0099309D01*
X0232838Y0097711D02*
X0204200Y0097711D01*
X0204200Y0096112D02*
X0233581Y0096112D01*
X0233107Y0094514D02*
X0205130Y0094514D01*
X0201539Y0091317D02*
X0186583Y0091317D01*
X0187002Y0091143D02*
X0185054Y0091950D01*
X0182946Y0091950D01*
X0180998Y0091143D01*
X0179507Y0089652D01*
X0178700Y0087704D01*
X0178700Y0085596D01*
X0179507Y0083648D01*
X0180998Y0082157D01*
X0182946Y0081350D01*
X0185054Y0081350D01*
X0187002Y0082157D01*
X0188493Y0083648D01*
X0189300Y0085596D01*
X0189300Y0087704D01*
X0188493Y0089652D01*
X0187002Y0091143D01*
X0188427Y0089718D02*
X0203138Y0089718D01*
X0204472Y0088120D02*
X0189128Y0088120D01*
X0189300Y0086521D02*
X0204300Y0086521D01*
X0204028Y0084923D02*
X0189021Y0084923D01*
X0188169Y0083324D02*
X0202430Y0083324D01*
X0200831Y0081726D02*
X0185961Y0081726D01*
X0182039Y0081726D02*
X0160716Y0081726D01*
X0160716Y0083324D02*
X0179831Y0083324D01*
X0178979Y0084923D02*
X0160716Y0084923D01*
X0160716Y0086521D02*
X0178700Y0086521D01*
X0178872Y0088120D02*
X0160716Y0088120D01*
X0160716Y0089718D02*
X0179573Y0089718D01*
X0181417Y0091317D02*
X0165713Y0091317D01*
X0165919Y0092915D02*
X0199941Y0092915D01*
X0199400Y0094514D02*
X0165919Y0094514D01*
X0165919Y0096112D02*
X0199400Y0096112D01*
X0199400Y0097711D02*
X0165919Y0097711D01*
X0164856Y0099309D02*
X0182561Y0099309D01*
X0185439Y0099309D02*
X0199400Y0099309D01*
X0199400Y0100908D02*
X0187953Y0100908D01*
X0188932Y0102506D02*
X0199400Y0102506D01*
X0199400Y0104105D02*
X0189300Y0104105D01*
X0189218Y0105703D02*
X0199400Y0105703D01*
X0199400Y0107302D02*
X0196946Y0107302D01*
X0195550Y0109300D02*
X0164300Y0109300D01*
X0158316Y0115284D01*
X0158316Y0123694D01*
X0163434Y0123694D02*
X0163434Y0115166D01*
X0165550Y0113050D01*
X0171550Y0113050D01*
X0171800Y0113300D01*
X0168209Y0116893D02*
X0165834Y0116893D01*
X0165834Y0118491D02*
X0179663Y0118491D01*
X0178910Y0120090D02*
X0165834Y0120090D01*
X0165834Y0121688D02*
X0178700Y0121688D01*
X0178941Y0123287D02*
X0165834Y0123287D01*
X0165834Y0124885D02*
X0179740Y0124885D01*
X0179194Y0126484D02*
X0181820Y0126484D01*
X0176800Y0128050D02*
X0164300Y0128050D01*
X0163050Y0129300D01*
X0163434Y0128916D02*
X0163434Y0123694D01*
X0160308Y0128082D02*
X0146575Y0128082D01*
X0147268Y0129681D02*
X0157883Y0129681D01*
X0157166Y0131279D02*
X0148424Y0131279D01*
X0150022Y0132878D02*
X0157333Y0132878D01*
X0158440Y0134476D02*
X0150450Y0134476D01*
X0150450Y0136075D02*
X0179880Y0136075D01*
X0179507Y0136448D02*
X0180998Y0134957D01*
X0182946Y0134150D01*
X0185054Y0134150D01*
X0187002Y0134957D01*
X0188493Y0136448D01*
X0189300Y0138396D01*
X0189300Y0140504D01*
X0188493Y0142452D01*
X0187002Y0143943D01*
X0185054Y0144750D01*
X0182946Y0144750D01*
X0180998Y0143943D01*
X0179507Y0142452D01*
X0178700Y0140504D01*
X0178700Y0138396D01*
X0179507Y0136448D01*
X0178999Y0137673D02*
X0150450Y0137673D01*
X0150450Y0139272D02*
X0178700Y0139272D01*
X0178852Y0140870D02*
X0167848Y0140870D01*
X0171800Y0145300D02*
X0156501Y0145300D01*
X0155501Y0145550D01*
X0148050Y0144300D01*
X0148050Y0134300D01*
X0145550Y0131800D01*
X0144093Y0131800D01*
X0140402Y0128109D01*
X0140402Y0123694D01*
X0137843Y0123694D02*
X0137843Y0130963D01*
X0137007Y0131800D01*
X0130343Y0131800D01*
X0127169Y0131279D02*
X0126431Y0131279D01*
X0126431Y0129681D02*
X0127169Y0129681D01*
X0127169Y0128775D02*
X0128106Y0127838D01*
X0128612Y0127838D01*
X0127881Y0127106D01*
X0127881Y0126755D01*
X0127467Y0127169D01*
X0126223Y0127684D01*
X0124877Y0127684D01*
X0123633Y0127169D01*
X0122681Y0126217D01*
X0122166Y0124973D01*
X0122166Y0123627D01*
X0122681Y0122383D01*
X0123633Y0121431D01*
X0124877Y0120916D01*
X0126223Y0120916D01*
X0127467Y0121431D01*
X0127881Y0121845D01*
X0127881Y0120281D01*
X0128818Y0119344D01*
X0133488Y0119344D01*
X0133150Y0118527D01*
X0133150Y0111323D01*
X0133515Y0110441D01*
X0134191Y0109765D01*
X0134756Y0109200D01*
X0132794Y0109200D01*
X0100656Y0141338D01*
X0105022Y0141338D01*
X0105672Y0141988D01*
X0105672Y0140950D01*
X0106610Y0140013D01*
X0118150Y0140013D01*
X0118150Y0133823D01*
X0118515Y0132941D01*
X0119191Y0132265D01*
X0120082Y0131374D01*
X0120082Y0128775D01*
X0121019Y0127838D01*
X0125494Y0127838D01*
X0126431Y0128775D01*
X0126431Y0134825D01*
X0125494Y0135762D01*
X0122950Y0135762D01*
X0122950Y0140013D01*
X0129589Y0140013D01*
X0130526Y0140950D01*
X0130526Y0150150D01*
X0129589Y0151087D01*
X0106610Y0151087D01*
X0106135Y0150613D01*
X0106159Y0150701D01*
X0106159Y0152919D01*
X0102181Y0152919D01*
X0102181Y0153681D01*
X0106159Y0153681D01*
X0106159Y0155899D01*
X0106036Y0156357D01*
X0105799Y0156767D01*
X0105567Y0157000D01*
X0168033Y0157000D01*
X0167801Y0156767D01*
X0167564Y0156357D01*
X0167441Y0155899D01*
X0167441Y0153681D01*
X0171419Y0153681D01*
X0171419Y0152919D01*
X0167441Y0152919D01*
X0167441Y0150701D01*
X0167465Y0150613D01*
X0166990Y0151087D01*
X0144011Y0151087D01*
X0143074Y0150150D01*
X0143074Y0140950D01*
X0144011Y0140013D01*
X0145650Y0140013D01*
X0145650Y0135762D01*
X0141856Y0135762D01*
X0140919Y0134825D01*
X0140919Y0132019D01*
X0140243Y0131344D01*
X0140243Y0131441D01*
X0140181Y0131590D01*
X0140181Y0134825D01*
X0139244Y0135762D01*
X0134769Y0135762D01*
X0133832Y0134825D01*
X0133832Y0134200D01*
X0133518Y0134200D01*
X0133518Y0134825D01*
X0132581Y0135762D01*
X0128106Y0135762D01*
X0127169Y0134825D01*
X0127169Y0128775D01*
X0127861Y0128082D02*
X0125739Y0128082D01*
X0122948Y0126484D02*
X0115510Y0126484D01*
X0113912Y0128082D02*
X0120775Y0128082D01*
X0120082Y0129681D02*
X0112313Y0129681D01*
X0110715Y0131279D02*
X0120082Y0131279D01*
X0118578Y0132878D02*
X0109116Y0132878D01*
X0107518Y0134476D02*
X0118150Y0134476D01*
X0118150Y0136075D02*
X0105919Y0136075D01*
X0104321Y0137673D02*
X0118150Y0137673D01*
X0118150Y0139272D02*
X0102722Y0139272D01*
X0101124Y0140870D02*
X0105752Y0140870D01*
X0101800Y0145300D02*
X0111800Y0145300D01*
X0113257Y0143843D01*
X0111800Y0145300D02*
X0115800Y0145300D01*
X0116800Y0144300D01*
X0118099Y0145550D01*
X0120550Y0143099D01*
X0120550Y0134300D01*
X0123050Y0131800D01*
X0123257Y0131800D01*
X0126431Y0132878D02*
X0127169Y0132878D01*
X0127169Y0134476D02*
X0126431Y0134476D01*
X0122950Y0136075D02*
X0145650Y0136075D01*
X0145650Y0137673D02*
X0122950Y0137673D01*
X0122950Y0139272D02*
X0145650Y0139272D01*
X0143154Y0140870D02*
X0130446Y0140870D01*
X0130526Y0142469D02*
X0143074Y0142469D01*
X0143074Y0144068D02*
X0130526Y0144068D01*
X0130526Y0145666D02*
X0143074Y0145666D01*
X0143074Y0147265D02*
X0130526Y0147265D01*
X0130526Y0148863D02*
X0143074Y0148863D01*
X0143386Y0150462D02*
X0130214Y0150462D01*
X0106159Y0152060D02*
X0167441Y0152060D01*
X0171419Y0153659D02*
X0102181Y0153659D01*
X0101419Y0153659D02*
X0088336Y0153659D01*
X0089934Y0152060D02*
X0097441Y0152060D01*
X0097505Y0150462D02*
X0091533Y0150462D01*
X0093131Y0148863D02*
X0098179Y0148863D01*
X0097641Y0147265D02*
X0094730Y0147265D01*
X0096328Y0145666D02*
X0097641Y0145666D01*
X0091800Y0141800D02*
X0130550Y0103050D01*
X0134300Y0103050D01*
X0137843Y0099507D01*
X0137843Y0094906D01*
X0140402Y0094906D02*
X0140402Y0101948D01*
X0135550Y0106800D01*
X0131800Y0106800D01*
X0086800Y0151800D01*
X0031800Y0151800D01*
X0027266Y0153659D02*
X0021992Y0153659D01*
X0022332Y0153319D02*
X0021627Y0154024D01*
X0021482Y0154084D01*
X0021168Y0154366D01*
X0019459Y0154922D01*
X0018495Y0155321D01*
X0018230Y0155321D01*
X0017713Y0155489D01*
X0016116Y0155321D01*
X0015105Y0155321D01*
X0014761Y0155179D01*
X0014100Y0155109D01*
X0012847Y0154386D01*
X0011973Y0154024D01*
X0011636Y0153687D01*
X0010954Y0153293D01*
X0010188Y0152239D01*
X0009576Y0151627D01*
X0009354Y0151091D01*
X0008818Y0150354D01*
X0008576Y0149212D01*
X0008279Y0148495D01*
X0008279Y0147815D01*
X0008063Y0146800D01*
X0008279Y0145785D01*
X0008279Y0145105D01*
X0008576Y0144388D01*
X0008818Y0143246D01*
X0009354Y0142509D01*
X0009576Y0141973D01*
X0010188Y0141361D01*
X0010954Y0140307D01*
X0011636Y0139913D01*
X0011973Y0139576D01*
X0012847Y0139214D01*
X0014100Y0138491D01*
X0014761Y0138421D01*
X0015105Y0138279D01*
X0016116Y0138279D01*
X0017713Y0138111D01*
X0018230Y0138279D01*
X0018495Y0138279D01*
X0019459Y0138678D01*
X0021169Y0139234D01*
X0021482Y0139516D01*
X0021627Y0139576D01*
X0022332Y0140281D01*
X0023868Y0141665D01*
X0023991Y0141940D01*
X0024024Y0141973D01*
X0024267Y0142560D01*
X0025346Y0144983D01*
X0025346Y0148617D01*
X0024267Y0151040D01*
X0024024Y0151627D01*
X0023991Y0151660D01*
X0023868Y0151935D01*
X0022332Y0153319D01*
X0023730Y0152060D02*
X0026900Y0152060D01*
X0027051Y0150462D02*
X0024525Y0150462D01*
X0025236Y0148863D02*
X0027807Y0148863D01*
X0029945Y0147265D02*
X0025346Y0147265D01*
X0025346Y0145666D02*
X0028736Y0145666D01*
X0027436Y0144068D02*
X0024938Y0144068D01*
X0024229Y0142469D02*
X0026900Y0142469D01*
X0026900Y0140870D02*
X0022987Y0140870D01*
X0021211Y0139272D02*
X0027543Y0139272D01*
X0028997Y0137673D02*
X0006600Y0137673D01*
X0006600Y0136075D02*
X0029316Y0136075D01*
X0027605Y0134476D02*
X0006600Y0134476D01*
X0006600Y0132878D02*
X0026943Y0132878D01*
X0026900Y0131279D02*
X0020516Y0131279D01*
X0019802Y0131993D02*
X0017854Y0132800D01*
X0015746Y0132800D01*
X0013798Y0131993D01*
X0012307Y0130502D01*
X0011500Y0128554D01*
X0011500Y0126446D01*
X0012307Y0124498D01*
X0013798Y0123007D01*
X0015746Y0122200D01*
X0017854Y0122200D01*
X0019802Y0123007D01*
X0021293Y0124498D01*
X0022100Y0126446D01*
X0022100Y0128554D01*
X0021293Y0130502D01*
X0019802Y0131993D01*
X0021633Y0129681D02*
X0027374Y0129681D01*
X0028588Y0128082D02*
X0022100Y0128082D01*
X0022100Y0126484D02*
X0029759Y0126484D01*
X0029842Y0126526D02*
X0029127Y0126162D01*
X0028478Y0125690D01*
X0027910Y0125122D01*
X0027438Y0124473D01*
X0027074Y0123758D01*
X0026826Y0122994D01*
X0026700Y0122201D01*
X0026700Y0121984D01*
X0031616Y0121984D01*
X0031616Y0121616D01*
X0031984Y0121616D01*
X0031984Y0116700D01*
X0032201Y0116700D01*
X0032994Y0116826D01*
X0033758Y0117074D01*
X0034473Y0117438D01*
X0035122Y0117910D01*
X0035690Y0118478D01*
X0036162Y0119127D01*
X0036526Y0119842D01*
X0036774Y0120606D01*
X0036900Y0121399D01*
X0036900Y0121616D01*
X0031984Y0121616D01*
X0031984Y0121984D01*
X0036900Y0121984D01*
X0036900Y0122201D01*
X0036774Y0122994D01*
X0036526Y0123758D01*
X0036162Y0124473D01*
X0035690Y0125122D01*
X0035122Y0125690D01*
X0034473Y0126162D01*
X0033758Y0126526D01*
X0032994Y0126774D01*
X0032201Y0126900D01*
X0031984Y0126900D01*
X0031984Y0121984D01*
X0031616Y0121984D01*
X0031616Y0126900D01*
X0031399Y0126900D01*
X0030606Y0126774D01*
X0029842Y0126526D01*
X0031616Y0126484D02*
X0031984Y0126484D01*
X0031984Y0124885D02*
X0031616Y0124885D01*
X0031616Y0123287D02*
X0031984Y0123287D01*
X0031984Y0121688D02*
X0075794Y0121688D01*
X0074196Y0120090D02*
X0036607Y0120090D01*
X0035700Y0118491D02*
X0072597Y0118491D01*
X0070999Y0116893D02*
X0033201Y0116893D01*
X0031984Y0116893D02*
X0031616Y0116893D01*
X0031616Y0116700D02*
X0031616Y0121616D01*
X0026700Y0121616D01*
X0026700Y0121399D01*
X0026826Y0120606D01*
X0027074Y0119842D01*
X0027438Y0119127D01*
X0027910Y0118478D01*
X0028478Y0117910D01*
X0029127Y0117438D01*
X0029842Y0117074D01*
X0030606Y0116826D01*
X0031399Y0116700D01*
X0031616Y0116700D01*
X0030399Y0116893D02*
X0022100Y0116893D01*
X0022100Y0117854D02*
X0022100Y0115746D01*
X0021293Y0113798D01*
X0019802Y0112307D01*
X0017854Y0111500D01*
X0015746Y0111500D01*
X0013798Y0112307D01*
X0012307Y0113798D01*
X0011500Y0115746D01*
X0011500Y0117854D01*
X0012307Y0119802D01*
X0013798Y0121293D01*
X0015746Y0122100D01*
X0017854Y0122100D01*
X0019802Y0121293D01*
X0021293Y0119802D01*
X0022100Y0117854D01*
X0021836Y0118491D02*
X0027900Y0118491D01*
X0026993Y0120090D02*
X0021005Y0120090D01*
X0018848Y0121688D02*
X0031616Y0121688D01*
X0031616Y0120090D02*
X0031984Y0120090D01*
X0031984Y0118491D02*
X0031616Y0118491D01*
X0026921Y0123287D02*
X0020082Y0123287D01*
X0021454Y0124885D02*
X0027738Y0124885D01*
X0033841Y0126484D02*
X0079198Y0126484D01*
X0078931Y0126217D02*
X0078416Y0124973D01*
X0078416Y0124310D01*
X0020650Y0066544D01*
X0020275Y0066700D01*
X0018325Y0066700D01*
X0016524Y0065954D01*
X0015146Y0064576D01*
X0014400Y0062775D01*
X0014400Y0060825D01*
X0015146Y0059024D01*
X0016524Y0057646D01*
X0018325Y0056900D01*
X0020275Y0056900D01*
X0022076Y0057646D01*
X0023454Y0059024D01*
X0024200Y0060825D01*
X0024200Y0062775D01*
X0024044Y0063150D01*
X0081810Y0120916D01*
X0082473Y0120916D01*
X0083717Y0121431D01*
X0084669Y0122383D01*
X0085184Y0123627D01*
X0085184Y0124973D01*
X0084669Y0126217D01*
X0083717Y0127169D01*
X0082473Y0127684D01*
X0081127Y0127684D01*
X0079883Y0127169D01*
X0078931Y0126217D01*
X0078416Y0124885D02*
X0035862Y0124885D01*
X0036679Y0123287D02*
X0077393Y0123287D01*
X0081800Y0124300D02*
X0019300Y0061800D01*
X0015013Y0059346D02*
X0006600Y0059346D01*
X0006600Y0057748D02*
X0016422Y0057748D01*
X0017342Y0056526D02*
X0016627Y0056162D01*
X0015978Y0055690D01*
X0015410Y0055122D01*
X0014938Y0054473D01*
X0014574Y0053758D01*
X0014326Y0052994D01*
X0014200Y0052201D01*
X0014200Y0051984D01*
X0019116Y0051984D01*
X0019116Y0051616D01*
X0019484Y0051616D01*
X0019484Y0051984D01*
X0019116Y0051984D01*
X0019116Y0056900D01*
X0018899Y0056900D01*
X0018106Y0056774D01*
X0017342Y0056526D01*
X0016610Y0056149D02*
X0006600Y0056149D01*
X0006600Y0054551D02*
X0014995Y0054551D01*
X0014319Y0052952D02*
X0006600Y0052952D01*
X0006600Y0051354D02*
X0014207Y0051354D01*
X0014200Y0051399D02*
X0014326Y0050606D01*
X0014574Y0049842D01*
X0014938Y0049127D01*
X0015410Y0048478D01*
X0015978Y0047910D01*
X0016627Y0047438D01*
X0017342Y0047074D01*
X0018106Y0046826D01*
X0018899Y0046700D01*
X0019116Y0046700D01*
X0019116Y0051616D01*
X0014200Y0051616D01*
X0014200Y0051399D01*
X0014618Y0049755D02*
X0006600Y0049755D01*
X0006600Y0048157D02*
X0015731Y0048157D01*
X0017983Y0046558D02*
X0006600Y0046558D01*
X0006600Y0044960D02*
X0015530Y0044960D01*
X0014643Y0043361D02*
X0006600Y0043361D01*
X0006600Y0041763D02*
X0014400Y0041763D01*
X0014674Y0040164D02*
X0006600Y0040164D01*
X0006600Y0038566D02*
X0015605Y0038566D01*
X0019300Y0041800D02*
X0054300Y0076800D01*
X0120550Y0076800D01*
X0125550Y0081800D01*
X0125550Y0086800D01*
X0130166Y0091416D01*
X0130166Y0094906D01*
X0131862Y0089718D02*
X0150798Y0089718D01*
X0150463Y0088120D02*
X0148137Y0088120D01*
X0147994Y0088262D02*
X0143519Y0088262D01*
X0142582Y0087325D01*
X0142582Y0086700D01*
X0141326Y0086700D01*
X0141124Y0087189D01*
X0139689Y0088624D01*
X0137814Y0089400D01*
X0135786Y0089400D01*
X0133911Y0088624D01*
X0132476Y0087189D01*
X0131700Y0085314D01*
X0131700Y0083286D01*
X0132476Y0081411D01*
X0133911Y0079976D01*
X0135786Y0079200D01*
X0137814Y0079200D01*
X0139689Y0079976D01*
X0141124Y0081411D01*
X0141326Y0081900D01*
X0142582Y0081900D01*
X0142582Y0081275D01*
X0143519Y0080338D01*
X0147994Y0080338D01*
X0148931Y0081275D01*
X0148931Y0087325D01*
X0147994Y0088262D01*
X0148931Y0086521D02*
X0149669Y0086521D01*
X0149669Y0084923D02*
X0148931Y0084923D01*
X0148931Y0083324D02*
X0149669Y0083324D01*
X0149669Y0081726D02*
X0148931Y0081726D01*
X0145757Y0084300D02*
X0136800Y0084300D01*
X0132200Y0086521D02*
X0128665Y0086521D01*
X0127950Y0084923D02*
X0131700Y0084923D01*
X0131700Y0083324D02*
X0127950Y0083324D01*
X0127950Y0081726D02*
X0132346Y0081726D01*
X0133760Y0080127D02*
X0127271Y0080127D01*
X0125673Y0078529D02*
X0155916Y0078529D01*
X0155916Y0080127D02*
X0139840Y0080127D01*
X0141254Y0081726D02*
X0142582Y0081726D01*
X0144513Y0075332D02*
X0139417Y0075332D01*
X0139316Y0075405D02*
X0138643Y0075748D01*
X0137924Y0075982D01*
X0137178Y0076100D01*
X0137000Y0076100D01*
X0137000Y0071500D01*
X0136600Y0071500D01*
X0136600Y0076100D01*
X0136422Y0076100D01*
X0135676Y0075982D01*
X0134957Y0075748D01*
X0134284Y0075405D01*
X0133673Y0074961D01*
X0133139Y0074427D01*
X0132695Y0073816D01*
X0132352Y0073143D01*
X0132118Y0072424D01*
X0132000Y0071678D01*
X0132000Y0071500D01*
X0136600Y0071500D01*
X0136600Y0071100D01*
X0132000Y0071100D01*
X0132000Y0070922D01*
X0132118Y0070176D01*
X0132352Y0069457D01*
X0132695Y0068784D01*
X0133139Y0068173D01*
X0133673Y0067639D01*
X0134284Y0067195D01*
X0134957Y0066852D01*
X0135676Y0066618D01*
X0136422Y0066500D01*
X0136600Y0066500D01*
X0136600Y0071100D01*
X0137000Y0071100D01*
X0137000Y0071500D01*
X0141600Y0071500D01*
X0141600Y0071678D01*
X0141482Y0072424D01*
X0141248Y0073143D01*
X0140905Y0073816D01*
X0140461Y0074427D01*
X0139927Y0074961D01*
X0139316Y0075405D01*
X0137000Y0075332D02*
X0136600Y0075332D01*
X0136600Y0073733D02*
X0137000Y0073733D01*
X0137000Y0072134D02*
X0136600Y0072134D01*
X0137000Y0071100D02*
X0141600Y0071100D01*
X0141600Y0070922D01*
X0141482Y0070176D01*
X0141248Y0069457D01*
X0140905Y0068784D01*
X0140461Y0068173D01*
X0139927Y0067639D01*
X0139316Y0067195D01*
X0138643Y0066852D01*
X0137924Y0066618D01*
X0137178Y0066500D01*
X0137000Y0066500D01*
X0137000Y0071100D01*
X0137000Y0070536D02*
X0136600Y0070536D01*
X0136600Y0068937D02*
X0137000Y0068937D01*
X0137000Y0067339D02*
X0136600Y0067339D01*
X0134086Y0067339D02*
X0129258Y0067339D01*
X0129406Y0067400D02*
X0130700Y0068694D01*
X0131400Y0070385D01*
X0131400Y0072215D01*
X0130700Y0073906D01*
X0129406Y0075200D01*
X0127715Y0075900D01*
X0125885Y0075900D01*
X0124194Y0075200D01*
X0122900Y0073906D01*
X0122200Y0072215D01*
X0122200Y0070385D01*
X0122900Y0068694D01*
X0124194Y0067400D01*
X0125885Y0066700D01*
X0127715Y0066700D01*
X0129406Y0067400D01*
X0130800Y0068937D02*
X0132617Y0068937D01*
X0132061Y0070536D02*
X0131400Y0070536D01*
X0131400Y0072134D02*
X0132072Y0072134D01*
X0132653Y0073733D02*
X0130771Y0073733D01*
X0129087Y0075332D02*
X0134183Y0075332D01*
X0140947Y0073733D02*
X0142829Y0073733D01*
X0142200Y0072134D02*
X0141528Y0072134D01*
X0141539Y0070536D02*
X0142200Y0070536D01*
X0142800Y0068937D02*
X0140983Y0068937D01*
X0139514Y0067339D02*
X0144342Y0067339D01*
X0147346Y0065740D02*
X0046635Y0065740D01*
X0045036Y0064142D02*
X0145748Y0064142D01*
X0144149Y0062543D02*
X0043438Y0062543D01*
X0041839Y0060945D02*
X0142551Y0060945D01*
X0140952Y0059346D02*
X0040241Y0059346D01*
X0038642Y0057748D02*
X0139354Y0057748D01*
X0137755Y0056149D02*
X0037043Y0056149D01*
X0035445Y0054551D02*
X0136157Y0054551D01*
X0134558Y0052952D02*
X0033846Y0052952D01*
X0032248Y0051354D02*
X0132960Y0051354D01*
X0139748Y0051354D02*
X0178700Y0051354D01*
X0178803Y0052952D02*
X0141346Y0052952D01*
X0142945Y0054551D02*
X0179465Y0054551D01*
X0181013Y0056149D02*
X0144543Y0056149D01*
X0146142Y0057748D02*
X0200108Y0057748D01*
X0199400Y0059346D02*
X0147741Y0059346D01*
X0149339Y0060945D02*
X0199400Y0060945D01*
X0199400Y0062543D02*
X0150938Y0062543D01*
X0152536Y0064142D02*
X0199400Y0064142D01*
X0199400Y0065740D02*
X0187786Y0065740D01*
X0188493Y0066448D02*
X0189300Y0068396D01*
X0189300Y0070504D01*
X0188493Y0072452D01*
X0187002Y0073943D01*
X0185054Y0074750D01*
X0182946Y0074750D01*
X0180998Y0073943D01*
X0179507Y0072452D01*
X0178700Y0070504D01*
X0178700Y0068396D01*
X0179507Y0066448D01*
X0180998Y0064957D01*
X0182946Y0064150D01*
X0185054Y0064150D01*
X0187002Y0064957D01*
X0188493Y0066448D01*
X0188862Y0067339D02*
X0199400Y0067339D01*
X0199400Y0068937D02*
X0189300Y0068937D01*
X0189287Y0070536D02*
X0199400Y0070536D01*
X0199400Y0072134D02*
X0188625Y0072134D01*
X0187212Y0073733D02*
X0199400Y0073733D01*
X0199400Y0075332D02*
X0160716Y0075332D01*
X0160716Y0076930D02*
X0199400Y0076930D01*
X0199400Y0078529D02*
X0160716Y0078529D01*
X0160716Y0080127D02*
X0199545Y0080127D01*
X0204200Y0073733D02*
X0206388Y0073733D01*
X0206598Y0073943D02*
X0205107Y0072452D01*
X0204300Y0070504D01*
X0204300Y0068396D01*
X0205107Y0066448D01*
X0206598Y0064957D01*
X0208546Y0064150D01*
X0210654Y0064150D01*
X0212602Y0064957D01*
X0214093Y0066448D01*
X0214900Y0068396D01*
X0214900Y0070504D01*
X0214093Y0072452D01*
X0212602Y0073943D01*
X0210654Y0074750D01*
X0208546Y0074750D01*
X0206598Y0073943D01*
X0204975Y0072134D02*
X0204200Y0072134D01*
X0204200Y0070536D02*
X0204313Y0070536D01*
X0204300Y0068937D02*
X0204200Y0068937D01*
X0204200Y0067339D02*
X0204738Y0067339D01*
X0204200Y0065740D02*
X0205814Y0065740D01*
X0204200Y0064142D02*
X0232838Y0064142D01*
X0232838Y0065740D02*
X0227786Y0065740D01*
X0228862Y0067339D02*
X0234400Y0067339D01*
X0235393Y0068937D02*
X0229300Y0068937D01*
X0229287Y0070536D02*
X0236992Y0070536D01*
X0232838Y0062543D02*
X0204200Y0062543D01*
X0204200Y0060945D02*
X0233749Y0060945D01*
X0232940Y0059346D02*
X0205298Y0059346D01*
X0201706Y0056149D02*
X0186987Y0056149D01*
X0188535Y0054551D02*
X0203305Y0054551D01*
X0204403Y0052952D02*
X0189197Y0052952D01*
X0189300Y0051354D02*
X0204300Y0051354D01*
X0204311Y0049755D02*
X0188952Y0049755D01*
X0188002Y0048157D02*
X0202713Y0048157D01*
X0207902Y0046558D02*
X0208043Y0046558D01*
X0236800Y0047250D02*
X0236800Y0057007D01*
X0220214Y0065740D02*
X0213386Y0065740D01*
X0214462Y0067339D02*
X0219138Y0067339D01*
X0218700Y0068937D02*
X0214900Y0068937D01*
X0214887Y0070536D02*
X0218713Y0070536D01*
X0219375Y0072134D02*
X0214225Y0072134D01*
X0212812Y0073733D02*
X0220788Y0073733D01*
X0207639Y0081726D02*
X0207620Y0081726D01*
X0180788Y0073733D02*
X0160716Y0073733D01*
X0160424Y0072134D02*
X0179375Y0072134D01*
X0178713Y0070536D02*
X0158930Y0070536D01*
X0157332Y0068937D02*
X0178700Y0068937D01*
X0179138Y0067339D02*
X0155733Y0067339D01*
X0154135Y0065740D02*
X0180214Y0065740D01*
X0158316Y0073316D02*
X0126800Y0041800D01*
X0129820Y0017785D02*
X0143497Y0017785D01*
X0142374Y0016187D02*
X0130998Y0016187D01*
X0131400Y0014588D02*
X0142000Y0014588D01*
X0142179Y0012990D02*
X0131236Y0012990D01*
X0130396Y0011391D02*
X0142980Y0011391D01*
X0145139Y0009793D02*
X0127938Y0009793D01*
X0187835Y0012990D02*
X0205765Y0012990D01*
X0204717Y0014588D02*
X0188883Y0014588D01*
X0213435Y0012990D02*
X0220165Y0012990D01*
X0219117Y0014588D02*
X0214483Y0014588D01*
X0214900Y0016187D02*
X0218700Y0016187D01*
X0218734Y0017785D02*
X0214866Y0017785D01*
X0214204Y0019384D02*
X0219396Y0019384D01*
X0220837Y0020982D02*
X0212763Y0020982D01*
X0124342Y0067339D02*
X0048233Y0067339D01*
X0049832Y0068937D02*
X0122800Y0068937D01*
X0122200Y0070536D02*
X0051430Y0070536D01*
X0053029Y0072134D02*
X0122200Y0072134D01*
X0122829Y0073733D02*
X0054627Y0073733D01*
X0049437Y0075332D02*
X0036226Y0075332D01*
X0037824Y0076930D02*
X0051036Y0076930D01*
X0052634Y0078529D02*
X0039423Y0078529D01*
X0041021Y0080127D02*
X0104888Y0080127D01*
X0108669Y0081726D02*
X0042620Y0081726D01*
X0044218Y0083324D02*
X0104888Y0083324D01*
X0104975Y0084923D02*
X0045817Y0084923D01*
X0047415Y0086521D02*
X0106627Y0086521D01*
X0106627Y0088120D02*
X0049014Y0088120D01*
X0050612Y0089718D02*
X0106510Y0089718D01*
X0106510Y0091317D02*
X0052211Y0091317D01*
X0053809Y0092915D02*
X0104225Y0092915D01*
X0102627Y0094514D02*
X0055408Y0094514D01*
X0057006Y0096112D02*
X0101028Y0096112D01*
X0099430Y0097711D02*
X0058605Y0097711D01*
X0060203Y0099309D02*
X0097831Y0099309D01*
X0096232Y0100908D02*
X0061802Y0100908D01*
X0063400Y0102506D02*
X0094634Y0102506D01*
X0093035Y0104105D02*
X0064999Y0104105D01*
X0066597Y0105703D02*
X0091437Y0105703D01*
X0089838Y0107302D02*
X0068196Y0107302D01*
X0069794Y0108900D02*
X0088240Y0108900D01*
X0086641Y0110499D02*
X0071393Y0110499D01*
X0072991Y0112097D02*
X0085043Y0112097D01*
X0082655Y0113696D02*
X0074590Y0113696D01*
X0076188Y0115294D02*
X0082166Y0115294D01*
X0082443Y0116893D02*
X0077787Y0116893D01*
X0079385Y0118491D02*
X0083808Y0118491D01*
X0080984Y0120090D02*
X0102050Y0120090D01*
X0100452Y0121688D02*
X0083974Y0121688D01*
X0085043Y0123287D02*
X0098853Y0123287D01*
X0097255Y0124885D02*
X0085184Y0124885D01*
X0084402Y0126484D02*
X0095656Y0126484D01*
X0094058Y0128082D02*
X0035012Y0128082D01*
X0034284Y0136075D02*
X0094131Y0136075D01*
X0095155Y0134476D02*
X0095729Y0134476D01*
X0097182Y0132878D02*
X0097328Y0132878D01*
X0098780Y0131279D02*
X0098926Y0131279D01*
X0100379Y0129681D02*
X0100525Y0129681D01*
X0101977Y0128082D02*
X0102123Y0128082D01*
X0103576Y0126484D02*
X0103722Y0126484D01*
X0105174Y0124885D02*
X0105321Y0124885D01*
X0106773Y0123287D02*
X0106919Y0123287D01*
X0108371Y0121688D02*
X0108518Y0121688D01*
X0109970Y0120090D02*
X0110116Y0120090D01*
X0111568Y0118491D02*
X0111715Y0118491D01*
X0113167Y0116893D02*
X0113313Y0116893D01*
X0114765Y0115294D02*
X0114912Y0115294D01*
X0116364Y0113696D02*
X0116510Y0113696D01*
X0117962Y0112097D02*
X0118109Y0112097D01*
X0110043Y0112097D02*
X0092962Y0112097D01*
X0091364Y0113696D02*
X0108444Y0113696D01*
X0106846Y0115294D02*
X0089765Y0115294D01*
X0088657Y0116893D02*
X0105247Y0116893D01*
X0103649Y0118491D02*
X0087292Y0118491D01*
X0094561Y0110499D02*
X0105282Y0110499D01*
X0105247Y0110464D02*
X0105010Y0110054D01*
X0104888Y0109596D01*
X0104888Y0107181D01*
X0108669Y0107181D01*
X0108669Y0111159D01*
X0106451Y0111159D01*
X0105993Y0111036D01*
X0105583Y0110799D01*
X0105247Y0110464D01*
X0104888Y0108900D02*
X0096160Y0108900D01*
X0097758Y0107302D02*
X0104888Y0107302D01*
X0104888Y0105703D02*
X0099357Y0105703D01*
X0100955Y0104105D02*
X0104888Y0104105D01*
X0106207Y0102506D02*
X0102554Y0102506D01*
X0104152Y0100908D02*
X0106627Y0100908D01*
X0106627Y0099309D02*
X0105751Y0099309D01*
X0110550Y0094300D02*
X0109310Y0093060D01*
X0113050Y0089181D02*
X0113050Y0085800D01*
X0109050Y0081800D01*
X0113050Y0085122D02*
X0113050Y0089181D01*
X0113050Y0089181D01*
X0113050Y0085122D01*
X0113050Y0085122D01*
X0113050Y0086521D02*
X0113050Y0086521D01*
X0113050Y0088120D02*
X0113050Y0088120D01*
X0116790Y0089181D02*
X0117050Y0091422D01*
X0116800Y0091691D02*
X0116790Y0089181D01*
X0130264Y0088120D02*
X0133407Y0088120D01*
X0140193Y0088120D02*
X0143377Y0088120D01*
X0148079Y0091317D02*
X0148080Y0091317D01*
X0148079Y0092915D02*
X0148080Y0092915D01*
X0148079Y0094514D02*
X0148080Y0094514D01*
X0145550Y0094936D02*
X0145520Y0094906D01*
X0145550Y0094936D02*
X0145550Y0101800D01*
X0135550Y0111800D01*
X0135550Y0118050D01*
X0137843Y0120343D01*
X0137843Y0123694D01*
X0142961Y0123694D02*
X0142961Y0115639D01*
X0144300Y0114300D01*
X0146883Y0112097D02*
X0158109Y0112097D01*
X0159707Y0110499D02*
X0145811Y0110499D01*
X0147410Y0108900D02*
X0161306Y0108900D01*
X0162904Y0107302D02*
X0149008Y0107302D01*
X0150607Y0105703D02*
X0167441Y0105703D01*
X0167441Y0104919D02*
X0167441Y0102701D01*
X0167564Y0102243D01*
X0167801Y0101833D01*
X0168136Y0101497D01*
X0168546Y0101260D01*
X0169004Y0101138D01*
X0171419Y0101138D01*
X0171419Y0104919D01*
X0167441Y0104919D01*
X0167441Y0104105D02*
X0152205Y0104105D01*
X0153340Y0102506D02*
X0167493Y0102506D01*
X0171419Y0102506D02*
X0172181Y0102506D01*
X0172181Y0101138D02*
X0174596Y0101138D01*
X0175054Y0101260D01*
X0175464Y0101497D01*
X0175799Y0101833D01*
X0176036Y0102243D01*
X0176159Y0102701D01*
X0176159Y0104919D01*
X0172181Y0104919D01*
X0172181Y0101138D01*
X0176107Y0102506D02*
X0179068Y0102506D01*
X0178700Y0104105D02*
X0176159Y0104105D01*
X0176159Y0105703D02*
X0178782Y0105703D01*
X0172181Y0104105D02*
X0171419Y0104105D01*
X0180047Y0100908D02*
X0153439Y0100908D01*
X0153192Y0099309D02*
X0162012Y0099309D01*
X0163434Y0099309D02*
X0163434Y0099309D01*
X0163434Y0097711D02*
X0163434Y0097711D01*
X0163434Y0096112D02*
X0163434Y0096112D01*
X0163434Y0094514D02*
X0163434Y0094514D01*
X0163434Y0092915D02*
X0163434Y0092915D01*
X0163434Y0091317D02*
X0163434Y0091317D01*
X0158316Y0094906D02*
X0158316Y0073316D01*
X0155339Y0073733D02*
X0150771Y0073733D01*
X0151400Y0072134D02*
X0153740Y0072134D01*
X0152142Y0070536D02*
X0151400Y0070536D01*
X0149087Y0075332D02*
X0155916Y0075332D01*
X0155916Y0076930D02*
X0124074Y0076930D01*
X0124513Y0075332D02*
X0122476Y0075332D01*
X0152843Y0084300D02*
X0153198Y0084654D01*
X0153198Y0094906D01*
X0150639Y0094906D02*
X0150639Y0100461D01*
X0134191Y0109765D02*
X0134191Y0109765D01*
X0133491Y0110499D02*
X0131495Y0110499D01*
X0129897Y0112097D02*
X0133150Y0112097D01*
X0133150Y0113696D02*
X0128298Y0113696D01*
X0126700Y0115294D02*
X0133150Y0115294D01*
X0133150Y0116893D02*
X0125101Y0116893D01*
X0123503Y0118491D02*
X0133150Y0118491D01*
X0128072Y0120090D02*
X0121904Y0120090D01*
X0123376Y0121688D02*
X0120306Y0121688D01*
X0118707Y0123287D02*
X0122307Y0123287D01*
X0122166Y0124885D02*
X0117109Y0124885D01*
X0125550Y0124300D02*
X0129560Y0124300D01*
X0130166Y0123694D01*
X0127881Y0121688D02*
X0127724Y0121688D01*
X0148050Y0123694D02*
X0148050Y0116800D01*
X0151434Y0116893D02*
X0155916Y0116893D01*
X0155916Y0118491D02*
X0151013Y0118491D01*
X0151089Y0115294D02*
X0155916Y0115294D01*
X0156510Y0113696D02*
X0149399Y0113696D01*
X0148080Y0123694D02*
X0148050Y0123694D01*
X0165030Y0131279D02*
X0176070Y0131279D01*
X0177668Y0132878D02*
X0163767Y0132878D01*
X0162660Y0134476D02*
X0182158Y0134476D01*
X0185842Y0134476D02*
X0188017Y0134476D01*
X0188120Y0136075D02*
X0189615Y0136075D01*
X0189220Y0135679D02*
X0189220Y0135679D01*
X0189001Y0137673D02*
X0204394Y0137673D01*
X0204503Y0137339D02*
X0204235Y0138162D01*
X0204100Y0139017D01*
X0204100Y0139250D01*
X0209400Y0139250D01*
X0209800Y0139250D01*
X0209800Y0139650D01*
X0215100Y0139650D01*
X0215100Y0139883D01*
X0214965Y0140738D01*
X0214697Y0141561D01*
X0214304Y0142333D01*
X0213795Y0143033D01*
X0213183Y0143645D01*
X0212483Y0144154D01*
X0211711Y0144547D01*
X0210888Y0144815D01*
X0210033Y0144950D01*
X0209800Y0144950D01*
X0209800Y0139650D01*
X0209400Y0139650D01*
X0209400Y0144950D01*
X0209167Y0144950D01*
X0208312Y0144815D01*
X0207489Y0144547D01*
X0206717Y0144154D01*
X0206017Y0143645D01*
X0205405Y0143033D01*
X0204896Y0142333D01*
X0204503Y0141561D01*
X0204235Y0140738D01*
X0204100Y0139883D01*
X0204100Y0139650D01*
X0209400Y0139650D01*
X0209400Y0139250D01*
X0209400Y0133950D01*
X0209167Y0133950D01*
X0208312Y0134085D01*
X0207489Y0134353D01*
X0206717Y0134746D01*
X0206017Y0135255D01*
X0205405Y0135867D01*
X0204896Y0136567D01*
X0204503Y0137339D01*
X0205254Y0136075D02*
X0200762Y0136075D01*
X0200762Y0134476D02*
X0207246Y0134476D01*
X0209400Y0134476D02*
X0209800Y0134476D01*
X0209800Y0133950D02*
X0210033Y0133950D01*
X0210888Y0134085D01*
X0211711Y0134353D01*
X0212483Y0134746D01*
X0213183Y0135255D01*
X0213795Y0135867D01*
X0214304Y0136567D01*
X0214697Y0137339D01*
X0214965Y0138162D01*
X0215100Y0139017D01*
X0215100Y0139250D01*
X0209800Y0139250D01*
X0209800Y0133950D01*
X0211954Y0134476D02*
X0222158Y0134476D01*
X0222946Y0134150D02*
X0220998Y0134957D01*
X0219507Y0136448D01*
X0218700Y0138396D01*
X0218700Y0140504D01*
X0219507Y0142452D01*
X0220998Y0143943D01*
X0222946Y0144750D01*
X0225054Y0144750D01*
X0227002Y0143943D01*
X0228493Y0142452D01*
X0229300Y0140504D01*
X0229300Y0138396D01*
X0228493Y0136448D01*
X0227002Y0134957D01*
X0225054Y0134150D01*
X0222946Y0134150D01*
X0225842Y0134476D02*
X0232638Y0134476D01*
X0232638Y0134093D02*
X0236800Y0134093D01*
X0236800Y0130719D01*
X0239399Y0130719D01*
X0239857Y0130841D01*
X0240267Y0131078D01*
X0240603Y0131413D01*
X0240840Y0131824D01*
X0240962Y0132282D01*
X0240962Y0134093D01*
X0236800Y0134093D01*
X0236800Y0134093D01*
X0236800Y0130718D01*
X0234201Y0130719D01*
X0233743Y0130841D01*
X0233333Y0131078D01*
X0232997Y0131413D01*
X0232760Y0131824D01*
X0232638Y0132282D01*
X0232638Y0134093D01*
X0236800Y0134093D01*
X0236800Y0134093D01*
X0236800Y0134093D01*
X0236800Y0136950D01*
X0239300Y0139450D01*
X0249600Y0139450D01*
X0249800Y0139272D02*
X0258700Y0139272D01*
X0258700Y0138396D02*
X0258700Y0140504D01*
X0259507Y0142452D01*
X0260998Y0143943D01*
X0262946Y0144750D01*
X0265054Y0144750D01*
X0267002Y0143943D01*
X0268493Y0142452D01*
X0269300Y0140504D01*
X0269300Y0138396D01*
X0268493Y0136448D01*
X0267002Y0134957D01*
X0265054Y0134150D01*
X0262946Y0134150D01*
X0260998Y0134957D01*
X0259507Y0136448D01*
X0258700Y0138396D01*
X0258999Y0137673D02*
X0254806Y0137673D01*
X0254697Y0137339D02*
X0254965Y0138162D01*
X0255100Y0139017D01*
X0255100Y0139250D01*
X0249800Y0139250D01*
X0249800Y0139650D01*
X0255100Y0139650D01*
X0255100Y0139883D01*
X0254965Y0140738D01*
X0254697Y0141561D01*
X0254304Y0142333D01*
X0253795Y0143033D01*
X0253183Y0143645D01*
X0252483Y0144154D01*
X0251711Y0144547D01*
X0250888Y0144815D01*
X0250033Y0144950D01*
X0249800Y0144950D01*
X0249800Y0139650D01*
X0249400Y0139650D01*
X0249400Y0144950D01*
X0249167Y0144950D01*
X0248312Y0144815D01*
X0247489Y0144547D01*
X0246717Y0144154D01*
X0246017Y0143645D01*
X0245405Y0143033D01*
X0244896Y0142333D01*
X0244503Y0141561D01*
X0244235Y0140738D01*
X0244100Y0139883D01*
X0244100Y0139650D01*
X0249400Y0139650D01*
X0249400Y0139250D01*
X0249800Y0139250D01*
X0249800Y0133950D01*
X0250033Y0133950D01*
X0250888Y0134085D01*
X0251711Y0134353D01*
X0252483Y0134746D01*
X0253183Y0135255D01*
X0253795Y0135867D01*
X0254304Y0136567D01*
X0254697Y0137339D01*
X0253946Y0136075D02*
X0259880Y0136075D01*
X0262158Y0134476D02*
X0251954Y0134476D01*
X0249800Y0134476D02*
X0249400Y0134476D01*
X0249400Y0133950D02*
X0249167Y0133950D01*
X0248312Y0134085D01*
X0247489Y0134353D01*
X0246717Y0134746D01*
X0246017Y0135255D01*
X0245405Y0135867D01*
X0244896Y0136567D01*
X0244503Y0137339D01*
X0244235Y0138162D01*
X0244100Y0139017D01*
X0244100Y0139250D01*
X0249400Y0139250D01*
X0249400Y0133950D01*
X0247246Y0134476D02*
X0240962Y0134476D01*
X0240962Y0134093D02*
X0236800Y0134093D01*
X0236800Y0137468D01*
X0236800Y0134093D01*
X0236800Y0134093D01*
X0236800Y0134476D02*
X0236800Y0134476D01*
X0236800Y0132878D02*
X0236800Y0132878D01*
X0236800Y0131279D02*
X0236800Y0131279D01*
X0240469Y0131279D02*
X0317000Y0131279D01*
X0317000Y0129681D02*
X0240326Y0129681D01*
X0240962Y0132878D02*
X0317000Y0132878D01*
X0317000Y0134476D02*
X0291954Y0134476D01*
X0291711Y0134353D02*
X0292483Y0134746D01*
X0293183Y0135255D01*
X0293795Y0135867D01*
X0294304Y0136567D01*
X0294697Y0137339D01*
X0294965Y0138162D01*
X0295100Y0139017D01*
X0295100Y0139250D01*
X0289800Y0139250D01*
X0289800Y0139650D01*
X0295100Y0139650D01*
X0295100Y0139883D01*
X0294965Y0140738D01*
X0294697Y0141561D01*
X0294304Y0142333D01*
X0293795Y0143033D01*
X0293183Y0143645D01*
X0292483Y0144154D01*
X0291711Y0144547D01*
X0290888Y0144815D01*
X0290033Y0144950D01*
X0289800Y0144950D01*
X0289800Y0139650D01*
X0289400Y0139650D01*
X0289400Y0144950D01*
X0289167Y0144950D01*
X0288312Y0144815D01*
X0287489Y0144547D01*
X0286717Y0144154D01*
X0286017Y0143645D01*
X0285405Y0143033D01*
X0284896Y0142333D01*
X0284503Y0141561D01*
X0284235Y0140738D01*
X0284100Y0139883D01*
X0284100Y0139650D01*
X0289400Y0139650D01*
X0289400Y0139250D01*
X0289800Y0139250D01*
X0289800Y0133950D01*
X0290033Y0133950D01*
X0290888Y0134085D01*
X0291711Y0134353D01*
X0289800Y0134476D02*
X0289400Y0134476D01*
X0289400Y0133950D02*
X0289400Y0139250D01*
X0284100Y0139250D01*
X0284100Y0139017D01*
X0284235Y0138162D01*
X0284503Y0137339D01*
X0284896Y0136567D01*
X0285405Y0135867D01*
X0286017Y0135255D01*
X0286717Y0134746D01*
X0287489Y0134353D01*
X0288312Y0134085D01*
X0289167Y0133950D01*
X0289400Y0133950D01*
X0287246Y0134476D02*
X0265842Y0134476D01*
X0268120Y0136075D02*
X0285254Y0136075D01*
X0284394Y0137673D02*
X0269001Y0137673D01*
X0269300Y0139272D02*
X0289400Y0139272D01*
X0289800Y0139272D02*
X0302707Y0139272D01*
X0302847Y0139214D02*
X0304100Y0138491D01*
X0304761Y0138421D01*
X0305105Y0138279D01*
X0306116Y0138279D01*
X0307713Y0138111D01*
X0308230Y0138279D01*
X0308495Y0138279D01*
X0309459Y0138678D01*
X0311169Y0139234D01*
X0311482Y0139516D01*
X0311627Y0139576D01*
X0312332Y0140281D01*
X0313868Y0141665D01*
X0313991Y0141940D01*
X0314024Y0141973D01*
X0314267Y0142560D01*
X0315346Y0144983D01*
X0315346Y0148617D01*
X0314267Y0151040D01*
X0314024Y0151627D01*
X0313991Y0151660D01*
X0313868Y0151935D01*
X0312332Y0153319D01*
X0311627Y0154024D01*
X0311482Y0154084D01*
X0311168Y0154366D01*
X0309459Y0154922D01*
X0308495Y0155321D01*
X0308230Y0155321D01*
X0307713Y0155489D01*
X0306116Y0155321D01*
X0305105Y0155321D01*
X0304761Y0155179D01*
X0304100Y0155109D01*
X0302847Y0154386D01*
X0301973Y0154024D01*
X0301636Y0153687D01*
X0300954Y0153293D01*
X0300188Y0152239D01*
X0299576Y0151627D01*
X0299354Y0151091D01*
X0298818Y0150354D01*
X0298576Y0149212D01*
X0298279Y0148495D01*
X0298279Y0147815D01*
X0298063Y0146800D01*
X0298279Y0145785D01*
X0298279Y0145105D01*
X0298576Y0144388D01*
X0298818Y0143246D01*
X0299354Y0142509D01*
X0299576Y0141973D01*
X0300188Y0141361D01*
X0300954Y0140307D01*
X0301636Y0139913D01*
X0301973Y0139576D01*
X0302847Y0139214D01*
X0300545Y0140870D02*
X0294921Y0140870D01*
X0294205Y0142469D02*
X0299371Y0142469D01*
X0298644Y0144068D02*
X0292602Y0144068D01*
X0289800Y0144068D02*
X0289400Y0144068D01*
X0289400Y0142469D02*
X0289800Y0142469D01*
X0289800Y0140870D02*
X0289400Y0140870D01*
X0284995Y0142469D02*
X0268476Y0142469D01*
X0269148Y0140870D02*
X0284279Y0140870D01*
X0286598Y0144068D02*
X0266702Y0144068D01*
X0261298Y0144068D02*
X0252602Y0144068D01*
X0254205Y0142469D02*
X0259524Y0142469D01*
X0258852Y0140870D02*
X0254921Y0140870D01*
X0249800Y0140870D02*
X0249400Y0140870D01*
X0249400Y0139272D02*
X0229300Y0139272D01*
X0229148Y0140870D02*
X0244279Y0140870D01*
X0244995Y0142469D02*
X0228476Y0142469D01*
X0226702Y0144068D02*
X0246598Y0144068D01*
X0249400Y0144068D02*
X0249800Y0144068D01*
X0249800Y0142469D02*
X0249400Y0142469D01*
X0249400Y0137673D02*
X0249800Y0137673D01*
X0249800Y0136075D02*
X0249400Y0136075D01*
X0245254Y0136075D02*
X0240917Y0136075D01*
X0240962Y0135905D02*
X0240840Y0136363D01*
X0240603Y0136773D01*
X0240267Y0137108D01*
X0239857Y0137345D01*
X0239399Y0137468D01*
X0236800Y0137468D01*
X0234201Y0137468D01*
X0233743Y0137345D01*
X0233333Y0137108D01*
X0232997Y0136773D01*
X0232760Y0136363D01*
X0232638Y0135905D01*
X0232638Y0134093D01*
X0232638Y0132878D02*
X0200762Y0132878D01*
X0200186Y0131279D02*
X0233131Y0131279D01*
X0233274Y0129681D02*
X0200326Y0129681D01*
X0193274Y0129681D02*
X0191141Y0129681D01*
X0190424Y0128964D02*
X0190424Y0128964D01*
X0189409Y0128082D02*
X0192838Y0128082D01*
X0192739Y0131279D02*
X0193414Y0131279D01*
X0200762Y0124885D02*
X0205340Y0124885D01*
X0209400Y0136075D02*
X0209800Y0136075D01*
X0209800Y0137673D02*
X0209400Y0137673D01*
X0209400Y0139272D02*
X0189300Y0139272D01*
X0189148Y0140870D02*
X0204279Y0140870D01*
X0204995Y0142469D02*
X0188476Y0142469D01*
X0186702Y0144068D02*
X0206598Y0144068D01*
X0209400Y0144068D02*
X0209800Y0144068D01*
X0209800Y0142469D02*
X0209400Y0142469D01*
X0209400Y0140870D02*
X0209800Y0140870D01*
X0209800Y0139272D02*
X0218700Y0139272D01*
X0218852Y0140870D02*
X0214921Y0140870D01*
X0214205Y0142469D02*
X0219524Y0142469D01*
X0221298Y0144068D02*
X0212602Y0144068D01*
X0214806Y0137673D02*
X0218999Y0137673D01*
X0219880Y0136075D02*
X0213946Y0136075D01*
X0228120Y0136075D02*
X0232683Y0136075D01*
X0229001Y0137673D02*
X0244394Y0137673D01*
X0240962Y0135905D02*
X0240962Y0134093D01*
X0236800Y0136075D02*
X0236800Y0136075D01*
X0239200Y0118491D02*
X0243047Y0118491D01*
X0220955Y0108900D02*
X0212645Y0108900D01*
X0214155Y0107302D02*
X0219445Y0107302D01*
X0218782Y0105703D02*
X0214818Y0105703D01*
X0214900Y0104105D02*
X0218700Y0104105D01*
X0219068Y0102506D02*
X0214532Y0102506D01*
X0213553Y0100908D02*
X0220047Y0100908D01*
X0227953Y0100908D02*
X0232838Y0100908D01*
X0199400Y0108900D02*
X0198892Y0108900D01*
X0140919Y0132878D02*
X0140181Y0132878D01*
X0140181Y0134476D02*
X0140919Y0134476D01*
X0133832Y0134476D02*
X0133518Y0134476D01*
X0106159Y0155257D02*
X0167441Y0155257D01*
X0167889Y0156856D02*
X0105711Y0156856D01*
X0097889Y0156856D02*
X0006600Y0156856D01*
X0006600Y0155257D02*
X0014950Y0155257D01*
X0018650Y0155257D02*
X0028327Y0155257D01*
X0035273Y0155257D02*
X0097441Y0155257D01*
X0087941Y0147265D02*
X0033655Y0147265D01*
X0034864Y0145666D02*
X0089540Y0145666D01*
X0086343Y0148863D02*
X0035793Y0148863D01*
X0031800Y0141800D02*
X0091800Y0141800D01*
X0090934Y0139272D02*
X0036057Y0139272D01*
X0034603Y0137673D02*
X0092532Y0137673D01*
X0069400Y0115294D02*
X0021913Y0115294D01*
X0021191Y0113696D02*
X0067802Y0113696D01*
X0066203Y0112097D02*
X0019296Y0112097D01*
X0019802Y0110593D02*
X0017854Y0111400D01*
X0015746Y0111400D01*
X0013798Y0110593D01*
X0012307Y0109102D01*
X0011500Y0107154D01*
X0011500Y0105046D01*
X0012307Y0103098D01*
X0013798Y0101607D01*
X0014000Y0101523D01*
X0014000Y0097960D01*
X0012261Y0096221D01*
X0011835Y0095192D01*
X0011835Y0089654D01*
X0010608Y0088427D01*
X0009885Y0086682D01*
X0009885Y0084792D01*
X0010608Y0083047D01*
X0011761Y0081893D01*
X0011410Y0081638D01*
X0010859Y0081087D01*
X0010401Y0080457D01*
X0010048Y0079763D01*
X0009807Y0079022D01*
X0009685Y0078253D01*
X0009685Y0077863D01*
X0014635Y0077863D01*
X0019584Y0077863D01*
X0019584Y0078253D01*
X0019462Y0079022D01*
X0019222Y0079763D01*
X0018868Y0080457D01*
X0018410Y0081087D01*
X0017859Y0081638D01*
X0017508Y0081893D01*
X0018661Y0083047D01*
X0019384Y0084792D01*
X0019384Y0086682D01*
X0018661Y0088427D01*
X0017435Y0089654D01*
X0017435Y0093475D01*
X0018386Y0094426D01*
X0019174Y0095214D01*
X0019600Y0096243D01*
X0019600Y0101523D01*
X0019802Y0101607D01*
X0021293Y0103098D01*
X0022100Y0105046D01*
X0022100Y0107154D01*
X0021293Y0109102D01*
X0019802Y0110593D01*
X0019897Y0110499D02*
X0064605Y0110499D01*
X0063006Y0108900D02*
X0021377Y0108900D01*
X0022039Y0107302D02*
X0061408Y0107302D01*
X0059809Y0105703D02*
X0022100Y0105703D01*
X0021710Y0104105D02*
X0058211Y0104105D01*
X0056612Y0102506D02*
X0020702Y0102506D01*
X0019600Y0100908D02*
X0055014Y0100908D01*
X0053415Y0099309D02*
X0019600Y0099309D01*
X0019600Y0097711D02*
X0051817Y0097711D01*
X0050218Y0096112D02*
X0019546Y0096112D01*
X0018473Y0094514D02*
X0048620Y0094514D01*
X0047021Y0092915D02*
X0017435Y0092915D01*
X0017435Y0091317D02*
X0045423Y0091317D01*
X0043824Y0089718D02*
X0017435Y0089718D01*
X0018789Y0088120D02*
X0042226Y0088120D01*
X0040627Y0086521D02*
X0019384Y0086521D01*
X0019384Y0084923D02*
X0039028Y0084923D01*
X0037430Y0083324D02*
X0018776Y0083324D01*
X0017739Y0081726D02*
X0035831Y0081726D01*
X0034233Y0080127D02*
X0019036Y0080127D01*
X0019541Y0078529D02*
X0032634Y0078529D01*
X0031036Y0076930D02*
X0019498Y0076930D01*
X0019462Y0076704D02*
X0019584Y0077473D01*
X0019584Y0077863D01*
X0014635Y0077863D01*
X0014635Y0077863D01*
X0014635Y0072913D01*
X0015024Y0072913D01*
X0015794Y0073035D01*
X0016535Y0073276D01*
X0017229Y0073630D01*
X0017859Y0074088D01*
X0018410Y0074639D01*
X0018868Y0075269D01*
X0019222Y0075963D01*
X0019462Y0076704D01*
X0018900Y0075332D02*
X0029437Y0075332D01*
X0027839Y0073733D02*
X0017371Y0073733D01*
X0014635Y0073733D02*
X0014635Y0073733D01*
X0014635Y0072913D02*
X0014635Y0077863D01*
X0014635Y0077863D01*
X0009685Y0077863D01*
X0009685Y0077473D01*
X0009807Y0076704D01*
X0010048Y0075963D01*
X0010401Y0075269D01*
X0010859Y0074639D01*
X0011410Y0074088D01*
X0012040Y0073630D01*
X0012735Y0073276D01*
X0013476Y0073035D01*
X0014245Y0072913D01*
X0014635Y0072913D01*
X0011898Y0073733D02*
X0006600Y0073733D01*
X0006600Y0072134D02*
X0026240Y0072134D01*
X0024642Y0070536D02*
X0006600Y0070536D01*
X0006600Y0068937D02*
X0023043Y0068937D01*
X0021445Y0067339D02*
X0006600Y0067339D01*
X0006600Y0065740D02*
X0016311Y0065740D01*
X0014966Y0064142D02*
X0006600Y0064142D01*
X0006600Y0062543D02*
X0014400Y0062543D01*
X0014400Y0060945D02*
X0006600Y0060945D01*
X0019116Y0056149D02*
X0019484Y0056149D01*
X0019484Y0056900D02*
X0019484Y0051984D01*
X0024400Y0051984D01*
X0024400Y0052201D01*
X0024274Y0052994D01*
X0024026Y0053758D01*
X0023662Y0054473D01*
X0023190Y0055122D01*
X0022622Y0055690D01*
X0021973Y0056162D01*
X0021258Y0056526D01*
X0020494Y0056774D01*
X0019701Y0056900D01*
X0019484Y0056900D01*
X0019484Y0054551D02*
X0019116Y0054551D01*
X0019116Y0052952D02*
X0019484Y0052952D01*
X0019484Y0051354D02*
X0019116Y0051354D01*
X0019116Y0049755D02*
X0019484Y0049755D01*
X0019484Y0048157D02*
X0019116Y0048157D01*
X0020617Y0046558D02*
X0020664Y0046558D01*
X0024393Y0051354D02*
X0025460Y0051354D01*
X0024281Y0052952D02*
X0027058Y0052952D01*
X0028657Y0054551D02*
X0023605Y0054551D01*
X0021990Y0056149D02*
X0030255Y0056149D01*
X0031854Y0057748D02*
X0022178Y0057748D01*
X0023587Y0059346D02*
X0033452Y0059346D01*
X0035051Y0060945D02*
X0024200Y0060945D01*
X0024200Y0062543D02*
X0036649Y0062543D01*
X0038248Y0064142D02*
X0025036Y0064142D01*
X0026635Y0065740D02*
X0039846Y0065740D01*
X0041445Y0067339D02*
X0028233Y0067339D01*
X0029832Y0068937D02*
X0043043Y0068937D01*
X0044642Y0070536D02*
X0031430Y0070536D01*
X0033029Y0072134D02*
X0046240Y0072134D01*
X0047839Y0073733D02*
X0034627Y0073733D01*
X0014635Y0075332D02*
X0014635Y0075332D01*
X0014635Y0076930D02*
X0014635Y0076930D01*
X0014635Y0077863D02*
X0014635Y0077863D01*
X0010233Y0080127D02*
X0006600Y0080127D01*
X0006600Y0078529D02*
X0009729Y0078529D01*
X0009771Y0076930D02*
X0006600Y0076930D01*
X0006600Y0075332D02*
X0010369Y0075332D01*
X0011530Y0081726D02*
X0006600Y0081726D01*
X0006600Y0083324D02*
X0010493Y0083324D01*
X0009885Y0084923D02*
X0006600Y0084923D01*
X0006600Y0086521D02*
X0009885Y0086521D01*
X0010481Y0088120D02*
X0006600Y0088120D01*
X0006600Y0089718D02*
X0011835Y0089718D01*
X0011835Y0091317D02*
X0006600Y0091317D01*
X0006600Y0092915D02*
X0011835Y0092915D01*
X0011835Y0094514D02*
X0006600Y0094514D01*
X0006600Y0096112D02*
X0012216Y0096112D01*
X0013751Y0097711D02*
X0006600Y0097711D01*
X0006600Y0099309D02*
X0014000Y0099309D01*
X0014000Y0100908D02*
X0006600Y0100908D01*
X0006600Y0102506D02*
X0012898Y0102506D01*
X0011890Y0104105D02*
X0006600Y0104105D01*
X0006600Y0105703D02*
X0011500Y0105703D01*
X0011561Y0107302D02*
X0006600Y0107302D01*
X0006600Y0108900D02*
X0012223Y0108900D01*
X0013703Y0110499D02*
X0006600Y0110499D01*
X0006600Y0112097D02*
X0014304Y0112097D01*
X0012409Y0113696D02*
X0006600Y0113696D01*
X0006600Y0115294D02*
X0011687Y0115294D01*
X0011500Y0116893D02*
X0006600Y0116893D01*
X0006600Y0118491D02*
X0011764Y0118491D01*
X0012595Y0120090D02*
X0006600Y0120090D01*
X0006600Y0121688D02*
X0014752Y0121688D01*
X0013518Y0123287D02*
X0006600Y0123287D01*
X0006600Y0124885D02*
X0012146Y0124885D01*
X0011500Y0126484D02*
X0006600Y0126484D01*
X0006600Y0128082D02*
X0011500Y0128082D01*
X0011967Y0129681D02*
X0006600Y0129681D01*
X0006600Y0131279D02*
X0013084Y0131279D01*
X0012707Y0139272D02*
X0006600Y0139272D01*
X0006600Y0140870D02*
X0010545Y0140870D01*
X0009371Y0142469D02*
X0006600Y0142469D01*
X0006600Y0144068D02*
X0008644Y0144068D01*
X0008279Y0145666D02*
X0006600Y0145666D01*
X0006600Y0147265D02*
X0008162Y0147265D01*
X0008431Y0148863D02*
X0006600Y0148863D01*
X0006600Y0150462D02*
X0008897Y0150462D01*
X0010009Y0152060D02*
X0006600Y0152060D01*
X0006600Y0153659D02*
X0011587Y0153659D01*
X0108669Y0110499D02*
X0109431Y0110499D01*
X0109431Y0108900D02*
X0108669Y0108900D01*
X0108669Y0107302D02*
X0109431Y0107302D01*
X0109050Y0106800D02*
X0108050Y0106800D01*
X0175959Y0142469D02*
X0179524Y0142469D01*
X0181298Y0144068D02*
X0175959Y0144068D01*
X0175959Y0145666D02*
X0298279Y0145666D01*
X0298162Y0147265D02*
X0175959Y0147265D01*
X0175421Y0148863D02*
X0298431Y0148863D01*
X0298897Y0150462D02*
X0176095Y0150462D01*
X0176159Y0152060D02*
X0300009Y0152060D01*
X0301587Y0153659D02*
X0172181Y0153659D01*
X0176159Y0155257D02*
X0304950Y0155257D01*
X0308650Y0155257D02*
X0317000Y0155257D01*
X0317000Y0153659D02*
X0311992Y0153659D01*
X0313730Y0152060D02*
X0317000Y0152060D01*
X0317000Y0150462D02*
X0314525Y0150462D01*
X0315236Y0148863D02*
X0317000Y0148863D01*
X0317000Y0147265D02*
X0315346Y0147265D01*
X0315346Y0145666D02*
X0317000Y0145666D01*
X0317000Y0144068D02*
X0314938Y0144068D01*
X0314229Y0142469D02*
X0317000Y0142469D01*
X0317000Y0140870D02*
X0312987Y0140870D01*
X0311211Y0139272D02*
X0317000Y0139272D01*
X0317000Y0137673D02*
X0294806Y0137673D01*
X0293946Y0136075D02*
X0317000Y0136075D01*
X0289800Y0136075D02*
X0289400Y0136075D01*
X0289400Y0137673D02*
X0289800Y0137673D01*
X0317000Y0156856D02*
X0175711Y0156856D01*
D25*
X0160550Y0131800D03*
X0148050Y0116800D03*
X0144300Y0114300D03*
X0139300Y0116800D03*
X0125550Y0124300D03*
X0085550Y0115550D03*
X0081800Y0124300D03*
X0075550Y0131800D03*
X0126800Y0041800D03*
D26*
X0117050Y0081800D02*
X0117050Y0091422D01*
X0116800Y0091691D02*
X0116800Y0093050D01*
X0115550Y0094300D01*
X0110550Y0094300D01*
X0106800Y0094300D01*
X0085550Y0115550D01*
X0094300Y0131800D02*
X0075550Y0131800D01*
X0031800Y0131800D01*
X0016800Y0106100D02*
X0016800Y0096800D01*
X0014635Y0094635D01*
X0014635Y0085737D01*
X0094300Y0131800D02*
X0118040Y0108060D01*
X0118040Y0107790D01*
X0117050Y0106800D01*
X0116790Y0106540D01*
X0116790Y0099419D01*
X0109310Y0093060D02*
X0109310Y0089181D01*
X0139300Y0113050D02*
X0150639Y0101711D01*
X0150639Y0100461D01*
X0139300Y0113050D02*
X0139300Y0116800D01*
X0163050Y0129300D02*
X0163434Y0128916D01*
X0163050Y0129300D02*
X0160550Y0131800D01*
X0176800Y0128050D02*
X0179300Y0130550D01*
X0188050Y0130550D01*
X0191593Y0134093D01*
X0196800Y0134093D01*
M02*
