G75*
%MOIN*%
%OFA0B0*%
%FSLAX25Y25*%
%IPPOS*%
%LPD*%
%AMOC8*
5,1,8,0,0,1.08239X$1,22.5*
%
%ADD10C,0.07800*%
%ADD11R,0.03550X0.05124*%
%ADD12R,0.05124X0.03550*%
%ADD13R,0.01770X0.05900*%
%ADD14C,0.07000*%
%ADD15R,0.22054X0.08274*%
%ADD16R,0.05518X0.05124*%
%ADD17C,0.06400*%
%ADD18C,0.13400*%
%ADD19C,0.07400*%
%ADD20C,0.14243*%
%ADD21C,0.00500*%
%ADD22R,0.05124X0.05518*%
%ADD23R,0.02565X0.05124*%
%ADD24C,0.06699*%
D10*
X0184000Y0016650D03*
X0209600Y0016650D03*
X0224000Y0016650D03*
X0249600Y0016650D03*
X0264000Y0016650D03*
X0289600Y0016650D03*
X0289600Y0034450D03*
X0264000Y0034450D03*
X0249600Y0034450D03*
X0224000Y0034450D03*
X0209600Y0034450D03*
X0184000Y0034450D03*
X0184000Y0051650D03*
X0209600Y0051650D03*
X0224000Y0051650D03*
X0249600Y0051650D03*
X0264000Y0051650D03*
X0289600Y0051650D03*
X0289600Y0069450D03*
X0264000Y0069450D03*
X0249600Y0069450D03*
X0224000Y0069450D03*
X0209600Y0069450D03*
X0184000Y0069450D03*
X0184000Y0086650D03*
X0209600Y0086650D03*
X0224000Y0086650D03*
X0249600Y0086650D03*
X0264000Y0086650D03*
X0289600Y0086650D03*
X0289600Y0104450D03*
X0264000Y0104450D03*
X0249600Y0104450D03*
X0224000Y0104450D03*
X0209600Y0104450D03*
X0184000Y0104450D03*
X0184000Y0121650D03*
X0209600Y0121650D03*
X0224000Y0121650D03*
X0249600Y0121650D03*
X0264000Y0121650D03*
X0289600Y0121650D03*
X0289600Y0139450D03*
X0264000Y0139450D03*
X0249600Y0139450D03*
X0224000Y0139450D03*
X0209600Y0139450D03*
X0184000Y0139450D03*
D11*
X0144093Y0131800D03*
X0137007Y0131800D03*
X0130343Y0131800D03*
X0123257Y0131800D03*
X0145757Y0084300D03*
X0152843Y0084300D03*
X0233257Y0113050D03*
X0240343Y0113050D03*
X0273257Y0113050D03*
X0280343Y0113050D03*
D12*
X0236800Y0099093D03*
X0236800Y0092007D03*
X0236800Y0064093D03*
X0236800Y0057007D03*
X0236800Y0127007D03*
X0236800Y0134093D03*
X0196800Y0134093D03*
X0196800Y0127007D03*
D13*
X0163434Y0123694D03*
X0160875Y0123694D03*
X0158316Y0123694D03*
X0155757Y0123694D03*
X0153198Y0123694D03*
X0150639Y0123694D03*
X0148080Y0123694D03*
X0145520Y0123694D03*
X0142961Y0123694D03*
X0140402Y0123694D03*
X0137843Y0123694D03*
X0135284Y0123694D03*
X0132725Y0123694D03*
X0130166Y0123694D03*
X0130166Y0094906D03*
X0132725Y0094906D03*
X0135284Y0094906D03*
X0137843Y0094906D03*
X0140402Y0094906D03*
X0142961Y0094906D03*
X0145520Y0094906D03*
X0148080Y0094906D03*
X0150639Y0094906D03*
X0153198Y0094906D03*
X0155757Y0094906D03*
X0158316Y0094906D03*
X0160875Y0094906D03*
X0163434Y0094906D03*
D14*
X0031800Y0121800D03*
X0031800Y0131800D03*
X0031800Y0141800D03*
X0031800Y0151800D03*
X0019300Y0061800D03*
X0019300Y0051800D03*
X0019300Y0041800D03*
D15*
X0118099Y0145550D03*
X0155501Y0145550D03*
D16*
X0171800Y0145300D03*
X0171800Y0153300D03*
X0101800Y0153300D03*
X0101800Y0145300D03*
X0171800Y0113300D03*
X0171800Y0105300D03*
D17*
X0146800Y0071300D03*
X0136800Y0071300D03*
X0126800Y0071300D03*
X0126800Y0014300D03*
X0146800Y0014300D03*
D18*
X0162800Y0041800D03*
X0110800Y0041800D03*
D19*
X0136800Y0084300D03*
D20*
X0016800Y0016800D03*
X0016800Y0146800D03*
X0306800Y0146800D03*
X0306800Y0016800D03*
D21*
X0020192Y0105333D02*
X0019985Y0104694D01*
X0019657Y0104108D01*
X0019221Y0103597D01*
X0018694Y0103181D01*
X0018096Y0102875D01*
X0017449Y0102693D01*
X0016780Y0102640D01*
X0016116Y0102697D01*
X0015476Y0102883D01*
X0014884Y0103191D01*
X0014364Y0103608D01*
X0013935Y0104118D01*
X0013614Y0104702D01*
X0013413Y0105338D01*
X0013340Y0106000D01*
X0013402Y0106692D01*
X0013598Y0107358D01*
X0013920Y0107973D01*
X0014356Y0108513D01*
X0014888Y0108958D01*
X0015498Y0109290D01*
X0016160Y0109497D01*
X0016850Y0109570D01*
X0017531Y0109489D01*
X0018182Y0109276D01*
X0018779Y0108940D01*
X0019300Y0108494D01*
X0019723Y0107955D01*
X0020033Y0107343D01*
X0020218Y0106683D01*
X0020270Y0106000D01*
X0020192Y0105333D01*
X0020210Y0105490D02*
X0013396Y0105490D01*
X0013341Y0105989D02*
X0020269Y0105989D01*
X0020233Y0106487D02*
X0013384Y0106487D01*
X0013489Y0106986D02*
X0020133Y0106986D01*
X0019961Y0107484D02*
X0013664Y0107484D01*
X0013928Y0107983D02*
X0019701Y0107983D01*
X0019309Y0108481D02*
X0014330Y0108481D01*
X0014929Y0108980D02*
X0018708Y0108980D01*
X0017562Y0109478D02*
X0016101Y0109478D01*
X0013523Y0104992D02*
X0020081Y0104992D01*
X0019873Y0104493D02*
X0013729Y0104493D01*
X0014039Y0103995D02*
X0019561Y0103995D01*
X0019094Y0103496D02*
X0014503Y0103496D01*
X0015256Y0102998D02*
X0018336Y0102998D01*
X0017433Y0113419D02*
X0016760Y0113360D01*
X0016099Y0113420D01*
X0015463Y0113608D01*
X0014875Y0113916D01*
X0014359Y0114334D01*
X0013934Y0114844D01*
X0013617Y0115427D01*
X0013420Y0116060D01*
X0013350Y0116720D01*
X0013415Y0117408D01*
X0013613Y0118070D01*
X0013936Y0118681D01*
X0014372Y0119217D01*
X0014904Y0119658D01*
X0015512Y0119986D01*
X0016173Y0120190D01*
X0016860Y0120260D01*
X0017529Y0120183D01*
X0018171Y0119978D01*
X0018760Y0119651D01*
X0019273Y0119215D01*
X0019692Y0118688D01*
X0020000Y0118089D01*
X0020185Y0117441D01*
X0020241Y0116770D01*
X0020168Y0116098D01*
X0019965Y0115454D01*
X0019641Y0114861D01*
X0019207Y0114344D01*
X0018680Y0113920D01*
X0018081Y0113608D01*
X0017433Y0113419D01*
X0017596Y0113467D02*
X0015941Y0113467D01*
X0014815Y0113965D02*
X0018736Y0113965D01*
X0019307Y0114464D02*
X0014251Y0114464D01*
X0013870Y0114962D02*
X0019696Y0114962D01*
X0019967Y0115461D02*
X0013607Y0115461D01*
X0013452Y0115959D02*
X0020124Y0115959D01*
X0020207Y0116458D02*
X0013378Y0116458D01*
X0013373Y0116956D02*
X0020225Y0116956D01*
X0020181Y0117455D02*
X0013429Y0117455D01*
X0013578Y0117953D02*
X0020039Y0117953D01*
X0019813Y0118452D02*
X0013814Y0118452D01*
X0014155Y0118950D02*
X0019484Y0118950D01*
X0018998Y0119449D02*
X0014652Y0119449D01*
X0015440Y0119947D02*
X0018226Y0119947D01*
X0017403Y0124102D02*
X0016730Y0124050D01*
X0016070Y0124113D01*
X0015436Y0124303D01*
X0014850Y0124614D01*
X0014337Y0125033D01*
X0013915Y0125544D01*
X0013601Y0126127D01*
X0013407Y0126761D01*
X0013341Y0127420D01*
X0013401Y0128101D01*
X0013592Y0128756D01*
X0013908Y0129362D01*
X0014336Y0129894D01*
X0014860Y0130333D01*
X0015459Y0130661D01*
X0016111Y0130866D01*
X0016790Y0130940D01*
X0017469Y0130866D01*
X0018121Y0130662D01*
X0018720Y0130333D01*
X0019244Y0129895D01*
X0019672Y0129362D01*
X0019988Y0128757D01*
X0020180Y0128101D01*
X0020240Y0127420D01*
X0020161Y0126750D01*
X0019952Y0126109D01*
X0019622Y0125520D01*
X0019183Y0125008D01*
X0018653Y0124590D01*
X0018052Y0124284D01*
X0017403Y0124102D01*
X0018346Y0124434D02*
X0015189Y0124434D01*
X0014460Y0124932D02*
X0019088Y0124932D01*
X0019545Y0125431D02*
X0014008Y0125431D01*
X0013708Y0125929D02*
X0019851Y0125929D01*
X0020056Y0126428D02*
X0013509Y0126428D01*
X0013390Y0126926D02*
X0020182Y0126926D01*
X0020240Y0127425D02*
X0013341Y0127425D01*
X0013385Y0127923D02*
X0020196Y0127923D01*
X0020086Y0128422D02*
X0013495Y0128422D01*
X0013678Y0128920D02*
X0019903Y0128920D01*
X0019627Y0129419D02*
X0013954Y0129419D01*
X0014363Y0129917D02*
X0019217Y0129917D01*
X0018570Y0130416D02*
X0015011Y0130416D01*
X0016553Y0130914D02*
X0017027Y0130914D01*
D22*
X0109050Y0106800D03*
X0117050Y0106800D03*
X0117050Y0081800D03*
X0109050Y0081800D03*
D23*
X0109310Y0089181D03*
X0113050Y0089181D03*
X0116790Y0089181D03*
X0116790Y0099419D03*
X0109310Y0099419D03*
D24*
X0014635Y0085737D03*
X0014635Y0077863D03*
M02*
